<svg xmlns="http://www.w3.org/2000/svg" xmlns:xlink="http://www.w3.org/1999/xlink" width="108" height="108" viewBox="0 0 108 108">
  <defs>
    <filter id="Fondo" x="0" y="0" width="108" height="108" filterUnits="userSpaceOnUse">
      <feOffset dy="3" input="SourceAlpha"/>
      <feGaussianBlur stdDeviation="3" result="blur"/>
      <feFlood flood-opacity="0.161"/>
      <feComposite operator="in" in2="blur"/>
      <feComposite in="SourceGraphic"/>
    </filter>
    <clipPath id="clip-path">
      <rect id="Rectángulo_408461" data-name="Rectángulo 408461" width="49" height="49" transform="translate(0 0.089)" fill="none"/>
    </clipPath>
  </defs>
  <g id="Icono" transform="translate(-325.72 -689)">
    <g transform="matrix(1, 0, 0, 1, 325.72, 689)" filter="url(#Fondo)">
      <g id="Fondo-2" data-name="Fondo" transform="translate(9 6)" fill="#e6d567">
        <path d="M 45 88.5 C 39.12687683105469 88.5 33.43022537231445 87.35007476806641 28.06830024719238 85.08217620849609 C 22.88852500915527 82.89131164550781 18.23629951477051 79.75458526611328 14.2408504486084 75.75914764404297 C 10.24541282653809 71.76370239257812 7.108687400817871 67.11147308349609 4.917825222015381 61.93170166015625 C 2.649924993515015 56.56977462768555 1.5 50.87312316894531 1.5 45 C 1.5 39.12687683105469 2.649924993515015 33.43022537231445 4.917825222015381 28.06830024719238 C 7.108687400817871 22.88852500915527 10.24541282653809 18.23629951477051 14.2408504486084 14.2408504486084 C 18.23629951477051 10.24541282653809 22.88852500915527 7.108687400817871 28.06830024719238 4.917825222015381 C 33.43022537231445 2.649924993515015 39.12687683105469 1.5 45 1.5 C 50.87312316894531 1.5 56.56977462768555 2.649924993515015 61.93170166015625 4.917825222015381 C 67.11147308349609 7.108687400817871 71.76370239257812 10.24541282653809 75.75914764404297 14.2408504486084 C 79.75458526611328 18.23629951477051 82.89131164550781 22.88852500915527 85.08217620849609 28.06830024719238 C 87.35007476806641 33.43022537231445 88.5 39.12687683105469 88.5 45 C 88.5 50.87312316894531 87.35007476806641 56.56977462768555 85.08217620849609 61.93170166015625 C 82.89131164550781 67.11147308349609 79.75458526611328 71.76370239257812 75.75914764404297 75.75914764404297 C 71.76370239257812 79.75458526611328 67.11147308349609 82.89131164550781 61.93170166015625 85.08217620849609 C 56.56977462768555 87.35007476806641 50.87312316894531 88.5 45 88.5 Z" stroke="none"/>
        <path d="M 45 3 C 39.32871246337891 3 33.82865524291992 4.110054016113281 28.65262985229492 6.299339294433594 C 23.65165710449219 8.414573669433594 19.15968322753906 11.44334411621094 15.301513671875 15.301513671875 C 11.44334411621094 19.15968322753906 8.414573669433594 23.65165710449219 6.299339294433594 28.65262985229492 C 4.110054016113281 33.82865524291992 3 39.32871246337891 3 45 C 3 50.67128753662109 4.110054016113281 56.17134475708008 6.299339294433594 61.34737396240234 C 8.414573669433594 66.34834289550781 11.44334411621094 70.84031677246094 15.301513671875 74.698486328125 C 19.15968322753906 78.55665588378906 23.65165710449219 81.58542633056641 28.65262985229492 83.70066070556641 C 33.82865524291992 85.88994598388672 39.32871246337891 87 45 87 C 50.67128753662109 87 56.17134475708008 85.88994598388672 61.34737396240234 83.70066070556641 C 66.34834289550781 81.58542633056641 70.84031677246094 78.55665588378906 74.698486328125 74.698486328125 C 78.55665588378906 70.84031677246094 81.58542633056641 66.34834289550781 83.70066070556641 61.34737396240234 C 85.88994598388672 56.17134475708008 87 50.67128753662109 87 45 C 87 39.32871246337891 85.88994598388672 33.82865524291992 83.70066070556641 28.65262985229492 C 81.58542633056641 23.65165710449219 78.55665588378906 19.15968322753906 74.698486328125 15.301513671875 C 70.84031677246094 11.44334411621094 66.34834289550781 8.414573669433594 61.34737396240234 6.299339294433594 C 56.17134475708008 4.110054016113281 50.67128753662109 3 45 3 M 45 0 C 69.85281372070312 0 90 20.14718627929688 90 45 C 90 69.85281372070312 69.85281372070312 90 45 90 C 20.14718627929688 90 0 69.85281372070312 0 45 C 0 20.14718627929688 20.14718627929688 0 45 0 Z" stroke="none" fill="#bca724"/>
      </g>
    </g>
    <g id="Grupo_1151212" data-name="Grupo 1151212" transform="translate(355.72 715.911)">
      <line id="Línea_707" data-name="Línea 707" x1="2" transform="translate(31 22.089)" fill="none" stroke="#000" stroke-linejoin="round" stroke-width="2"/>
      <g id="Grupo_1151183" data-name="Grupo 1151183">
        <g id="Grupo_1151182" data-name="Grupo 1151182" clip-path="url(#clip-path)">
          <path id="Trazado_987036" data-name="Trazado 987036" d="M36,1l7.363,8.182H37.636A1.641,1.641,0,0,1,36,7.545Z" transform="translate(-6.546 -0.182)" fill="#bcbec0"/>
          <path id="Trazado_987037" data-name="Trazado 987037" d="M46.636,4.273V41.908a3.272,3.272,0,0,1-3.273,3.273H40.091a3.272,3.272,0,0,0,3.273-3.273V9.182L36,1h7.363a3.272,3.272,0,0,1,3.273,3.273" transform="translate(-6.546 -0.182)" fill="#d1d3d4"/>
          <path id="Trazado_987038" data-name="Trazado 987038" d="M37,9.182V41.908a3.272,3.272,0,0,1-3.273,3.273H4.273A3.272,3.272,0,0,1,1,41.908V4.273A3.272,3.272,0,0,1,4.273,1H29.635V7.545a1.641,1.641,0,0,0,1.636,1.636Z" transform="translate(-0.182 -0.182)" fill="#e6e7e8"/>
          <path id="Trazado_987039" data-name="Trazado 987039" d="M54.272,22.636V50.454a1.641,1.641,0,0,1-1.636,1.636h-18A1.641,1.641,0,0,1,33,50.454V22.636A1.641,1.641,0,0,1,34.636,21h18a1.641,1.641,0,0,1,1.636,1.636" transform="translate(-6.001 -3.819)" fill="#5aaae7"/>
          <path id="Trazado_987040" data-name="Trazado 987040" d="M53.727,27.818v4.909a.821.821,0,0,1-.818.818H39.818A.821.821,0,0,1,39,32.727V27.818A.821.821,0,0,1,39.818,27h13.09a.821.821,0,0,1,.818.818" transform="translate(-7.092 -4.91)" fill="#3d9ae2"/>
          <path id="Trazado_987041" data-name="Trazado 987041" d="M52.909,39H39.818a.821.821,0,0,0-.818.818v13.09a.821.821,0,0,0,.818.818h13.09a.821.821,0,0,0,.818-.818V39.818A.821.821,0,0,0,52.909,39" transform="translate(-7.092 -7.092)" fill="#3d9ae2"/>
          <rect id="Rectángulo_408439" data-name="Rectángulo 408439" width="5" height="5" transform="translate(40 35.089)" fill="#329bed"/>
          <path id="Trazado_987042" data-name="Trazado 987042" d="M53.909,49v4.091a.821.821,0,0,1-.818.818H49V49Z" transform="translate(-8.91 -8.91)" fill="#158be6"/>
          <rect id="Rectángulo_408440" data-name="Rectángulo 408440" width="5" height="5" transform="translate(30 35.089)" fill="#329bed"/>
          <rect id="Rectángulo_408441" data-name="Rectángulo 408441" width="5" height="5" transform="translate(35 30.089)" fill="#329bed"/>
          <path id="Trazado_987043" data-name="Trazado 987043" d="M41.909,49v4.909H37.818A.821.821,0,0,1,37,53.091V49Z" transform="translate(-6.728 -8.91)" fill="#158be6"/>
          <rect id="Rectángulo_408442" data-name="Rectángulo 408442" width="5" height="5" transform="translate(35 35.089)" fill="#158be6"/>
          <rect id="Rectángulo_408443" data-name="Rectángulo 408443" width="5" height="5" transform="translate(35 40.089)" fill="#329bed"/>
          <path id="Trazado_987044" data-name="Trazado 987044" d="M53.909,37.818v4.091H49V37h4.091a.821.821,0,0,1,.818.818" transform="translate(-8.91 -6.728)" fill="#158be6"/>
          <path id="Trazado_987045" data-name="Trazado 987045" d="M41.909,37v4.909H37V37.818A.821.821,0,0,1,37.818,37Z" transform="translate(-6.728 -6.728)" fill="#158be6"/>
          <path id="Trazado_987046" data-name="Trazado 987046" d="M51.727,25.818v4.909a.821.821,0,0,1-.818.818H37.818A.821.821,0,0,1,37,30.727V25.818A.821.821,0,0,1,37.818,25h13.09a.821.821,0,0,1,.818.818" transform="translate(-6.728 -4.546)" fill="#c2dff6"/>
          <path id="Trazado_987047" data-name="Trazado 987047" d="M21.556,47.657a8.017,8.017,0,0,1-.892,2.144l1.17,1.563H5.438L6.608,49.8a8.017,8.017,0,0,1-.892-2.144L3,47.272V44l2.716-.385a8.017,8.017,0,0,1,.892-2.144l-1.653-2.2,2.315-2.315,2.2,1.653a8.017,8.017,0,0,1,2.144-.892L12,35h3.273l.385,2.716a8.017,8.017,0,0,1,2.144.892L20,36.955l2.315,2.315-1.653,2.2a8.017,8.017,0,0,1,.892,2.144L24.272,44v3.273Z" transform="translate(-0.546 -6.365)" fill="#d8d7da"/>
          <path id="Trazado_987048" data-name="Trazado 987048" d="M22.272,42v3.273l-2.716.385a8.017,8.017,0,0,1-.892,2.144L20.317,50,18,52.317l-2.2-1.653a8.017,8.017,0,0,1-2.144.892l-.385,2.716H10l-.385-2.716a8.017,8.017,0,0,1-2.144-.892l-2.2,1.653L2.955,50l1.653-2.2a8.017,8.017,0,0,1-.892-2.144L1,45.272V42l2.716-.385a8.017,8.017,0,0,1,.892-2.144l-1.653-2.2,2.315-2.315,2.2,1.653a8.017,8.017,0,0,1,2.144-.892L10,33h3.273l.385,2.716a8.017,8.017,0,0,1,2.144.892L18,34.955l2.315,2.315-1.653,2.2a8.017,8.017,0,0,1,.892,2.144Z" transform="translate(-0.182 -6.001)" fill="#ff9811"/>
          <path id="Trazado_987049" data-name="Trazado 987049" d="M13.091,41A4.091,4.091,0,1,1,9,45.091,4.092,4.092,0,0,1,13.091,41" transform="translate(-1.637 -7.456)" fill="#ee8700"/>
          <rect id="Rectángulo_408444" data-name="Rectángulo 408444" width="20" height="1" transform="translate(5 15.089)"/>
          <rect id="Rectángulo_408445" data-name="Rectángulo 408445" width="20" height="2" transform="translate(5 18.089)"/>
          <rect id="Rectángulo_408446" data-name="Rectángulo 408446" width="20" height="2" transform="translate(5 21.089)"/>
          <path id="Trazado_987050" data-name="Trazado 987050" d="M10.091,11.363H8.454a.818.818,0,0,1-.818-.818H6A2.457,2.457,0,0,0,8.454,13v.818h1.636V13a2.454,2.454,0,1,0,0-4.909H8.454a.818.818,0,1,1,0-1.636h1.636a.818.818,0,0,1,.818.818h1.636a2.457,2.457,0,0,0-2.454-2.454V4H8.454v.818a2.454,2.454,0,1,0,0,4.909h1.636a.818.818,0,1,1,0,1.636" transform="translate(-1.091 -0.727)"/>
          <rect id="Rectángulo_408447" data-name="Rectángulo 408447" width="8" height="1" transform="translate(13 11.089)"/>
          <rect id="Rectángulo_408448" data-name="Rectángulo 408448" width="2" height="1" transform="translate(23 11.089)"/>
          <rect id="Rectángulo_408449" data-name="Rectángulo 408449" width="12" height="2" transform="translate(13 7.089)"/>
          <path id="Trazado_987051" data-name="Trazado 987051" d="M50.727,36H37.636A1.638,1.638,0,0,0,36,37.636v13.09a1.638,1.638,0,0,0,1.636,1.636h13.09a1.638,1.638,0,0,0,1.636-1.636V37.636A1.638,1.638,0,0,0,50.727,36m0,4.909H47.454V37.636h3.273Zm-8.182,1.636h3.273v3.273H42.545Zm3.273,8.182H42.545V47.454h3.273Zm-4.909-4.909H37.636V42.545h3.273Zm1.636-8.182h3.273v3.273H42.545Zm4.909,4.909h3.273v3.273H47.454Zm-6.545-1.636H37.636V37.636h3.273Zm-3.273,6.545h3.273v3.273H37.636Zm9.818,3.273V47.454h3.273v3.273Z" transform="translate(-6.546 -6.546)"/>
          <path id="Trazado_987052" data-name="Trazado 987052" d="M46.635,16.363H40.908V4.091A4.092,4.092,0,0,0,36.817,0H4.091A4.092,4.092,0,0,0,0,4.091V41.726a4.08,4.08,0,0,0,3.354,4.009l1.154,1.154a.813.813,0,0,0,1.072.082l1.538-1.154H7.74a9.683,9.683,0,0,0,.957.376l.311,2.193a.819.819,0,0,0,.81.7H13.09a.819.819,0,0,0,.81-.7l.311-2.193a9.683,9.683,0,0,0,.957-.376h.622l1.538,1.154a.813.813,0,0,0,1.072-.082l1.072-1.072h6.709v.818a2.462,2.462,0,0,0,2.454,2.454h18a2.462,2.462,0,0,0,2.454-2.454V18.818a2.462,2.462,0,0,0-2.454-2.454M36.817,1.636a2.462,2.462,0,0,1,2.454,2.454V16.363H37.635V9a.8.8,0,0,0-.213-.548L31.294,1.636ZM30.272,2.954l4.7,5.228H31.09a.821.821,0,0,1-.818-.818ZM2.25,43.346a2.426,2.426,0,0,1-.614-1.62V40.212l1.26.18a8.419,8.419,0,0,0,.556,1.342ZM17.828,42.29l1.227,1.628-1.317,1.317-1.628-1.227a.832.832,0,0,0-.908-.049,7.089,7.089,0,0,1-1.923.8.822.822,0,0,0-.614.679l-.286,2.013H10.53l-.286-2.013a.822.822,0,0,0-.614-.679,7.089,7.089,0,0,1-1.923-.8.832.832,0,0,0-.908.049L5.171,45.236,3.854,43.919,5.081,42.29a.832.832,0,0,0,.049-.908,7.089,7.089,0,0,1-.8-1.923.822.822,0,0,0-.679-.614L1.636,38.56V36.711l2.013-.286a.822.822,0,0,0,.679-.614,7.089,7.089,0,0,1,.8-1.923.832.832,0,0,0-.049-.908L3.854,31.352l1.317-1.317L6.8,31.262a.832.832,0,0,0,.908.049,7.089,7.089,0,0,1,1.923-.8.822.822,0,0,0,.614-.679l.286-2.013h1.849l.286,2.013a.822.822,0,0,0,.614.679,7.089,7.089,0,0,1,1.923.8.832.832,0,0,0,.908-.049l1.628-1.227,1.317,1.317L17.828,32.98a.832.832,0,0,0-.049.908,7.089,7.089,0,0,1,.8,1.923.822.822,0,0,0,.679.614l2.013.286V38.56l-2.013.286a.822.822,0,0,0-.679.614,7.089,7.089,0,0,1-.8,1.923.832.832,0,0,0,.049.908m8.353-23.473V44.18H20.92a.82.82,0,0,0-.131-.671l-1.334-1.775a8.419,8.419,0,0,0,.556-1.342l2.193-.311a.819.819,0,0,0,.7-.81V36a.819.819,0,0,0-.7-.81l-2.193-.311a8.419,8.419,0,0,0-.556-1.342l1.334-1.775a.813.813,0,0,0-.082-1.072L18.4,28.382a.813.813,0,0,0-1.072-.082l-1.775,1.334a8.419,8.419,0,0,0-1.342-.556L13.9,26.885a.819.819,0,0,0-.81-.7H9.818a.819.819,0,0,0-.81.7L8.7,29.077a8.419,8.419,0,0,0-1.342.556L5.58,28.3a.813.813,0,0,0-1.072.082L2.2,30.689a.813.813,0,0,0-.082,1.072l1.334,1.775A8.419,8.419,0,0,0,2.9,34.878l-1.26.18V4.091A2.462,2.462,0,0,1,4.091,1.636H28.635V7.363A2.462,2.462,0,0,0,31.09,9.818H36v6.545H28.635a2.462,2.462,0,0,0-2.454,2.454M47.453,46.635a.821.821,0,0,1-.818.818h-18a.821.821,0,0,1-.818-.818V18.818A.821.821,0,0,1,28.635,18h18a.821.821,0,0,1,.818.818Z"/>
          <path id="Trazado_987053" data-name="Trazado 987053" d="M50.727,24H37.636A1.638,1.638,0,0,0,36,25.636v4.909a1.638,1.638,0,0,0,1.636,1.636h13.09a1.638,1.638,0,0,0,1.636-1.636V25.636A1.638,1.638,0,0,0,50.727,24m0,6.545H37.636V25.636h13.09Z" transform="translate(-6.546 -4.364)"/>
          <rect id="Rectángulo_408450" data-name="Rectángulo 408450" width="2" height="1" transform="translate(40 23.089)"/>
          <rect id="Rectángulo_408451" data-name="Rectángulo 408451" width="1" height="1" transform="translate(37 23.089)"/>
          <rect id="Rectángulo_408452" data-name="Rectángulo 408452" width="1" height="1" transform="translate(34 23.089)"/>
          <path id="Trazado_987054" data-name="Trazado 987054" d="M12.909,40a4.909,4.909,0,1,0,4.909,4.909A4.914,4.914,0,0,0,12.909,40m0,8.182a3.273,3.273,0,1,1,3.273-3.273,3.276,3.276,0,0,1-3.273,3.273" transform="translate(-1.455 -7.274)"/>
          <rect id="Rectángulo_408453" data-name="Rectángulo 408453" width="1" height="2" transform="translate(11 29.089)"/>
          <rect id="Rectángulo_408454" data-name="Rectángulo 408454" width="1.636" height="1.636" transform="translate(5.09 32.428) rotate(-45)"/>
          <rect id="Rectángulo_408455" data-name="Rectángulo 408455" width="2" height="1" transform="translate(3 37.089)"/>
          <rect id="Rectángulo_408456" data-name="Rectángulo 408456" width="1.636" height="1.636" transform="translate(5.09 42.842) rotate(-45)"/>
          <rect id="Rectángulo_408457" data-name="Rectángulo 408457" width="1" height="2" transform="translate(11 44.089)"/>
          <rect id="Rectángulo_408458" data-name="Rectángulo 408458" width="1.636" height="1.636" transform="translate(15.504 42.842) rotate(-45)"/>
          <rect id="Rectángulo_408459" data-name="Rectángulo 408459" width="2" height="1" transform="translate(18 37.089)"/>
          <rect id="Rectángulo_408460" data-name="Rectángulo 408460" width="1.636" height="1.636" transform="translate(15.504 32.428) rotate(-45)"/>
        </g>
      </g>
    </g>
  </g>
</svg>
