<svg id="Grupo_1151153" data-name="Grupo 1151153" xmlns="http://www.w3.org/2000/svg" xmlns:xlink="http://www.w3.org/1999/xlink" width="610" height="363.66" viewBox="0 0 610 363.66">
  <defs>
    <clipPath id="clip-path">
      <rect id="Rectángulo_408424" data-name="Rectángulo 408424" width="610" height="363.66" fill="none"/>
    </clipPath>
    <clipPath id="clip-path-2">
      <rect id="Rectángulo_408423" data-name="Rectángulo 408423" width="610.001" height="363.66" fill="none"/>
    </clipPath>
    <clipPath id="clip-path-3">
      <rect id="Rectángulo_408376" data-name="Rectángulo 408376" width="57.913" height="35.329" fill="none"/>
    </clipPath>
    <clipPath id="clip-path-4">
      <rect id="Rectángulo_408377" data-name="Rectángulo 408377" width="37.5" height="40.519" fill="none"/>
    </clipPath>
    <clipPath id="clip-path-5">
      <rect id="Rectángulo_408378" data-name="Rectángulo 408378" width="139.203" height="121.576" fill="none"/>
    </clipPath>
    <clipPath id="clip-path-6">
      <rect id="Rectángulo_408379" data-name="Rectángulo 408379" width="74.042" height="48.59" fill="none"/>
    </clipPath>
    <clipPath id="clip-path-7">
      <rect id="Rectángulo_408382" data-name="Rectángulo 408382" width="52.87" height="44.113" fill="none"/>
    </clipPath>
    <clipPath id="clip-path-8">
      <rect id="Rectángulo_408383" data-name="Rectángulo 408383" width="55.446" height="55.43" fill="none"/>
    </clipPath>
    <clipPath id="clip-path-9">
      <rect id="Rectángulo_408421" data-name="Rectángulo 408421" width="58.799" height="67.594" fill="none"/>
    </clipPath>
  </defs>
  <g id="Grupo_1151152" data-name="Grupo 1151152" clip-path="url(#clip-path)">
    <g id="Grupo_1151151" data-name="Grupo 1151151" transform="translate(0 0)">
      <g id="Grupo_1151150" data-name="Grupo 1151150" clip-path="url(#clip-path-2)">
        <path id="Trazado_986813" data-name="Trazado 986813" d="M43.733,362.868S-32.249,295.914,16.09,217.141,129.353,177.983,126.211,86.3,275.522-13.264,324.049,13.321s48.235,58.6,148.413,48.009,119.316,77.716,93.254,122.723c-36.978,63.858,102.63,53.325,14.661,178.815Z" transform="translate(0 0.001)" fill="#ebf3fa"/>
        <g id="Grupo_1151131" data-name="Grupo 1151131" transform="translate(375.494 153.047)" opacity="0.3">
          <g id="Grupo_1151130" data-name="Grupo 1151130">
            <g id="Grupo_1151129" data-name="Grupo 1151129" clip-path="url(#clip-path-3)">
              <path id="Trazado_986814" data-name="Trazado 986814" d="M1641.042,704.2s18.248-37.836,50.992-35.2c0,0,6.35.608,6.9,7.871s-11.749,4.593-19.953,5.651-28.484,8.748-37.942,21.676" transform="translate(-1641.042 -668.867)" fill="#aec3ff"/>
            </g>
          </g>
        </g>
        <g id="Grupo_1151134" data-name="Grupo 1151134" transform="translate(376.426 140.227)" opacity="0.3">
          <g id="Grupo_1151133" data-name="Grupo 1151133">
            <g id="Grupo_1151132" data-name="Grupo 1151132" clip-path="url(#clip-path-4)">
              <path id="Trazado_986815" data-name="Trazado 986815" d="M1645.109,653.36s4.01-33.8,29.793-40.4a6.5,6.5,0,0,1,7.363,4.211c2.337,5.419-7.792,6.615-13.8,9.587s-19.518,14.208-23.358,26.606" transform="translate(-1645.109 -612.841)" fill="#aec3ff"/>
            </g>
          </g>
        </g>
        <g id="Grupo_1151137" data-name="Grupo 1151137" transform="translate(206.287 226.536)" opacity="0.3">
          <g id="Grupo_1151136" data-name="Grupo 1151136">
            <g id="Grupo_1151135" data-name="Grupo 1151135" clip-path="url(#clip-path-5)">
              <path id="Trazado_986816" data-name="Trazado 986816" d="M994.884,997.41s12.838,29.674,7.187,31.67-11.929-34.074-11.929-34.074-31.859-7.568-42.881-4.018c0,0,24.67,26.329,18.688,26.869s-32.916-25.676-32.916-25.676-30.686.963-31.446,19.467,8.856,25.576,13.466,25.716,32.52-6.33,32.619-2.531-17.483,13.747-28.769,12.771c0,0,18.159,26.221,33.1,21.434s17.516-15.283,26.8-18.073,16.772-1.749,12.625,1.831-20.532,5.355-26.692,13.52-11.431,13.517,3.408,13.336,39.873-7.552,42.485-19.583h0c2.962.957,8.538,7.387,12.528,12.383.6.866,1.516,2.049,2.833,3.637h0c.553.727,1,1.324,1.307,1.741,7.839,11.432,10.1,33.632,10.1,33.632l3.214.154c1.767-23.257-14.069-38.591-14.069-38.591-10.856-12.532-13.3-24.988-13.3-24.988s23.8-21.237,6.364-39.211c0,0-13.07-10.521-24.72-11.418" transform="translate(-901.545 -990.041)" fill="#aec3ff"/>
            </g>
          </g>
        </g>
        <g id="Grupo_1151140" data-name="Grupo 1151140" transform="translate(361.301 306.577)" opacity="0.3">
          <g id="Grupo_1151139" data-name="Grupo 1151139">
            <g id="Grupo_1151138" data-name="Grupo 1151138" clip-path="url(#clip-path-6)">
              <path id="Trazado_986817" data-name="Trazado 986817" d="M1651.668,1377.585c5.362-7.676-6.6-17.58-6.6-17.58s-18.784,2.188-21.007.116,15.691-5.008,15.691-5.008c-3.315-4.846-18.355-11.683-18.355-11.683s-13.552,12.556-15.2,10,12.568-10.505,12.568-10.505c-4.927-3.252-13.368-3.076-13.368-3.076-12.466,1.82-9.465,17.739-9.465,17.739a30,30,0,0,1-12.963,5.922h0a21.8,21.8,0,0,0-3.964.965l.989,1.183c.4-.168.793-.318,1.186-.446a.009.009,0,0,1,.007,0l.017-.005c.25-.072.608-.172,1.046-.291h0c1.009-.229,1.735-.422,2.241-.582l0,0c3.123-.771,7.317-1.627,8.793-1.093a2.979,2.979,0,0,1,.33-.706l-.33.706c-2.641,5.647,5.1,16.375,10.97,21.05s5.4.888,5.445-4.305-5.959-10.989-6.52-13.714,2.748-.823,5.6,3.179.67,9.021,5.17,15.579,19.781,1.647,19.781,1.647c-4.806-3.108-8.781-12.561-7.579-14.057s10.368,9.761,12.252,11.134,7.89,1.513,13.252-6.163" transform="translate(-1579.009 -1339.847)" fill="#aec3ff"/>
            </g>
          </g>
        </g>
        <path id="Trazado_986818" data-name="Trazado 986818" d="M848.324,694.333l7.837,122.9-3.872.247c-.043,0-2.943-11.675-2.943-11.675l-7.084-111.09Z" transform="translate(-649.54 -535.459)" fill="#aec3ff"/>
        <path id="Trazado_986819" data-name="Trazado 986819" d="M889.759,1231.824l1.852,7.842.42-7.987Z" transform="translate(-686.169 -949.852)" fill="#0b0755"/>
        <path id="Trazado_986820" data-name="Trazado 986820" d="M879.109,1161.881a3.88,3.88,0,1,1,4.12,3.626,3.88,3.88,0,0,1-4.12-3.626" transform="translate(-677.95 -892.842)" fill="#f78248"/>
        <path id="Trazado_986821" data-name="Trazado 986821" d="M881.437,681.12l59.628,107.756L944.459,787c.038-.021-3.812-11.421-3.812-11.421l-53.9-97.4Z" transform="translate(-679.751 -523.001)" fill="#aec3ff"/>
        <path id="Trazado_986822" data-name="Trazado 986822" d="M1146.927,1155.539l2.665,7.6-4.658-6.5Z" transform="translate(-882.956 -891.134)" fill="#0b0755"/>
        <rect id="Rectángulo_408380" data-name="Rectángulo 408380" width="2.193" height="9.786" transform="matrix(0.875, -0.484, 0.484, 0.875, 247.316, 228.035)" fill="#f78248"/>
        <rect id="Rectángulo_408381" data-name="Rectángulo 408381" width="4.555" height="15.691" transform="translate(191.493 136.419) rotate(-15.993)" fill="#0b0755"/>
        <path id="Trazado_986823" data-name="Trazado 986823" d="M852.229,653.367l-.93,8.7,4.253,14.838-9.731,2.789-4.253-14.838-5.4-6.883a8.347,8.347,0,0,1,5.724-10.323l.01,0a8.348,8.348,0,0,1,10.323,5.724" transform="translate(-644.593 -499.201)" fill="#f78248"/>
        <path id="Trazado_986824" data-name="Trazado 986824" d="M862.187,675.716A2.278,2.278,0,1,1,865,677.278a2.277,2.277,0,0,1-2.817-1.562" transform="translate(-664.837 -518.861)" fill="#0b0755"/>
        <g id="Grupo_1151143" data-name="Grupo 1151143" transform="translate(410.922 80.083)" opacity="0.5">
          <g id="Grupo_1151142" data-name="Grupo 1151142">
            <g id="Grupo_1151141" data-name="Grupo 1151141" clip-path="url(#clip-path-7)">
              <path id="Trazado_986825" data-name="Trazado 986825" d="M2021.726,537.583h-1.543v-.565h.977v-.978h.566Z" transform="translate(-1968.857 -493.468)" fill="#aec3ff"/>
              <path id="Trazado_986826" data-name="Trazado 986826" d="M1858.605,540.878h-2.62v-.565h2.62Zm-5.24,0h-2.62v-.565h2.62Zm-5.241,0h-2.62v-.565h2.62Zm-5.24,0h-2.62v-.565h2.62Zm-5.24,0h-2.62v-.565h2.62Zm-5.241,0h-2.62v-.565h2.62Zm-5.24,0h-2.62v-.565h2.62Zm-5.241,0h-2.62v-.565h2.62Zm-5.24,0h-2.62v-.565h2.62Z" transform="translate(-1809.899 -496.764)" fill="#aec3ff"/>
              <path id="Trazado_986827" data-name="Trazado 986827" d="M1797.409,537.583h-1.543v-1.543h.566v.978h.978Z" transform="translate(-1795.867 -493.468)" fill="#aec3ff"/>
              <path id="Trazado_986828" data-name="Trazado 986828" d="M1796.432,403.48h-.566v-2.413h.566Zm0-4.827h-.566v-2.414h.566Zm0-4.827h-.566v-2.413h.566Zm0-4.827h-.566v-2.414h.566Zm0-4.827h-.566v-2.414h.566Zm0-4.827h-.566v-2.414h.566Zm0-4.827h-.566V372.1h.566Zm0-4.827h-.566v-2.413h.566Z" transform="translate(-1795.867 -363.322)" fill="#aec3ff"/>
              <path id="Trazado_986829" data-name="Trazado 986829" d="M1796.431,351.529h-.566v-1.543h1.543v.566h-.978Z" transform="translate(-1795.866 -349.987)" fill="#aec3ff"/>
              <path id="Trazado_986830" data-name="Trazado 986830" d="M1858.605,350.551h-2.62v-.566h2.62Zm-5.24,0h-2.62v-.566h2.62Zm-5.241,0h-2.62v-.566h2.62Zm-5.24,0h-2.62v-.566h2.62Zm-5.24,0h-2.62v-.566h2.62Zm-5.241,0h-2.62v-.566h2.62Zm-5.24,0h-2.62v-.566h2.62Zm-5.24,0h-2.62v-.566h2.62Zm-5.24,0h-2.62v-.566h2.62Z" transform="translate(-1809.899 -349.986)" fill="#aec3ff"/>
              <path id="Trazado_986831" data-name="Trazado 986831" d="M2021.726,351.529h-.566v-.978h-.977v-.566h1.543Z" transform="translate(-1968.857 -349.987)" fill="#aec3ff"/>
              <path id="Trazado_986832" data-name="Trazado 986832" d="M2025.021,403.48h-.566v-2.414h.566Zm0-4.827h-.566V396.24h.566Zm0-4.827h-.566v-2.414h.566Zm0-4.827h-.566v-2.413h.566Zm0-4.827h-.566v-2.414h.566Zm0-4.827h-.566v-2.413h.566Zm0-4.827h-.566V372.1h.566Zm0-4.827h-.566v-2.413h.566Z" transform="translate(-1972.151 -363.322)" fill="#aec3ff"/>
            </g>
          </g>
        </g>
        <g id="Grupo_1151146" data-name="Grupo 1151146" transform="translate(443.645 90.13)" opacity="0.5">
          <g id="Grupo_1151145" data-name="Grupo 1151145">
            <g id="Grupo_1151144" data-name="Grupo 1151144" clip-path="url(#clip-path-8)">
              <path id="Trazado_986833" data-name="Trazado 986833" d="M1966.58,449.329a28.11,28.11,0,0,1-2.834-.146l.064-.627a27.542,27.542,0,0,0,2.771.143Zm2.836-.141-.063-.627a27.156,27.156,0,0,0,2.743-.419l.127.617a27.768,27.768,0,0,1-2.807.429m-8.477-.439a27.6,27.6,0,0,1-2.747-.721l.191-.6a27.018,27.018,0,0,0,2.685.7Zm14.032-.7-.19-.6a27.025,27.025,0,0,0,2.6-.972l.25.578a27.732,27.732,0,0,1-2.66.995m-19.437-1.015a27.744,27.744,0,0,1-2.542-1.268l.31-.549a27.131,27.131,0,0,0,2.484,1.239Zm24.641-1.242-.309-.549a27.3,27.3,0,0,0,2.346-1.482l.364.515a27.919,27.919,0,0,1-2.4,1.516m-29.581-1.547a27.956,27.956,0,0,1-2.23-1.758l.415-.474a27.156,27.156,0,0,0,2.179,1.718Zm34.215-1.723-.414-.475a27.381,27.381,0,0,0,2-1.928l.46.431a28.052,28.052,0,0,1-2.043,1.972m-38.484-2.011a27.943,27.943,0,0,1-1.828-2.173l.5-.38a27.231,27.231,0,0,0,1.786,2.124Zm42.36-2.13-.5-.381a27.345,27.345,0,0,0,1.565-2.292l.538.328a27.77,27.77,0,0,1-1.6,2.345m-45.785-2.391a27.863,27.863,0,0,1-1.348-2.5l.569-.27a27.192,27.192,0,0,0,1.318,2.442Zm48.74-2.451-.568-.271a27.05,27.05,0,0,0,1.065-2.563l.594.211a27.672,27.672,0,0,1-1.09,2.623m-51.173-2.672a27.539,27.539,0,0,1-.808-2.722l.612-.148a26.994,26.994,0,0,0,.79,2.66Zm53.077-2.672-.612-.149a27.125,27.125,0,0,0,.517-2.726l.624.086a27.79,27.79,0,0,1-.529,2.79m-54.409-2.841a28.062,28.062,0,0,1-.235-2.829l.629-.021a27.334,27.334,0,0,0,.23,2.765Zm55.179-2.778-.63-.022q.016-.469.016-.942c0-.611-.02-1.228-.061-1.833l.629-.042c.041.619.062,1.25.062,1.875,0,.319-.005.643-.016.964m-54.8-.964h-.63a28.1,28.1,0,0,1,.143-2.835l.626.064a27.624,27.624,0,0,0-.14,2.771m53.8-4.588a27.1,27.1,0,0,0-.607-2.708l.607-.169a27.73,27.73,0,0,1,.621,2.771Zm-53.237-.926-.617-.127a27.6,27.6,0,0,1,.718-2.748l.6.191a26.853,26.853,0,0,0-.7,2.685m51.748-4.412a26.983,26.983,0,0,0-1.149-2.526l.56-.29a27.717,27.717,0,0,1,1.176,2.585Zm-50.072-.871-.578-.251a27.642,27.642,0,0,1,1.266-2.543l.548.31a27.04,27.04,0,0,0-1.237,2.484m47.521-4.049a27.374,27.374,0,0,0-1.639-2.239l.488-.4a27.839,27.839,0,0,1,1.677,2.291Zm-44.8-.78-.515-.364a27.969,27.969,0,0,1,1.756-2.232l.475.414a27.44,27.44,0,0,0-1.716,2.181m41.3-3.52a27.4,27.4,0,0,0-2.059-1.861l.4-.488a28.086,28.086,0,0,1,2.107,1.9Zm-37.655-.657-.43-.46a27.9,27.9,0,0,1,2.172-1.83l.381.5a27.335,27.335,0,0,0-2.122,1.788m33.358-2.846a27.256,27.256,0,0,0-2.394-1.4l.291-.559a27.829,27.829,0,0,1,2.45,1.437Zm-28.943-.505-.328-.538a27.867,27.867,0,0,1,2.5-1.35l.271.569a27.068,27.068,0,0,0-2.441,1.32m24.023-2.051a27.057,27.057,0,0,0-2.63-.885l.17-.607a27.581,27.581,0,0,1,2.692.906Zm-19.019-.331-.211-.594a27.68,27.68,0,0,1,2.721-.811l.149.612a27.132,27.132,0,0,0-2.66.793m13.682-1.164a27.217,27.217,0,0,0-2.755-.328l.043-.629a27.937,27.937,0,0,1,2.819.336Zm-8.3-.143-.085-.624a28.008,28.008,0,0,1,2.828-.238l.021.63a27.416,27.416,0,0,0-2.765.233" transform="translate(-1938.882 -393.899)" fill="#aec3ff"/>
            </g>
          </g>
        </g>
        <path id="Trazado_986834" data-name="Trazado 986834" d="M555.349,1261.807l-33.313-52.148,67.273-42.975Z" transform="translate(-402.586 -899.729)" fill="#aec3ff"/>
        <path id="Trazado_986835" data-name="Trazado 986835" d="M603.791,1329.182l-15.054-23.565,30.4-19.42Z" transform="translate(-454.025 -991.896)" fill="#ebf3fa"/>
        <rect id="Rectángulo_408384" data-name="Rectángulo 408384" width="0.355" height="4.52" transform="matrix(0.843, -0.538, 0.538, 0.843, 124.128, 308.252)" fill="#060633"/>
        <rect id="Rectángulo_408385" data-name="Rectángulo 408385" width="0.355" height="2.659" transform="matrix(0.843, -0.538, 0.538, 0.843, 125.884, 307.131)" fill="#060633"/>
        <rect id="Rectángulo_408386" data-name="Rectángulo 408386" width="0.355" height="2.659" transform="matrix(0.843, -0.538, 0.538, 0.843, 127.359, 306.188)" fill="#060633"/>
        <rect id="Rectángulo_408387" data-name="Rectángulo 408387" width="0.355" height="2.659" transform="matrix(0.843, -0.538, 0.538, 0.843, 128.759, 305.294)" fill="#060633"/>
        <rect id="Rectángulo_408388" data-name="Rectángulo 408388" width="0.355" height="2.659" transform="matrix(0.843, -0.538, 0.538, 0.843, 130.054, 304.467)" fill="#060633"/>
        <rect id="Rectángulo_408389" data-name="Rectángulo 408389" width="0.355" height="2.659" transform="matrix(0.843, -0.538, 0.538, 0.843, 131.498, 303.544)" fill="#060633"/>
        <rect id="Rectángulo_408390" data-name="Rectángulo 408390" width="0.354" height="4.52" transform="matrix(0.843, -0.538, 0.538, 0.843, 132.942, 302.622)" fill="#060633"/>
        <rect id="Rectángulo_408391" data-name="Rectángulo 408391" width="0.355" height="2.659" transform="matrix(0.843, -0.538, 0.538, 0.843, 134.697, 301.501)" fill="#060633"/>
        <rect id="Rectángulo_408392" data-name="Rectángulo 408392" width="0.355" height="2.659" transform="matrix(0.843, -0.538, 0.538, 0.843, 136.172, 300.558)" fill="#060633"/>
        <rect id="Rectángulo_408393" data-name="Rectángulo 408393" width="0.355" height="2.659" transform="translate(137.572 299.664) rotate(-32.593)" fill="#060633"/>
        <rect id="Rectángulo_408394" data-name="Rectángulo 408394" width="0.355" height="2.659" transform="matrix(0.843, -0.538, 0.538, 0.843, 138.867, 298.836)" fill="#060633"/>
        <rect id="Rectángulo_408395" data-name="Rectángulo 408395" width="0.355" height="2.659" transform="matrix(0.843, -0.538, 0.538, 0.843, 140.311, 297.914)" fill="#060633"/>
        <rect id="Rectángulo_408396" data-name="Rectángulo 408396" width="0.355" height="4.52" transform="translate(142.309 296.638) rotate(-32.593)" fill="#060633"/>
        <rect id="Rectángulo_408397" data-name="Rectángulo 408397" width="0.355" height="2.659" transform="matrix(0.843, -0.538, 0.538, 0.843, 144.065, 295.516)" fill="#060633"/>
        <rect id="Rectángulo_408398" data-name="Rectángulo 408398" width="0.355" height="2.659" transform="matrix(0.843, -0.538, 0.538, 0.843, 145.54, 294.574)" fill="#060633"/>
        <rect id="Rectángulo_408399" data-name="Rectángulo 408399" width="0.355" height="2.659" transform="matrix(0.843, -0.538, 0.538, 0.843, 146.94, 293.679)" fill="#060633"/>
        <rect id="Rectángulo_408400" data-name="Rectángulo 408400" width="0.354" height="2.659" transform="matrix(0.843, -0.538, 0.538, 0.843, 148.235, 292.852)" fill="#060633"/>
        <rect id="Rectángulo_408401" data-name="Rectángulo 408401" width="0.355" height="2.659" transform="translate(149.678 291.93) rotate(-32.593)" fill="#060633"/>
        <rect id="Rectángulo_408402" data-name="Rectángulo 408402" width="0.354" height="4.52" transform="matrix(0.843, -0.538, 0.538, 0.843, 151.123, 291.007)" fill="#060633"/>
        <rect id="Rectángulo_408403" data-name="Rectángulo 408403" width="0.355" height="2.659" transform="matrix(0.843, -0.538, 0.538, 0.843, 152.878, 289.886)" fill="#060633"/>
        <rect id="Rectángulo_408404" data-name="Rectángulo 408404" width="0.355" height="2.659" transform="matrix(0.843, -0.538, 0.538, 0.843, 154.353, 288.944)" fill="#060633"/>
        <rect id="Rectángulo_408405" data-name="Rectángulo 408405" width="0.355" height="2.659" transform="matrix(0.843, -0.538, 0.538, 0.843, 155.754, 288.049)" fill="#060633"/>
        <rect id="Rectángulo_408406" data-name="Rectángulo 408406" width="0.355" height="2.659" transform="matrix(0.843, -0.538, 0.538, 0.843, 157.049, 287.222)" fill="#060633"/>
        <rect id="Rectángulo_408407" data-name="Rectángulo 408407" width="0.354" height="2.659" transform="matrix(0.843, -0.538, 0.538, 0.843, 158.493, 286.3)" fill="#060633"/>
        <rect id="Rectángulo_408408" data-name="Rectángulo 408408" width="0.355" height="4.52" transform="matrix(0.843, -0.538, 0.538, 0.843, 160.329, 285.127)" fill="#060633"/>
        <rect id="Rectángulo_408409" data-name="Rectángulo 408409" width="0.355" height="2.659" transform="matrix(0.843, -0.538, 0.538, 0.843, 162.084, 284.005)" fill="#060633"/>
        <rect id="Rectángulo_408410" data-name="Rectángulo 408410" width="0.354" height="2.659" transform="matrix(0.843, -0.538, 0.538, 0.843, 163.559, 283.063)" fill="#060633"/>
        <rect id="Rectángulo_408411" data-name="Rectángulo 408411" width="0.355" height="2.659" transform="translate(164.959 282.169) rotate(-32.593)" fill="#060633"/>
        <rect id="Rectángulo_408412" data-name="Rectángulo 408412" width="0.355" height="2.659" transform="matrix(0.843, -0.538, 0.538, 0.843, 166.254, 281.341)" fill="#060633"/>
        <rect id="Rectángulo_408413" data-name="Rectángulo 408413" width="0.355" height="2.659" transform="matrix(0.843, -0.538, 0.538, 0.843, 167.698, 280.419)" fill="#060633"/>
        <rect id="Rectángulo_408414" data-name="Rectángulo 408414" width="0.354" height="4.52" transform="matrix(0.843, -0.538, 0.538, 0.843, 169.143, 279.496)" fill="#060633"/>
        <rect id="Rectángulo_408415" data-name="Rectángulo 408415" width="0.355" height="2.659" transform="matrix(0.843, -0.538, 0.538, 0.843, 170.898, 278.375)" fill="#060633"/>
        <rect id="Rectángulo_408416" data-name="Rectángulo 408416" width="0.355" height="2.659" transform="matrix(0.843, -0.538, 0.538, 0.843, 172.373, 277.433)" fill="#060633"/>
        <rect id="Rectángulo_408417" data-name="Rectángulo 408417" width="0.355" height="2.659" transform="matrix(0.843, -0.538, 0.538, 0.843, 173.773, 276.538)" fill="#060633"/>
        <rect id="Rectángulo_408418" data-name="Rectángulo 408418" width="0.355" height="2.659" transform="translate(175.067 275.712) rotate(-32.593)" fill="#060633"/>
        <rect id="Rectángulo_408419" data-name="Rectángulo 408419" width="0.355" height="2.659" transform="matrix(0.843, -0.538, 0.538, 0.843, 176.512, 274.788)" fill="#060633"/>
        <rect id="Rectángulo_408420" data-name="Rectángulo 408420" width="0.354" height="4.52" transform="matrix(0.843, -0.538, 0.538, 0.843, 178.51, 273.512)" fill="#060633"/>
        <path id="Trazado_986836" data-name="Trazado 986836" d="M2171.241,1287.969s.4-19.43,19.826-21.809,56.506-.991,56.506-.991v11.2s-42.087-.379-56.109,0c-5.826.157-12.887.7-20.223,11.6" transform="translate(-1674.428 -975.368)" fill="#f78248"/>
        <path id="Trazado_986837" data-name="Trazado 986837" d="M2220.506,1306.093s-1.586,57.893-10.31,62.651-20.355-1.057-13.746-12.16,10.574-11.631,12.954-24.585a163.532,163.532,0,0,0,2.379-25.907Z" transform="translate(-1692.368 -1007.239)" fill="#f78248"/>
        <path id="Trazado_986838" data-name="Trazado 986838" d="M2369.526,1298.965s-6.08,39.653-3.966,50.491,11.9,16.39,21.677,10.574,6.873-14.275,6.873-14.275-7.973,6.344-14.3,1.586-3.151-50.491-3.151-50.491Z" transform="translate(-1823.94 -1000.112)" fill="#f78248"/>
        <path id="Trazado_986839" data-name="Trazado 986839" d="M519.879,853.433A35.25,35.25,0,1,1,544.8,843.109a35.018,35.018,0,0,1-24.925,10.324m0-69.843a34.593,34.593,0,1,0,24.461,10.132,34.37,34.37,0,0,0-24.461-10.132" transform="translate(-373.739 -603.787)" fill="#aec3ff"/>
        <path id="Trazado_986840" data-name="Trazado 986840" d="M520.367,910.761h-.424v-.366c.544,0,1.089,0,1.631-.006l0,.367q-.6.006-1.211.006m-2.061-.019c-.546-.01-1.1-.024-1.636-.041l.012-.366c.537.018,1.086.032,1.63.041Zm4.908-.017-.009-.366c.543-.013,1.092-.031,1.63-.053l.015.366c-.54.022-1.091.039-1.636.053m-8.179-.09c-.544-.026-1.094-.056-1.634-.09l.023-.366c.538.034,1.086.064,1.628.09Zm11.449-.04-.02-.366c.544-.03,1.091-.064,1.628-.1l.026.365c-.538.038-1.088.073-1.634.1m-14.716-.166c-.546-.043-1.094-.09-1.631-.142l.035-.365c.534.051,1.081.1,1.625.141Zm17.98-.065-.032-.365c.542-.047,1.088-.1,1.623-.154l.038.365c-.537.055-1.086.107-1.63.154m-21.239-.246c-.543-.061-1.09-.127-1.625-.2l.047-.363c.533.07,1.078.135,1.619.2Zm24.5-.091-.044-.364c.542-.065,1.086-.136,1.617-.21l.051.363c-.533.074-1.08.145-1.624.211m-27.742-.332c-.544-.081-1.088-.168-1.617-.258l.061-.361c.527.089,1.068.176,1.61.257Zm30.985-.12-.058-.362c.54-.086,1.081-.178,1.607-.273l.065.36c-.529.1-1.072.188-1.615.274m-34.214-.43c-.541-.1-1.081-.214-1.6-.328l.078-.358c.521.113,1.058.222,1.6.326Zm37.437-.153-.073-.359c.538-.109,1.074-.225,1.593-.344l.082.357c-.521.119-1.06.236-1.6.346m-40.639-.542c-.54-.132-1.074-.27-1.587-.41l.1-.354c.509.14,1.039.277,1.577.408Zm43.833-.192-.092-.355c.535-.138,1.063-.283,1.57-.43l.1.352c-.51.148-1.042.294-1.581.433m-46.993-.678c-.535-.166-1.06-.34-1.558-.516l.122-.346c.494.175,1.013.346,1.544.511Zm50.141-.241-.115-.348c.527-.174,1.043-.356,1.534-.54l.129.343c-.495.187-1.016.37-1.548.546m-53.235-.856c-.525-.213-1.031-.435-1.505-.66l.157-.331c.468.222.968.441,1.486.652Zm56.305-.307-.147-.336c.516-.225,1.008-.459,1.465-.695l.168.326c-.464.239-.964.477-1.486.705m-59.272-1.113a16.139,16.139,0,0,1-1.393-.887l.213-.3a15.682,15.682,0,0,0,1.361.866Zm62.191-.408-.2-.31a13.1,13.1,0,0,0,1.308-.937l.233.283a13.435,13.435,0,0,1-1.345.963m-64.859-1.539a6.758,6.758,0,0,1-1.05-1.3l.313-.19a6.37,6.37,0,0,0,.993,1.228Zm67.389-.591-.283-.233a4.973,4.973,0,0,0,.809-1.336l.341.133a5.333,5.333,0,0,1-.868,1.436m-69.03-2.287a3.677,3.677,0,0,1-.041-.546,3.9,3.9,0,0,1,.377-1.645l.332.154a3.537,3.537,0,0,0-.343,1.492,3.284,3.284,0,0,0,.037.492Zm69.793-.793a3.708,3.708,0,0,0-.447-1.471l.323-.173a4.067,4.067,0,0,1,.489,1.616ZM486.848,896.9l-.274-.243a9.374,9.374,0,0,1,1.219-1.129l.226.288a8.949,8.949,0,0,0-1.171,1.085m66.864-.19a9.7,9.7,0,0,0-1.2-1.053l.219-.293a10.041,10.041,0,0,1,1.249,1.094ZM489.346,894.9l-.191-.313c.443-.27.929-.538,1.443-.8l.164.327c-.5.254-.982.516-1.416.782m61.818-.135c-.439-.259-.919-.516-1.427-.763l.161-.329c.516.252,1,.513,1.453.777Zm-58.929-1.327-.144-.337c.483-.206,1-.41,1.527-.6l.127.344c-.524.193-1.032.395-1.51.6m56.023-.1c-.481-.2-.99-.4-1.515-.586l.125-.345c.531.192,1.046.391,1.532.593Zm-52.975-1.027-.113-.349c.506-.163,1.034-.324,1.569-.477l.1.352c-.532.152-1.056.311-1.557.473m49.919-.08c-.5-.159-1.027-.315-1.56-.464l.1-.353c.537.15,1.066.308,1.572.468Zm-46.789-.815-.09-.355c.518-.131,1.055-.259,1.594-.38l.08.358c-.536.12-1.069.248-1.584.378m43.655-.064c-.516-.128-1.049-.253-1.586-.371l.079-.358c.54.119,1.077.245,1.6.374ZM501.59,890.7l-.072-.359c.525-.1,1.066-.207,1.609-.3l.064.361c-.54.1-1.079.2-1.6.3m37.295-.051c-.523-.1-1.062-.2-1.6-.3l.062-.361c.543.094,1.085.194,1.611.3Zm-34.085-.517-.056-.362c.532-.083,1.077-.162,1.62-.236l.049.363c-.541.074-1.084.153-1.613.235m30.874-.04c-.528-.081-1.071-.158-1.614-.23l.048-.363c.545.073,1.09.151,1.621.232Zm-27.643-.4-.043-.364c.538-.063,1.085-.123,1.627-.178l.037.365c-.54.054-1.085.114-1.621.177m24.411-.03c-.535-.062-1.08-.12-1.622-.173l.036-.365c.543.053,1.091.111,1.628.173Zm-21.166-.3-.031-.365c.539-.045,1.088-.087,1.632-.124l.025.365c-.542.037-1.089.078-1.626.123m17.92-.022c-.536-.044-1.083-.084-1.626-.119l.024-.365c.546.036,1.095.076,1.632.12Zm-14.666-.2-.019-.366c.538-.028,1.088-.053,1.635-.074l.014.366c-.545.021-1.093.045-1.629.073m11.412-.013c-.538-.027-1.086-.05-1.63-.069l.013-.366c.545.019,1.1.042,1.635.069Zm-8.152-.109-.008-.366c.541-.012,1.091-.021,1.636-.026l0,.366c-.543,0-1.091.013-1.631.025m4.892-.006c-.538-.011-1.087-.018-1.631-.021l0-.366c.546,0,1.1.01,1.636.021Z" transform="translate(-374.227 -685.296)" fill="#aec3ff"/>
        <path id="Trazado_986841" data-name="Trazado 986841" d="M598.413,853.759a4.48,4.48,0,0,1-1.705-.387l.152-.348a4.112,4.112,0,0,0,1.561.355Zm1.722-.319-.14-.354a5.642,5.642,0,0,0,1.4-.828l.236.3a6.036,6.036,0,0,1-1.5.883m-4.9-.992a9.687,9.687,0,0,1-1.218-1.222l.291-.245a9.328,9.328,0,0,0,1.17,1.174Zm7.638-1.09-.287-.25a13.435,13.435,0,0,0,1.009-1.331l.316.212a13.806,13.806,0,0,1-1.038,1.368M593,849.845c-.3-.452-.589-.948-.872-1.473l.335-.18c.277.515.565,1,.855,1.444Zm11.8-1.322-.333-.183c.257-.469.511-.975.755-1.5l.345.159c-.248.537-.506,1.05-.767,1.527m-13.428-1.682c-.227-.5-.45-1.027-.664-1.571l.354-.139c.212.538.432,1.061.656,1.553Zm14.867-1.412-.353-.141c.2-.5.4-1.037.589-1.581l.359.125c-.191.549-.391,1.087-.594,1.6m-16.119-1.759c-.179-.521-.355-1.067-.522-1.621l.364-.11c.166.55.341,1.091.518,1.608Zm17.242-1.458L607,842.1c.161-.525.318-1.072.467-1.624l.367.1c-.15.556-.309,1.107-.471,1.636m-18.229-1.8c-.143-.536-.283-1.091-.415-1.651l.37-.088c.131.556.27,1.108.412,1.64Zm19.12-1.484-.37-.089c.128-.537.253-1.092.371-1.65l.372.078c-.119.561-.244,1.119-.374,1.66m-19.9-1.827c-.114-.546-.224-1.107-.327-1.669l.374-.069c.1.558.212,1.117.326,1.66Zm20.609-1.5-.374-.07c.1-.545.2-1.106.291-1.667l.375.061c-.092.564-.19,1.127-.293,1.675m-21.225-1.844c-.089-.552-.174-1.118-.253-1.681l.377-.052c.079.561.163,1.124.251,1.673Zm21.774-1.512-.377-.054c.078-.55.152-1.115.221-1.678l.378.046c-.069.565-.143,1.132-.222,1.685m-22.245-1.855c-.067-.555-.129-1.123-.186-1.69l.378-.038c.057.564.119,1.13.185,1.683Zm22.655-1.519-.378-.039c.057-.555.11-1.122.157-1.685l.379.032c-.048.565-.1,1.135-.158,1.693m-23-1.863c-.046-.558-.088-1.128-.124-1.695l.379-.025c.037.565.078,1.133.124,1.688Zm23.281-1.524-.379-.026c.037-.557.07-1.126.1-1.69l.38.019c-.028.566-.061,1.137-.1,1.7m-23.5-1.867c-.027-.56-.049-1.132-.067-1.7l.38-.012c.017.565.04,1.133.067,1.692Zm23.67-1.527-.38-.013c.018-.559.032-1.129.042-1.692l.38.006c-.009.566-.023,1.138-.042,1.7m-23.776-1.869c-.008-.521-.012-1.049-.012-1.57v-.128h.38v.127c0,.519,0,1.045.012,1.564Zm23.831-1.529h-.38v-.042c0-.552,0-1.108-.013-1.651l.38-.006c.008.545.013,1.1.013,1.657Zm-23.447-1.862-.38-.007c.01-.563.024-1.135.043-1.7l.38.013c-.019.562-.033,1.131-.043,1.693m23.014-1.523c-.018-.561-.041-1.13-.068-1.691l.38-.019c.027.563.05,1.134.068,1.7Zm-22.9-1.861-.38-.019c.028-.564.062-1.135.1-1.7l.379.026c-.038.56-.071,1.128-.1,1.69m22.735-1.521c-.037-.563-.079-1.131-.126-1.688l.379-.032c.047.559.089,1.129.126,1.695Zm-22.507-1.857-.379-.032c.048-.565.1-1.135.159-1.692l.378.038c-.057.556-.111,1.123-.159,1.685m22.226-1.516c-.057-.562-.12-1.128-.187-1.682l.378-.046c.067.557.13,1.125.187,1.689ZM587.667,806.7l-.377-.046c.069-.564.144-1.131.223-1.686l.377.054c-.079.552-.154,1.116-.223,1.678m21.472-1.509c-.079-.562-.165-1.125-.253-1.673l.375-.061c.089.551.175,1.116.255,1.681Zm-20.992-1.841-.375-.061c.092-.563.192-1.127.294-1.675l.374.07c-.1.545-.2,1.106-.293,1.666m20.45-1.5c-.1-.559-.214-1.117-.328-1.659l.372-.078c.114.545.225,1.106.329,1.669Zm-19.825-1.826-.372-.079c.119-.562.246-1.12.376-1.659l.37.089c-.129.536-.255,1.091-.374,1.649m19.128-1.484c-.132-.555-.271-1.107-.415-1.639l.367-.1c.144.536.284,1.091.417,1.65Zm-18.335-1.8-.367-.1c.152-.558.311-1.108.473-1.635l.363.112c-.161.523-.319,1.069-.47,1.623m17.456-1.461c-.167-.549-.342-1.09-.521-1.606l.359-.125c.18.522.357,1.067.525,1.62Zm-16.459-1.767-.359-.125c.192-.55.394-1.087.6-1.6l.353.142c-.2.5-.4,1.036-.592,1.58m15.353-1.423c-.213-.538-.435-1.06-.66-1.551l.346-.158c.228.5.453,1.025.668,1.569Zm-14.092-1.7-.345-.16c.249-.535.509-1.048.772-1.524l.333.184c-.259.468-.515.974-.76,1.5m12.682-1.353c-.279-.515-.569-1-.861-1.441l.317-.21c.3.451.594.945.878,1.469Zm-11.048-1.58-.315-.214a13.643,13.643,0,0,1,1.047-1.362l.285.251a13.2,13.2,0,0,0-1.017,1.324m9.186-1.2a9.069,9.069,0,0,0-1.18-1.162l.239-.3A9.48,9.48,0,0,1,602.93,786Zm-6.969-1.264-.232-.3a5.9,5.9,0,0,1,1.512-.861l.134.356a5.516,5.516,0,0,0-1.414.806m4.4-.746a4.065,4.065,0,0,0-1.567-.324v-.38a4.442,4.442,0,0,1,1.713.353Z" transform="translate(-452.362 -604.251)" fill="#aec3ff"/>
        <path id="Trazado_986842" data-name="Trazado 986842" d="M555.906,936.688h-.149v-.252h.149Zm-1.273,0h-1.124v-.252h1.124Zm-2.248,0h-1.124v-.252h1.124Zm-2.248,0h-1.124v-.252h1.124Zm-2.248,0h-1.124v-.252h1.124Zm-2.248,0h-1.124v-.252h1.124Zm-2.248,0h-1.124v-.252h1.124Zm-2.248,0H540.02v-.252h1.124Zm-2.248,0h-1.124v-.252H538.9Zm-2.248,0h-1.124v-.252h1.124Zm-2.248,0h-1.124v-.252H534.4Zm-2.248,0h-1.124v-.252h1.124Zm-2.248,0h-1.124v-.252H529.9Zm-2.248,0h-1.124v-.252h1.124Zm-2.248,0h-1.124v-.252h1.124Zm-2.248,0h-1.124v-.252h1.124Zm-2.248,0h-1.124v-.252h1.124Zm-2.248,0h-1.124v-.252h1.124Zm-2.248,0H515.29v-.252h1.124Zm-2.248,0h-1.124v-.252h1.124Zm-2.248,0h-1.124v-.252h1.124Zm-2.248,0h-1.124v-.252h1.124Zm-2.248,0H506.3v-.252h1.124Zm-2.248,0h-1.124v-.252h1.124Zm-2.248,0H501.8v-.252h1.124Zm-2.248,0h-1.124v-.252h1.124Zm-2.248,0H497.3v-.252h1.124Zm-2.248,0h-1.124v-.252h1.124Zm-2.248,0h-1.124v-.252h1.124Zm-2.248,0h-1.124v-.252h1.124Zm-2.248,0h-1.124v-.252h1.124Zm-2.248,0h-1.124v-.252h1.124Z" transform="translate(-374.844 -722.165)" fill="#aec3ff"/>
        <path id="Trazado_986843" data-name="Trazado 986843" d="M638.383,854.211h-.252v-.149h.252Zm0-1.273h-.252v-1.124h.252Zm0-2.248h-.252v-1.124h.252Zm0-2.248h-.252v-1.124h.252Zm0-2.248h-.252v-1.124h.252Zm0-2.248h-.252v-1.124h.252Zm0-2.248h-.252v-1.124h.252Zm0-2.248h-.252v-1.124h.252Zm0-2.248h-.252v-1.124h.252Zm0-2.248h-.252v-1.124h.252Zm0-2.248h-.252V831.58h.252Zm0-2.248h-.252v-1.124h.252Zm0-2.248h-.252v-1.124h.252Zm0-2.248h-.252v-1.124h.252Zm0-2.248h-.252v-1.124h.252Zm0-2.248h-.252v-1.124h.252Zm0-2.248h-.252V818.09h.252Zm0-2.248h-.252v-1.124h.252Zm0-2.249h-.252v-1.124h.252Zm0-2.248h-.252v-1.124h.252Zm0-2.248h-.252V809.1h.252Zm0-2.248h-.252v-1.124h.252Zm0-2.248h-.252V804.6h.252Zm0-2.248h-.252v-1.124h.252Zm0-2.248h-.252V800.1h.252Zm0-2.248h-.252v-1.124h.252Zm0-2.248h-.252v-1.124h.252Zm0-2.248h-.252V793.36h.252Zm0-2.248h-.252v-1.124h.252Zm0-2.248h-.252v-1.124h.252Zm0-2.248h-.252v-1.124h.252Zm0-2.248h-.252v-1.124h.252Z" transform="translate(-492.117 -604.892)" fill="#aec3ff"/>
        <g id="Grupo_1151149" data-name="Grupo 1151149" transform="translate(485.738 136.915)" opacity="0.5">
          <g id="Grupo_1151148" data-name="Grupo 1151148">
            <g id="Grupo_1151147" data-name="Grupo 1151147" clip-path="url(#clip-path-9)">
              <path id="Trazado_986844" data-name="Trazado 986844" d="M2154.011,648.421l-31.17-8.784.521-10.577,46.428-30.695,11.848,3.339-11.019,39.1,8.567,2.414-3.21,11.393-8.567-2.414-3.879,13.763-13.4-3.776Zm3.211-11.393,5.6-19.869L2140.27,632.25Z" transform="translate(-2122.841 -598.365)" fill="#aec3ff"/>
            </g>
          </g>
        </g>
        <path id="Trazado_986845" data-name="Trazado 986845" d="M878.873,296.157l4.1-14.065c6.862,2.29,12.818,2.769,18.561.247,6.669-2.929,9.414-8,6.811-13.93-2.441-5.558-8.589-6.726-15.351-3.756a30.413,30.413,0,0,0-9.78,7.168l-10.644-1.845L860.387,237.2l39.832-17.492,5.492,12.505-27.6,12.122,4.181,11.534a34.642,34.642,0,0,1,8.034-4.854c12.6-5.532,25.38-3.853,31.888,10.968,6.02,13.71.118,26.689-14.8,33.238a36.418,36.418,0,0,1-28.541.932" transform="translate(-663.518 -169.438)" fill="#f99746"/>
        <path id="Trazado_986846" data-name="Trazado 986846" d="M1896.833,738.177c.017-.462.375-5.447,7.967-5.708,0,0-3.734.445-4.379,2.087,0,0,2.542-2.028,4.612-1.376s3.286,4.279,3.3,5.473-1.138,5.039-2.452,5.366a4.015,4.015,0,0,1-1.591,0,17.95,17.95,0,0,1,1.02,1.82c3.03,6.219-.095,12.3-2.659,11.625-1.645-.431-2.11,2.376-2.11,2.376l-15.981-12.938s5.87-12.146,12.275-8.728" transform="translate(-1453.343 -564.87)" fill="#2c3a64"/>
        <path id="Trazado_986847" data-name="Trazado 986847" d="M1789.087,952.883c4.676-.462,10.224-1.284,12.434-2.646,3.365-2.055,9.192-10.685,12.788-16.979.1-.154.336-3.342.413-3.5,1.875-3.34,2.726-1.284,2.829-3.93a13.286,13.286,0,0,0-.437-4.213,10.741,10.741,0,0,0-1.9-3.8,1.921,1.921,0,0,0-.359-.437,8.869,8.869,0,0,0-2.441-2.081c-.617-.257-1.285.051-1.978.8v.026a11.78,11.78,0,0,0-1.773,2.62c-.026.026-.052.051-.052.077-.128.231-.257.488-.411.77a.648.648,0,0,0-.1.18q-.424.886-.848,1.85c-3.16,6.884-5.538,18.268-8.338,21.377-1.207,1.336-7.717,3-12.11,4.954-3.16,1.387-.822,5.266,2.286,4.932" transform="translate(-1376.796 -705.797)" fill="#ffb27d"/>
        <path id="Trazado_986848" data-name="Trazado 986848" d="M1913.886,1202.625l3.394,1.264s14.744-20.449,16.559-38.441a27.317,27.317,0,0,0-.485-9.2s.144-.823.4-2.278c.116-.679.26-1.5.424-2.433.48-2.746,1.139-6.5,1.893-10.783,1.735-9.847,3.982-22.434,5.728-31.687l-.915-.294-9.9-3.192-2.045-6.5-7.369-1.94s-1.646,3.22-3.118,18.432c-.272,2-.518,4.2-.7,6.582a130.234,130.234,0,0,0,.7,26.647q.507,3.966,1.294,8.178a36.48,36.48,0,0,1,.283,8.076c-.743,14.708-6.141,37.565-6.141,37.565" transform="translate(-1475.96 -846.102)" fill="#aec3ff"/>
        <path id="Trazado_986849" data-name="Trazado 986849" d="M1930.77,1119.754l16,31.812c.117-.679.26-1.5.424-2.433.48-2.746,1.139-6.5,1.893-10.783,1.735-9.847,3.982-22.434,5.728-31.688l-.915-.294-9.9-3.192-2.045-6.5-10.08-2.654s-1.111,19.66-1.111,25.728" transform="translate(-1488.981 -843.696)" fill="#94b0ed"/>
        <path id="Trazado_986850" data-name="Trazado 986850" d="M1961.536,1088.756l.37-3.177c6.206,1.649,22.788-4.606,22.788-4.606s6.012,5.285,5.223,17.953c-.385,6.183-1.089,32.458-1.824,40.233-.266,2.818-.5,4.823-.593,5.624a.014.014,0,0,0,0,.008,1.109,1.109,0,0,0,.181.688,36.546,36.546,0,0,1,2.713,5.706c7.214,19.225-1.111,42.9-1.111,42.9l-2.16-.871s-4.738-26.349-8.588-37.989a23.03,23.03,0,0,0-1.854-4.453c-1.674-2.7-3.227-7.116-4.637-12.366-2.665-9.926-4.81-22.838-6.237-32.8-.2.009-4.267-16.848-4.267-16.848" transform="translate(-1512.707 -833.63)" fill="#aec3ff"/>
        <path id="Trazado_986851" data-name="Trazado 986851" d="M1909.719,868.743a19.321,19.321,0,0,0,7.147,1.674c10.67.585,13.092-8.768,13.533-14.976a8.95,8.95,0,0,0-3.661-.463c-.289.016-.583.037-.872.062a3.145,3.145,0,0,1-2.746-1.2,22.357,22.357,0,0,1-3.585-8.2l-.46.214-7.7,3.619s.818,2.505,1.422,4.9a25.209,25.209,0,0,1,.577,2.842,1.692,1.692,0,0,1-1.02,1.755h0a.02.02,0,0,1,0,.008,52.835,52.835,0,0,0-2.633,9.758" transform="translate(-1472.747 -652.148)" fill="#ffb27d"/>
        <path id="Trazado_986852" data-name="Trazado 986852" d="M1916.961,850.2s.819,2.5,1.422,4.9c4.5-1.255,5.867-5.986,6.278-8.522Z" transform="translate(-1478.332 -652.873)" fill="#ed985f"/>
        <path id="Trazado_986853" data-name="Trazado 986853" d="M1889.748,807.989s10.766-2.492,9.111-9.173-1.38-11.5-8.323-10.193-7.643,4.187-7.633,6.552,4,13.291,6.845,12.815" transform="translate(-1452.066 -608.008)" fill="#ffb27d"/>
        <path id="Trazado_986854" data-name="Trazado 986854" d="M1878.642,787.277c1.158-2.422,2.52-2.292,3.372-1.863a7.723,7.723,0,0,1,10.021-.857,13.147,13.147,0,0,0,6.049,6.5s-1.654,1.694-6.448,1.656a7.888,7.888,0,0,1-4.276-1.61,25.773,25.773,0,0,0,5.614,4.187c-6-1.148-10.025-8.1-10.437-8.833a8.655,8.655,0,0,0-1.563,3.7c-.111,1.834.52,5.4-.531,5.53,0,0-3.537-4.776-1.8-8.407" transform="translate(-1448.411 -603.904)" fill="#2c3a64"/>
        <path id="Trazado_986855" data-name="Trazado 986855" d="M1918.545,918.075a9.62,9.62,0,0,1-1.009-1.358,9.467,9.467,0,0,1-1.364-3.98,137.6,137.6,0,0,1-.416-14.025h0c-.588-.435-1.156-.837-1.685-1.219a15.039,15.039,0,0,1-2.051-1.7,3.1,3.1,0,0,1-.984-1.937,10.344,10.344,0,0,1,.042-1.624c.025-.258.058-.515.1-.773a22.022,22.022,0,0,1,1.547-5.163c-2.863-1.159-9.443-.416-9.443-.416s-.665,5.419-3.16,7.637c-1.009.9-6.562,4.036-9.088.832-1.028-1.3-.128-4.678-.055-4.944a19.848,19.848,0,0,0-6.792,3.718c-1.634,1.575-2.566,4.533-2.953,5.7a6.108,6.108,0,0,1,3.422,1,13.614,13.614,0,0,0,.427,6.773c.08.213.169.421.266.635,2.7,5.82,7.7,29.928,7.7,29.928,1.536,4.661,32.574-.851,32.66-4.8,1.172-4.185-4.16-10.908-7.167-14.281" transform="translate(-1450.777 -682.994)" fill="#f99746"/>
        <path id="Trazado_986856" data-name="Trazado 986856" d="M1962.1,963.253c6.565-.069,12.125-6.887,15.522-12.335a9.464,9.464,0,0,1-1.364-3.98,137.561,137.561,0,0,1-.416-14.025h0c-.588-.435-1.156-.837-1.685-1.219a15.068,15.068,0,0,1-2.051-1.7c-5.376,9.087-18.909,33.356-10.007,33.262" transform="translate(-1510.86 -717.195)" fill="#ed7d2b"/>
        <path id="Trazado_986857" data-name="Trazado 986857" d="M2027.89,1550.554h17.1a9.385,9.385,0,0,0-.484-4.583c-.856-1.9-2.2-2.759-1.875-5.054a6.157,6.157,0,0,1-5.329,2.039,18.761,18.761,0,0,1-2.967,3.845c-1.117.8-6.1.516-6.443,3.753" transform="translate(-1563.879 -1188.332)" fill="#304b77"/>
        <path id="Trazado_986858" data-name="Trazado 986858" d="M1867.459,1553.138h17.1s.639-2.727-.484-4.583c-.994-1.642-.613-2.577.123-3.936a6.642,6.642,0,0,1-2.88.542,6.02,6.02,0,0,1-2.543-.894,61.478,61.478,0,0,1-4.871,5.118c-1.117.8-6.1.516-6.443,3.753" transform="translate(-1440.156 -1190.916)" fill="#304b77"/>
        <path id="Trazado_986859" data-name="Trazado 986859" d="M1109.043,834.461l27.71-31.354c13.47,13.741,25.367,20.781,42.595,22.827,25.112,2.983,40.8-14.4,46.979-41.5-10.934,7.289-25.317,11.206-43.129,9.09-44.384-5.272-70.086-33.2-65.091-75.248C1123,677.1,1158.433,650.515,1204.569,656c27.448,3.261,42.71,11.884,56.347,29.2,12.866,16.335,19.866,39.671,15.009,80.551-7.874,66.284-44.494,107.832-102.6,100.93-29.784-3.538-48.752-15.86-64.281-32.214m124.612-104.237c2.15-18.1-9.721-32.84-32.2-35.51-22.192-2.636-36.275,8.72-38.495,27.408-2.151,18.1,9.79,32.255,31.982,34.892s36.566-8.685,38.717-26.789" transform="translate(-855.277 -505.343)" fill="#aec3ff"/>
        <path id="Trazado_986860" data-name="Trazado 986860" d="M1857.527,935.5l.688,2.653s8.538-1.79,10.413-2.2h.026c3.211-.771,6.807-1.7,9.839-2.723a27.037,27.037,0,0,0,5.24-2.337,3.128,3.128,0,0,0,.36-.257c3.005-2.183,6.576-8.605,9.35-15.49.386-.95.745-1.9,1.1-2.826a70.256,70.256,0,0,0,2.928-9.762,27.6,27.6,0,0,0,.694-4.65,11.356,11.356,0,0,0,.026-1.31c-.051-7.45-3.75-8.477-3.75-8.477-.077-.026-.154-.052-.257-.077-.642-.1-1.31.334-2,1.182a23.343,23.343,0,0,0-2.749,4.855c-1.464,3.314-3.005,7.6-4.444,11.869-.8,2.338-1.567,4.675-2.337,6.833-.437,1.31-.874,2.543-1.285,3.674a35.409,35.409,0,0,1-2.158,5.009,12.44,12.44,0,0,1-3.16,2.851c-2.723,1.978-18.525,11.186-18.525,11.186" transform="translate(-1432.497 -684.837)" fill="#ffb27d"/>
        <path id="Trazado_986861" data-name="Trazado 986861" d="M1993.657,894.442c4.945-1.363,9.53,2.218,9.53,2.218-.062-7.438-3.765-8.456-3.765-8.456-1.489-.617-3.985,2.242-5.765,6.237" transform="translate(-1537.479 -684.905)" fill="#f99746"/>
        <path id="Trazado_986862" data-name="Trazado 986862" d="M1837.98,1091.289a42.1,42.1,0,0,0-5.189,2.354,10.777,10.777,0,0,0-2.749,3.951s.015.466.448.465,1.407-1.665,2.12-1.4a14.589,14.589,0,0,1-1.439,2.763c-.533.558-.837,3.366-.728,3.975s3.769-2.3,5.3-3.617c.817-.7.793-2.411,1.046-4.338.222-1.691,4.891-2.67,4.891-2.67Z" transform="translate(-1411.302 -841.585)" fill="#ffb27d"/>
        <path id="Trazado_986863" data-name="Trazado 986863" d="M829.63,1416.368H763.763v-25.026H829.85a9.672,9.672,0,0,1,9.672,9.672v5.463a9.891,9.891,0,0,1-9.891,9.891" transform="translate(-589.003 -1072.982)" fill="#fcecdb"/>
        <path id="Trazado_986864" data-name="Trazado 986864" d="M884.178,1401.637v3.765a11.488,11.488,0,0,1-1.389,5.515,10.137,10.137,0,0,1-8.855,5.449H749.888a1.54,1.54,0,0,1-1.486-1.589v-.564a1.54,1.54,0,0,1,1.486-1.589h75.617a10.36,10.36,0,0,0,1.061-1.707,10.746,10.746,0,0,0,1.109-4.785v-4.786a10.635,10.635,0,0,0-.306-2.546,10.272,10.272,0,0,0-1.754-3.716H749.888a1.541,1.541,0,0,1-1.486-1.59v-.562a1.541,1.541,0,0,1,1.486-1.59h124.67a9.743,9.743,0,0,1,9.248,7.459,10.935,10.935,0,0,1,.371,2.837" transform="translate(-577.156 -1072.981)" fill="#699dee"/>
        <path id="Trazado_986865" data-name="Trazado 986865" d="M883.806,1398.8H827.368a10.268,10.268,0,0,0-1.753-3.716H749.887a1.541,1.541,0,0,1-1.486-1.59v-.562a1.541,1.541,0,0,1,1.486-1.591h124.67a9.743,9.743,0,0,1,9.249,7.459" transform="translate(-577.156 -1072.98)" fill="#548ee2"/>
        <path id="Trazado_986866" data-name="Trazado 986866" d="M763.762,1446.027l9.185.421-9.185.253Z" transform="translate(-589.002 -1115.154)" fill="#f4d2b8"/>
        <path id="Trazado_986867" data-name="Trazado 986867" d="M763.762,1463.187l21.851.421-21.851.253Z" transform="translate(-589.002 -1128.388)" fill="#f4d2b8"/>
        <path id="Trazado_986868" data-name="Trazado 986868" d="M829,1519.947h64.659v-19.465H828.435a8.772,8.772,0,0,0-8.771,8.772v1.353a9.341,9.341,0,0,0,9.341,9.341" transform="translate(-632.113 -1157.149)" fill="#505aba"/>
        <path id="Trazado_986869" data-name="Trazado 986869" d="M1098.716,1519.947h73.693v-19.465h-73.895a8.918,8.918,0,0,0-8.919,8.918v1.427a9.121,9.121,0,0,0,9.121,9.12" transform="translate(-840.279 -1157.149)" fill="#fcecdb"/>
        <path id="Trazado_986870" data-name="Trazado 986870" d="M1063.752,1575.74h90.169a1.354,1.354,0,0,0,1.355-1.355v-.2a1.355,1.355,0,0,0-1.355-1.354h-90.169a1.355,1.355,0,0,0-1.355,1.354v.2a1.355,1.355,0,0,0,1.355,1.355" transform="translate(-819.305 -1212.942)" fill="#505aba"/>
        <path id="Trazado_986871" data-name="Trazado 986871" d="M1063.752,1503.393h90.169a1.354,1.354,0,0,0,1.355-1.355v-.2a1.355,1.355,0,0,0-1.355-1.354h-90.169a1.355,1.355,0,0,0-1.355,1.354v.2a1.355,1.355,0,0,0,1.355,1.355" transform="translate(-819.305 -1157.149)" fill="#505aba"/>
        <path id="Trazado_986872" data-name="Trazado 986872" d="M1417.679,1543.017l-10.04.327,10.04.2Z" transform="translate(-1085.55 -1189.952)" fill="#f4d2b8"/>
        <path id="Trazado_986873" data-name="Trazado 986873" d="M1371.013,1523.44l-23.886.327,23.886.2Z" transform="translate(-1038.884 -1174.854)" fill="#f4d2b8"/>
        <path id="Trazado_986874" data-name="Trazado 986874" d="M1348.2,1524.585a4.52,4.52,0,0,1,1.363,2.211,3.639,3.639,0,0,1,.106.769c.057,1.827,0,5.96,0,5.96l3.022-2.067,3.014,2.067v-5.6a4.932,4.932,0,0,0-.739-2.765,1.126,1.126,0,0,0-.835-.573Z" transform="translate(-1039.713 -1175.737)" fill="#f99746"/>
        <path id="Trazado_986875" data-name="Trazado 986875" d="M1348.2,1524.585a4.52,4.52,0,0,1,1.363,2.211l6.056.082s-.238-1.968-1.488-2.293Z" transform="translate(-1039.713 -1175.737)" fill="#ed7d2b"/>
        <path id="Trazado_986876" data-name="Trazado 986876" d="M863.371,1295.182H793.818v-28.6h69.795a10.655,10.655,0,0,1,10.655,10.655v7.048a10.9,10.9,0,0,1-10.9,10.9" transform="translate(-612.181 -976.77)" fill="#fcecdb"/>
        <path id="Trazado_986877" data-name="Trazado 986877" d="M861.73,1277.682v6.155a7.253,7.253,0,0,1-3.284,6.129,6.086,6.086,0,0,1-3.238.94H779.123a1.7,1.7,0,0,0-1.614,1.776v.726a1.7,1.7,0,0,0,1.614,1.776H910.56a10.86,10.86,0,0,0,9.117-5.219,13.037,13.037,0,0,0,2.015-7.026v-4.857a12.4,12.4,0,0,0-1.038-5,10.421,10.421,0,0,0-9.414-6.5H779.123a1.7,1.7,0,0,0-1.614,1.774v.726a1.7,1.7,0,0,0,1.614,1.776h76.317a6.057,6.057,0,0,1,4.628,2.22,7.185,7.185,0,0,1,1.662,4.6" transform="translate(-599.603 -976.772)" fill="#f99746"/>
        <path id="Trazado_986878" data-name="Trazado 986878" d="M777.508,1371.481v.726a1.7,1.7,0,0,0,1.615,1.776H910.559a10.859,10.859,0,0,0,9.117-5.219H858.445a6.085,6.085,0,0,1-3.238.94H779.122a1.7,1.7,0,0,0-1.615,1.776" transform="translate(-599.603 -1055.571)" fill="#ed7d2b"/>
        <path id="Trazado_986879" data-name="Trazado 986879" d="M793.818,1329.077l9.753.481-9.753.289Z" transform="translate(-612.181 -1024.964)" fill="#f4d2b8"/>
        <path id="Trazado_986880" data-name="Trazado 986880" d="M793.818,1300.312l23.2.481-23.2.29Z" transform="translate(-612.181 -1002.781)" fill="#f4d2b8"/>
        <path id="Trazado_986881" data-name="Trazado 986881" d="M1054.731,1302a5.144,5.144,0,0,0-2.038,2.4,2.913,2.913,0,0,0-.159.834c-.085,1.981,0,6.463,0,6.463l-4.522-2.241-4.51,2.241v-6.075a4.308,4.308,0,0,1,1.105-3,1.8,1.8,0,0,1,1.249-.621Z" transform="translate(-804.734 -1004.079)" fill="#f99746"/>
        <path id="Trazado_986882" data-name="Trazado 986882" d="M1055.166,1302a5.144,5.144,0,0,0-2.038,2.4l-9.061.089a3.1,3.1,0,0,1,2.225-2.486Z" transform="translate(-805.169 -1004.079)" fill="#ed7d2b"/>
        <path id="Trazado_986883" data-name="Trazado 986883" d="M1453.988,790.839a1.565,1.565,0,0,1,.279,1.674.015.015,0,0,1,0,.008c-.4,1.116-1.738,2.362-3.288,3.607-.2.16-.374.305-.528.44-.04.035-.08.071-.118.106l-.091.082c-1.445,1.332-.9,1.637-3.5,4.341-2.96,3.08-5,3.136-5.579,2.855-.49-.239.506-1.873,1.61-3.709.054-.088.106-.178.161-.268.147-.244.293-.492.439-.737,1.294-2.21.962-3.247.655-6.536-.249-2.673-4.158-14.931-4.158-14.931l5.673-.977s1.709,9.761,3.591,11.264c1.007.8,2.133.811,3.1,1.405.068.041.135.084.2.127a7.461,7.461,0,0,1,1.552,1.247" transform="translate(-1110.405 -599.052)" fill="#ffb27d"/>
        <path id="Trazado_986884" data-name="Trazado 986884" d="M1457.909,833.54a1.566,1.566,0,0,1,.279,1.674.015.015,0,0,1,0,.008,12.047,12.047,0,0,1-3.293,3.6c-.2.163-.369.312-.522.451-.04.035-.08.071-.118.106l-.091.082c-1.445,1.332-.9,1.637-3.5,4.341-2.96,3.08-5,3.136-5.579,2.855-.49-.239.506-1.873,1.61-3.709a12.613,12.613,0,0,0,5.278-3.889c1.782-2.275,2.971-5.2,4.185-6.891.068.041.135.083.2.127a7.461,7.461,0,0,1,1.552,1.247" transform="translate(-1114.327 -641.753)" fill="#233862"/>
        <path id="Trazado_986885" data-name="Trazado 986885" d="M1244.254,781.476c-.35,1.751-2.846,1.459-5.635.777s-2.126.129-6.1-.311-5.172-1.919-5.293-2.509c-.108-.524,1.853-.708,3.957-.951.264-.03.53-.062.8-.1,2.375-.3,4.114-1.831,6.272-3.089,2.043-1.192,5.093-6.05,5.093-6.05l5.444.431s-2.857,4.339-3.962,6.225a6.579,6.579,0,0,0-.534,3.71,6.989,6.989,0,0,1-.042,1.862" transform="translate(-946.419 -593.232)" fill="#ffb27d"/>
        <path id="Trazado_986886" data-name="Trazado 986886" d="M1238.618,813.377c-2.789-.682-2.126.129-6.1-.311s-5.172-1.92-5.293-2.509c-.108-.524,1.853-.709,3.957-.951l.02.04a11.19,11.19,0,0,0,5.684,1.767c2.693.065,5.545-.706,7.4-.676a7,7,0,0,1-.042,1.862c-.35,1.751-2.847,1.459-5.635.778" transform="translate(-946.418 -624.356)" fill="#233862"/>
        <path id="Trazado_986887" data-name="Trazado 986887" d="M1392.811,641.161l5.089,13.693,6.643,17.879a10.762,10.762,0,0,0,3.529-.322,15.3,15.3,0,0,0,3.413-1.661s-1.845-19.2-5.286-30.217a19.628,19.628,0,0,0-2.961-6.4c-5.335-6.3-10.428,7.033-10.428,7.033" transform="translate(-1074.115 -487.724)" fill="#ed7d2b"/>
        <path id="Trazado_986888" data-name="Trazado 986888" d="M1314.005,566.316c2.983-.962,10.91.042,19.389,1.6a4.441,4.441,0,0,0,4.6-2.063l.4-.664,20.631-1.611s6.614,15.024,3.081,24.716c-.991,2.717-11.341,3.046-20.059,2.344-10.227-.824-21.713-7.053-23.2-7.349-2.425-.485-3.4,4.365-5.82,9.458s-22.8,22.554-22.8,22.554a17.926,17.926,0,0,1-4.424-.454,4.358,4.358,0,0,1-1.9-1.2s22.573-44.91,30.091-47.336" transform="translate(-990.135 -434.625)" fill="#f99746"/>
        <path id="Trazado_986889" data-name="Trazado 986889" d="M1496.465,332.01c6.221,5.624,20.524,10.887,20.612,10.852,0,0,4.857,3.267,8.356,1.972,5.831-2.158,10.661-10.531,3.271-20.46-3.686-4.952-6.866-6.687-5.769-12.957,1.188-6.793-1.45-15.55-9.3-16.323-.656-.065-4.613-.805-7.5-.062-7.367,1.9-20.026,32.925-9.667,36.978" transform="translate(-1151.033 -227.271)" fill="#a9453d"/>
        <path id="Trazado_986890" data-name="Trazado 986890" d="M1546.834,389.166c-.036.013,3.227,2.062,5.849,1.571,2.466-.46,4.79-3.669,4.757-3.679-1-.287-1.677-1.5-1.16-7.532l-.469.053-7.89.9s-.024,2.458-.207,4.76c-.153,1.933-.421,3.756-.88,3.926" transform="translate(-1192.895 -292.685)" fill="#ffb27d"/>
        <path id="Trazado_986891" data-name="Trazado 986891" d="M1550.889,380.659s-.024,2.458-.207,4.76c4.355.234,6.975-3.541,8.1-5.66Z" transform="translate(-1195.863 -292.863)" fill="#ed975d"/>
        <path id="Trazado_986892" data-name="Trazado 986892" d="M1535.855,335.084s10.264,1.012,10.8-5.39,2.215-10.583-4.316-11.5-8.009,1.42-8.707,3.514-.43,12.948,2.226,13.376" transform="translate(-1182.458 -245.229)" fill="#ffb27d"/>
        <path id="Trazado_986893" data-name="Trazado 986893" d="M1549.272,311.052s1.293,7.821,7.139,9.677c4.265,1.354,6.2.461,6.2.461a17.38,17.38,0,0,1-2.783-6.507,3.129,3.129,0,0,0-2.087-2.388c-3.031-1-6.7-3.723-8.465-1.243" transform="translate(-1194.775 -239.096)" fill="#a9453d"/>
        <path id="Trazado_986894" data-name="Trazado 986894" d="M1537.212,315.717a6.791,6.791,0,0,0-3.648,2.927,13.1,13.1,0,0,0-1.837,6.325s-1.8-7.238.823-9.931c2.778-2.855,4.662.679,4.662.679" transform="translate(-1180.781 -242.093)" fill="#a9453d"/>
        <path id="Trazado_986895" data-name="Trazado 986895" d="M1538.278,433.873c-.183.777-.34,1.493-.467,2.152-.209,1.065-.353,1.983-.454,2.793-.314,2.525-.219,4.021-.431,5.657a14.1,14.1,0,0,1-.768,3.08c-.425,1.173-11.579,2.218-17.925,1.8a11.464,11.464,0,0,1-4.1-.885c-1.922-1-2.476.266-2.348-18.334.069-10.094,8.564-19.082,8.564-19.082s.7,4.312,9.339-.82c.307-.179,3.71,4.86,6.986,11.066,3.609,6.856,2.62,8.306,1.6,12.575" transform="translate(-1165.855 -316.36)" fill="#aec3ff"/>
        <path id="Trazado_986896" data-name="Trazado 986896" d="M1415.05,682.144l6.644,17.879a10.761,10.761,0,0,0,3.529-.322,15.3,15.3,0,0,0,3.413-1.662s-1.845-19.2-5.286-30.217Z" transform="translate(-1091.265 -515.014)" fill="#f99746"/>
        <path id="Trazado_986897" data-name="Trazado 986897" d="M1488.171,413.823s-7.3.624-9.74,7.662c-1.3,3.75-8.39,22.831-8.39,22.831s5.684.777,7.772-1.311,7.107-18.161,7.107-18.161Z" transform="translate(-1133.674 -319.134)" fill="#aec3ff"/>
        <path id="Trazado_986898" data-name="Trazado 986898" d="M1360.116,522.643l-2.107-.835a5.029,5.029,0,0,0-1.951-.066c-.685.215-2.4.193-2.4.473s1.952,1.154,1.952,1.154l.062-.024c-.745,1.686-4.469,2.649-4.649,3.268-.218.75,1.514,1.138,2.459,1.371s3.256.211,4.4-.991c.833-.879,2.243-2.087,2.243-2.087Z" transform="translate(-1041.871 -402.297)" fill="#ffb27d"/>
        <path id="Trazado_986899" data-name="Trazado 986899" d="M1542.5,375.491a1.765,1.765,0,0,1-1.567,1.053c-1.136,0-1.443-.17-1.659-.411a3.554,3.554,0,0,1-.428-.7,9.647,9.647,0,0,1,3.654.062" transform="translate(-1186.738 -289.41)" fill="#fff"/>
        <path id="Trazado_986900" data-name="Trazado 986900" d="M1420.343,499.794l-15.688-3.66s-3.227,1.292-1.839,3.66c0,0,14.2,8.9,19.544,7.938,6.077-1.089,10.19-12.485,10.19-12.485Z" transform="translate(-1081.563 -381.927)" fill="#aec3ff"/>
        <path id="Trazado_986901" data-name="Trazado 986901" d="M1558.539,533.231c-.313,2.525-.219,4.021-.431,5.657-8.074.026-18.869-6.235-18.869-6.235Z" transform="translate(-1187.038 -410.774)" fill="#94b0ed"/>
        <path id="Trazado_986902" data-name="Trazado 986902" d="M1539.24,474.668s12.578-.375,14.7-7.524c2.329-7.855,4.938,3.23,4.938,3.23l-1.388,7.075h-13.8Z" transform="translate(-1187.039 -358.084)" fill="#94b0ed"/>
        <path id="Trazado_986903" data-name="Trazado 986903" d="M1267.5,414.989l-21.688,5.523-4.211-16.535,21.688-5.523-5.493-21.569,17.015-4.333,5.493,21.569,21.688-5.523,4.211,16.535-21.688,5.523,5.493,21.569-17.015,4.333Z" transform="translate(-957.502 -287.306)" fill="#505aba"/>
        <path id="Trazado_986904" data-name="Trazado 986904" d="M1505.5,504.715l-1.43-1.758a5.029,5.029,0,0,0-1.671-1.01c-.7-.147-2.186-1-2.329-.761s1.14,1.961,1.14,1.961l.065.009c-1.473,1.108-5.193.13-5.652.582-.557.548.766,1.732,1.476,2.4s2.739,1.774,4.321,1.282c1.156-.36,2.976-.726,2.976-.726Z" transform="translate(-1153.302 -386.474)" fill="#ffb27d"/>
        <path id="Trazado_986905" data-name="Trazado 986905" d="M1544.644,410.227s8.14.54,10.181,3.725,4.573,19.353,3.511,24.905-27.209-1.061-27.209-1.061l.834-4.818s15.091.087,15.95-1.878c1.143-2.613-3.267-20.873-3.267-20.873" transform="translate(-1180.782 -316.361)" fill="#aec3ff"/>
        <path id="Trazado_986906" data-name="Trazado 986906" d="M619.608,1090.453s4.554,1.814,6.089,1.33,4.183-1.966,4.66-3.184-3.124.318-4.342,0a7.985,7.985,0,0,0-4.925,0c-2.383.688-1.482,1.853-1.482,1.853" transform="translate(-477.704 -839.144)" fill="#ffb27d"/>
        <path id="Trazado_986907" data-name="Trazado 986907" d="M439.278,1548.359s.344,5.539,1.372,6.841h15.827a2.816,2.816,0,0,0-2.527-2.261c-2.5-.435-6.687-2.192-8.2-5.5-1.594-3.477-6.472.918-6.472.918" transform="translate(-338.765 -1192.331)" fill="#334272"/>
        <path id="Trazado_986908" data-name="Trazado 986908" d="M315.24,1545.252s-1.044,6.9.311,7.019c.18.016,6.52.005,8.243.263a43.223,43.223,0,0,0,7.51.054.744.744,0,0,0,.674-1.119,3,3,0,0,0-2.15-1.379c-2.492-.48-6.646-2.31-8.1-5.641-1.532-3.5-6.486.8-6.486.8" transform="translate(-242.812 -1189.996)" fill="#334272"/>
        <path id="Trazado_986909" data-name="Trazado 986909" d="M352.06,1187.839s-3.98,13.925-15.385,38.107-12.286,35.2-12.286,35.2l-7.857-.37s.739-28.783,6.126-40.986,6.485-45.6,6.485-45.6Z" transform="translate(-244.106 -905.522)" fill="#94b0ed"/>
        <path id="Trazado_986910" data-name="Trazado 986910" d="M412.309,1181.46A347.286,347.286,0,0,1,408.9,1229.5c-3.731,26.475-2.466,37.713-2.466,37.713l-8.935.3s-5.34-26.485-3.809-39.736-7.312-45.471-7.312-45.471Z" transform="translate(-297.965 -911.124)" fill="#aec3ff"/>
        <path id="Trazado_986911" data-name="Trazado 986911" d="M422.669,925.008l4.214,3.121,6.091-1.282c-.084-.556-.486-2.857-.853-4.943-.022-.123-.044-.246-.065-.366-.314-1.774-.584-3.3-.584-3.3l-5.689-2.835-2.121-1.057c.005.037.164,1.969.186,2.251a18.214,18.214,0,0,1-1.18,8.409" transform="translate(-325.956 -705.131)" fill="#ffb27d"/>
        <path id="Trazado_986912" data-name="Trazado 986912" d="M400.423,1006.008c.384,3.847-30.4,8.4-30.522,1.948-.1-5.678,3.279-36.921,4.327-41.391,1.852-7.911,3.517-12.429,7.044-13.468,1.3-.378,6.1.867,9.572,1.874a5.8,5.8,0,0,1,.715.248,7.361,7.361,0,0,1,4.311,4.721c.534,1.8,1.15,4.108,1.649,6.653a50.842,50.842,0,0,1,.934,7.225c.029.512.045,1.023.048,1.531.019,1.887.184,4.327.416,7.037.146,1.709.321,3.526.5,5.379.054.531.108,1.064.159,1.6.038.372.629,12.578.8,15.847,0,.048,0,.089.006.13a.029.029,0,0,0,0,.016c0,.044,0,.092.006.137.016.292.025.47.029.511" transform="translate(-285.26 -734.961)" fill="#f99746"/>
        <path id="Trazado_986913" data-name="Trazado 986913" d="M429.144,920.247c1.249,2.39,5.9,4.457,7.845,5.217-.022-.123-.044-.246-.065-.366-.314-1.774-.585-3.3-.585-3.3l-5.689-2.835c-1.257-.019-2.023.3-1.507,1.282" transform="translate(-330.824 -708.691)" fill="#fca56b"/>
        <path id="Trazado_986914" data-name="Trazado 986914" d="M424.986,872.974s-10.263,3.2-12.158-3.22-4.5-10.334,1.976-12.649,8.475-.243,9.629,1.747,3.174,13.125.553,14.123" transform="translate(-316.705 -660.198)" fill="#ffb27d"/>
        <path id="Trazado_986915" data-name="Trazado 986915" d="M409.122,846.415s-.654,7.473-2.2,7.149-2.947-.565-2.721,1.688,2.369,4.854-2.394,5.252-11.61-11.884-10.3-14.21c3.775-6.71,23.072-8.064,17.616.122" transform="translate(-301.798 -648.381)" fill="#163560"/>
        <path id="Trazado_986916" data-name="Trazado 986916" d="M430.183,946.659c-.133-.056-8.285-2.462-9.171-2.169s-1.41,2.006-1.41,2.006l12.585,3.585s-.3-2.7-2-3.422" transform="translate(-323.591 -728.357)" fill="#ed7d2b"/>
        <path id="Trazado_986917" data-name="Trazado 986917" d="M626.65,1081.674a8,8,0,0,1,2.727-1.509c1.271-.278,2.383-1.43,2.383-.874s-.953,1.906-.953,2.383-4.157,0-4.157,0" transform="translate(-483.263 -832.218)" fill="#ffb27d"/>
        <path id="Trazado_986918" data-name="Trazado 986918" d="M457.978,1040.476c-6.538-2.481-11.495-12.124-11.495-12.124l11.031,3.555c.029.511.044,1.023.048,1.531.019,1.887.184,4.327.416,7.037" transform="translate(-344.321 -793.049)" fill="#ed7d2b"/>
        <path id="Trazado_986919" data-name="Trazado 986919" d="M462.112,1002.088l.014-.053a2.42,2.42,0,0,0-1.3-2.788c-4.108-1.979-14.749-7.11-15.936-7.747-1.253-.672-13.71-12.649-17.436-16.244a2.422,2.422,0,0,0-2.435-.558l-10.32,3.373a2.423,2.423,0,0,0-.618,4.3c7.591,5.2,23.472,16.03,26.327,17.489,5.033,2.573,15.218,3.918,18.976,4.342a2.415,2.415,0,0,0,2.5-1.453,4.856,4.856,0,0,0,.226-.663" transform="translate(-318.523 -751.58)" fill="#f99746"/>
        <path id="Trazado_986920" data-name="Trazado 986920" d="M538.782,1535.235a5.838,5.838,0,0,0,.047.747,6.125,6.125,0,0,0,6.082,5.381H631.1a6.129,6.129,0,0,0,0-12.259H544.91a6.129,6.129,0,0,0-6.128,6.13" transform="translate(-415.501 -1179.223)" fill="#f78248"/>
        <path id="Trazado_986921" data-name="Trazado 986921" d="M564.344,1517.918H593.9a.941.941,0,1,0,0-1.881H564.344a.941.941,0,0,0,0,1.881" transform="translate(-434.488 -1169.145)" fill="#f78248"/>
        <rect id="Rectángulo_408422" data-name="Rectángulo 408422" width="3.203" height="1.11" transform="translate(131.488 348.773)" fill="#ea642f"/>
        <path id="Trazado_986922" data-name="Trazado 986922" d="M542.032,1568.707a6.139,6.139,0,0,0,5.385,3.2h18.257v-3.2Z" transform="translate(-418.007 -1209.763)" fill="#ea642f"/>
        <path id="Trazado_986923" data-name="Trazado 986923" d="M687.1,1533.44v3.59a4.331,4.331,0,0,1-4.332,4.334H592.982a4.331,4.331,0,0,1-4.332-4.334v-3.59a4.333,4.333,0,0,1,4.332-4.334h89.785a4.333,4.333,0,0,1,4.332,4.334" transform="translate(-453.958 -1179.223)" fill="#f99746"/>
        <path id="Trazado_986924" data-name="Trazado 986924" d="M687.458,1568.707a4.332,4.332,0,0,1-4.181,3.2H593.491a4.332,4.332,0,0,1-4.181-3.2Z" transform="translate(-454.467 -1209.763)" fill="#ef873a"/>
        <path id="Trazado_986925" data-name="Trazado 986925" d="M979.937,1535.257a6.812,6.812,0,0,0,1.783,4.733l.073.075a4.349,4.349,0,0,0,3.076,1.343c1.818,0,6.323-2.742,9.114-4.563,1.391-.908,2.357-1.587,2.357-1.587s-.966-.679-2.357-1.587c-2.792-1.822-7.3-4.565-9.114-4.565a4.071,4.071,0,0,0-1.509.292,4.942,4.942,0,0,0-2.078,1.64,6.767,6.767,0,0,0-1.248,3,.348.348,0,0,0-.005.04,7.61,7.61,0,0,0-.091,1.18" transform="translate(-755.713 -1179.223)" fill="#aec3ff"/>
        <path id="Trazado_986926" data-name="Trazado 986926" d="M985.813,1532.021l13.785,3.765-11.707-5.4a4.939,4.939,0,0,0-2.078,1.64" transform="translate(-760.244 -1180.207)" fill="#ebf3fa"/>
        <path id="Trazado_986927" data-name="Trazado 986927" d="M1037.392,1550.642a1.7,1.7,0,0,0,.9,1.587c1.391-.908,2.357-1.587,2.357-1.587s-.966-.679-2.357-1.587a1.7,1.7,0,0,0-.9,1.587" transform="translate(-800.021 -1194.608)" fill="#f99746"/>
        <path id="Trazado_986928" data-name="Trazado 986928" d="M672.888,1583.986H97.971a.667.667,0,0,1-.664-.664v-.254a.666.666,0,0,1,.664-.664H672.888a.666.666,0,0,1,.664.664v.254a.666.666,0,0,1-.664.664" transform="translate(-75.042 -1220.326)" fill="#2e3552"/>
      </g>
    </g>
  </g>
</svg>
