<svg xmlns="http://www.w3.org/2000/svg" xmlns:xlink="http://www.w3.org/1999/xlink" width="108" height="108" viewBox="0 0 108 108">
  <defs>
    <filter id="Trazado_904820" x="0" y="0" width="108" height="108" filterUnits="userSpaceOnUse">
      <feOffset dy="3" input="SourceAlpha"/>
      <feGaussianBlur stdDeviation="3" result="blur"/>
      <feFlood flood-opacity="0.161"/>
      <feComposite operator="in" in2="blur"/>
      <feComposite in="SourceGraphic"/>
    </filter>
    <clipPath id="clip-path">
      <rect id="Rectángulo_408557" data-name="Rectángulo 408557" width="67.778" height="67.778" fill="none"/>
    </clipPath>
  </defs>
  <g id="Grupo_1150917" data-name="Grupo 1150917" transform="translate(9 6)">
    <g transform="matrix(1, 0, 0, 1, -9, -6)" filter="url(#Trazado_904820)">
      <g id="Trazado_904820-2" data-name="Trazado 904820" transform="translate(9 6)" fill="#ecf4fa">
        <path d="M 45 88.5 C 39.12687683105469 88.5 33.43022537231445 87.35007476806641 28.06830024719238 85.08217620849609 C 22.88852500915527 82.89131164550781 18.23629951477051 79.75458526611328 14.2408504486084 75.75914764404297 C 10.24541282653809 71.76370239257812 7.108687400817871 67.11147308349609 4.917825222015381 61.93170166015625 C 2.649924993515015 56.56977462768555 1.5 50.87312316894531 1.5 45 C 1.5 39.12687683105469 2.649924993515015 33.43022537231445 4.917825222015381 28.06830024719238 C 7.108687400817871 22.88852500915527 10.24541282653809 18.23629951477051 14.2408504486084 14.2408504486084 C 18.23629951477051 10.24541282653809 22.88852500915527 7.108687400817871 28.06830024719238 4.917825222015381 C 33.43022537231445 2.649924993515015 39.12687683105469 1.5 45 1.5 C 50.87312316894531 1.5 56.56977462768555 2.649924993515015 61.93170166015625 4.917825222015381 C 67.11147308349609 7.108687400817871 71.76370239257812 10.24541282653809 75.75914764404297 14.2408504486084 C 79.75458526611328 18.23629951477051 82.89131164550781 22.88852500915527 85.08217620849609 28.06830024719238 C 87.35007476806641 33.43022537231445 88.5 39.12687683105469 88.5 45 C 88.5 50.87312316894531 87.35007476806641 56.56977462768555 85.08217620849609 61.93170166015625 C 82.89131164550781 67.11147308349609 79.75458526611328 71.76370239257812 75.75914764404297 75.75914764404297 C 71.76370239257812 79.75458526611328 67.11147308349609 82.89131164550781 61.93170166015625 85.08217620849609 C 56.56977462768555 87.35007476806641 50.87312316894531 88.5 45 88.5 Z" stroke="none"/>
        <path d="M 45 3 C 39.32871246337891 3 33.82865524291992 4.110054016113281 28.65262985229492 6.299339294433594 C 23.65165710449219 8.414573669433594 19.15968322753906 11.44334411621094 15.301513671875 15.301513671875 C 11.44334411621094 19.15968322753906 8.414573669433594 23.65165710449219 6.299339294433594 28.65262985229492 C 4.110054016113281 33.82865524291992 3 39.32871246337891 3 45 C 3 50.67128753662109 4.110054016113281 56.17134475708008 6.299339294433594 61.34737396240234 C 8.414573669433594 66.34834289550781 11.44334411621094 70.84031677246094 15.301513671875 74.698486328125 C 19.15968322753906 78.55665588378906 23.65165710449219 81.58542633056641 28.65262985229492 83.70066070556641 C 33.82865524291992 85.88994598388672 39.32871246337891 87 45 87 C 50.67128753662109 87 56.17134475708008 85.88994598388672 61.34737396240234 83.70066070556641 C 66.34834289550781 81.58542633056641 70.84031677246094 78.55665588378906 74.698486328125 74.698486328125 C 78.55665588378906 70.84031677246094 81.58542633056641 66.34834289550781 83.70066070556641 61.34737396240234 C 85.88994598388672 56.17134475708008 87 50.67128753662109 87 45 C 87 39.32871246337891 85.88994598388672 33.82865524291992 83.70066070556641 28.65262985229492 C 81.58542633056641 23.65165710449219 78.55665588378906 19.15968322753906 74.698486328125 15.301513671875 C 70.84031677246094 11.44334411621094 66.34834289550781 8.414573669433594 61.34737396240234 6.299339294433594 C 56.17134475708008 4.110054016113281 50.67128753662109 3 45 3 M 45 0 C 69.85281372070312 0 90 20.14718627929688 90 45 C 90 69.85281372070312 69.85281372070312 90 45 90 C 20.14718627929688 90 0 69.85281372070312 0 45 C 0 20.14718627929688 20.14718627929688 0 45 0 Z" stroke="none" fill="#2a5673"/>
      </g>
    </g>
    <g id="Grupo_1151218" data-name="Grupo 1151218" transform="translate(11.472 10.722)">
      <g id="Grupo_1151208" data-name="Grupo 1151208" clip-path="url(#clip-path)">
        <path id="Trazado_987194" data-name="Trazado 987194" d="M70.856,36.805,65.17,31.119a2,2,0,1,0-2.833,2.833L64.6,36.218H40.224V11.839L42.491,14.1a2,2,0,0,0,2.833-2.832L39.638,5.587a2,2,0,0,0-2.833,0l-5.686,5.686A2,2,0,1,0,33.952,14.1l2.266-2.266v24.38H11.839L14.1,33.952a2,2,0,1,0-2.832-2.833L5.587,36.805a2,2,0,0,0,0,2.833l5.686,5.686A2,2,0,1,0,14.1,42.491l-2.266-2.266h24.38V64.6l-2.266-2.266a2,2,0,1,0-2.833,2.833l5.686,5.686a2,2,0,0,0,2.833,0l5.686-5.686a2,2,0,0,0-2.833-2.833L40.224,64.6V40.224H64.6l-2.266,2.266a2,2,0,1,0,2.833,2.833l5.685-5.686a2,2,0,0,0,0-2.833" transform="translate(-4.332 -4.332)" fill="#68c0e0"/>
        <path id="Trazado_987195" data-name="Trazado 987195" d="M8.836,205.315a2,2,0,0,1,0-2.833l5.46-5.46a2.029,2.029,0,0,0-.191-.225,2,2,0,0,0-2.833,0l-5.686,5.686a2,2,0,0,0,0,2.833L11.272,211a1.989,1.989,0,0,0,3.024-.225Z" transform="translate(-4.332 -170.01)" fill="#3282a1"/>
        <path id="Trazado_987196" data-name="Trazado 987196" d="M67,32,61.31,26.316a2.671,2.671,0,1,0-3.777,3.777l1.127,1.126H36.56V9.119l1.126,1.126a2.671,2.671,0,1,0,3.777-3.777L35.777.783A2.671,2.671,0,0,0,32,.783L26.315,6.469a2.671,2.671,0,1,0,3.777,3.777l1.126-1.126v5.276H29.961a.668.668,0,0,0,0,1.335h1.257v4.54H29.961a.668.668,0,0,0,0,1.335h1.257v4.54H29.961a.668.668,0,0,0,0,1.335h1.257v3.738H9.118l1.126-1.126a2.671,2.671,0,0,0-3.777-3.777L.782,32a2.67,2.67,0,0,0,0,3.777l5.685,5.686a2.671,2.671,0,1,0,3.777-3.777L9.118,36.561h5.275v1.1a.668.668,0,0,0,1.335,0v-1.1h4.54v1.1a.668.668,0,0,0,1.335,0v-1.1h4.54v1.1a.668.668,0,0,0,1.335,0v-1.1h3.738V40.3H29.961a.668.668,0,0,0,0,1.335h1.257v4.54H29.961a.668.668,0,0,0,0,1.335h1.257v4.54H29.961a.668.668,0,1,0,0,1.335h1.257v5.276l-1.126-1.126a2.671,2.671,0,1,0-3.777,3.777L32,67a2.67,2.67,0,0,0,3.777,0l5.686-5.686a2.671,2.671,0,0,0-3.777-3.777L36.56,58.661v-22.1H40.3v1.1a.668.668,0,0,0,1.335,0v-1.1h4.54v1.1a.668.668,0,0,0,1.335,0v-1.1h4.54v1.1a.668.668,0,1,0,1.335,0v-1.1H58.66l-1.127,1.126a2.671,2.671,0,1,0,3.777,3.777L67,35.778A2.67,2.67,0,0,0,67,32m-.944,2.833L60.366,40.52a1.335,1.335,0,1,1-1.888-1.888l2.266-2.266a.668.668,0,0,0-.472-1.14H35.892a.668.668,0,0,0-.668.668v24.38a.668.668,0,0,0,1.14.472l2.266-2.266a1.335,1.335,0,1,1,1.889,1.888l-5.686,5.686a1.335,1.335,0,0,1-1.888,0l-5.685-5.686a1.335,1.335,0,1,1,1.888-1.888l2.266,2.266a.668.668,0,0,0,1.14-.472V35.893a.668.668,0,0,0-.668-.668H7.506a.668.668,0,0,0-.472,1.14L9.3,38.631A1.335,1.335,0,0,1,7.412,40.52L1.726,34.834a1.336,1.336,0,0,1,0-1.888L7.412,27.26A1.335,1.335,0,0,1,9.3,29.149L7.034,31.415a.668.668,0,0,0,.472,1.14h24.38a.668.668,0,0,0,.668-.668V7.507a.668.668,0,0,0-1.14-.472L29.148,9.3a1.335,1.335,0,1,1-1.888-1.888l5.685-5.686a1.335,1.335,0,0,1,1.888,0l5.686,5.686A1.335,1.335,0,0,1,38.63,9.3L36.364,7.035a.668.668,0,0,0-1.14.472v24.38a.668.668,0,0,0,.668.668h24.38a.668.668,0,0,0,.472-1.14l-2.266-2.266a1.335,1.335,0,0,1,1.888-1.888l5.686,5.685a1.336,1.336,0,0,1,0,1.888" transform="translate(0 -0.001)"/>
      </g>
    </g>
  </g>
</svg>
