<svg xmlns="http://www.w3.org/2000/svg" xmlns:xlink="http://www.w3.org/1999/xlink" width="108" height="108" viewBox="0 0 108 108">
  <defs>
    <filter id="Fondo" x="0" y="0" width="108" height="108" filterUnits="userSpaceOnUse">
      <feOffset dy="3" input="SourceAlpha"/>
      <feGaussianBlur stdDeviation="3" result="blur"/>
      <feFlood flood-opacity="0.161"/>
      <feComposite operator="in" in2="blur"/>
      <feComposite in="SourceGraphic"/>
    </filter>
    <clipPath id="clip-path">
      <rect id="Rectángulo_408531" data-name="Rectángulo 408531" width="63.553" height="45" fill="none"/>
    </clipPath>
  </defs>
  <g id="Icono" transform="translate(9 -689)">
    <g transform="matrix(1, 0, 0, 1, -9, 689)" filter="url(#Fondo)">
      <g id="Fondo-2" data-name="Fondo" transform="translate(9 6)" fill="#e6d567">
        <path d="M 45 88.5 C 39.12687683105469 88.5 33.43022537231445 87.35007476806641 28.06830024719238 85.08217620849609 C 22.88852500915527 82.89131164550781 18.23629951477051 79.75458526611328 14.2408504486084 75.75914764404297 C 10.24541282653809 71.76370239257812 7.108687400817871 67.11147308349609 4.917825222015381 61.93170166015625 C 2.649924993515015 56.56977462768555 1.5 50.87312316894531 1.5 45 C 1.5 39.12687683105469 2.649924993515015 33.43022537231445 4.917825222015381 28.06830024719238 C 7.108687400817871 22.88852500915527 10.24541282653809 18.23629951477051 14.2408504486084 14.2408504486084 C 18.23629951477051 10.24541282653809 22.88852500915527 7.108687400817871 28.06830024719238 4.917825222015381 C 33.43022537231445 2.649924993515015 39.12687683105469 1.5 45 1.5 C 50.87312316894531 1.5 56.56977462768555 2.649924993515015 61.93170166015625 4.917825222015381 C 67.11147308349609 7.108687400817871 71.76370239257812 10.24541282653809 75.75914764404297 14.2408504486084 C 79.75458526611328 18.23629951477051 82.89131164550781 22.88852500915527 85.08217620849609 28.06830024719238 C 87.35007476806641 33.43022537231445 88.5 39.12687683105469 88.5 45 C 88.5 50.87312316894531 87.35007476806641 56.56977462768555 85.08217620849609 61.93170166015625 C 82.89131164550781 67.11147308349609 79.75458526611328 71.76370239257812 75.75914764404297 75.75914764404297 C 71.76370239257812 79.75458526611328 67.11147308349609 82.89131164550781 61.93170166015625 85.08217620849609 C 56.56977462768555 87.35007476806641 50.87312316894531 88.5 45 88.5 Z" stroke="none"/>
        <path d="M 45 3 C 39.32871246337891 3 33.82865524291992 4.110054016113281 28.65262985229492 6.299339294433594 C 23.65165710449219 8.414573669433594 19.15968322753906 11.44334411621094 15.301513671875 15.301513671875 C 11.44334411621094 19.15968322753906 8.414573669433594 23.65165710449219 6.299339294433594 28.65262985229492 C 4.110054016113281 33.82865524291992 3 39.32871246337891 3 45 C 3 50.67128753662109 4.110054016113281 56.17134475708008 6.299339294433594 61.34737396240234 C 8.414573669433594 66.34834289550781 11.44334411621094 70.84031677246094 15.301513671875 74.698486328125 C 19.15968322753906 78.55665588378906 23.65165710449219 81.58542633056641 28.65262985229492 83.70066070556641 C 33.82865524291992 85.88994598388672 39.32871246337891 87 45 87 C 50.67128753662109 87 56.17134475708008 85.88994598388672 61.34737396240234 83.70066070556641 C 66.34834289550781 81.58542633056641 70.84031677246094 78.55665588378906 74.698486328125 74.698486328125 C 78.55665588378906 70.84031677246094 81.58542633056641 66.34834289550781 83.70066070556641 61.34737396240234 C 85.88994598388672 56.17134475708008 87 50.67128753662109 87 45 C 87 39.32871246337891 85.88994598388672 33.82865524291992 83.70066070556641 28.65262985229492 C 81.58542633056641 23.65165710449219 78.55665588378906 19.15968322753906 74.698486328125 15.301513671875 C 70.84031677246094 11.44334411621094 66.34834289550781 8.414573669433594 61.34737396240234 6.299339294433594 C 56.17134475708008 4.110054016113281 50.67128753662109 3 45 3 M 45 0 C 69.85281372070312 0 90 20.14718627929688 90 45 C 90 69.85281372070312 69.85281372070312 90 45 90 C 20.14718627929688 90 0 69.85281372070312 0 45 C 0 20.14718627929688 20.14718627929688 0 45 0 Z" stroke="none" fill="#bca724"/>
      </g>
    </g>
    <g id="Grupo_1151214" data-name="Grupo 1151214" transform="translate(12.99 715.625)">
      <g id="Grupo_1151202" data-name="Grupo 1151202" clip-path="url(#clip-path)">
        <path id="Trazado_987152" data-name="Trazado 987152" d="M74.558,9.765H71.8V6.381a1.381,1.381,0,1,1,2.761,0Z" transform="translate(-62.796 -4.373)" fill="#68c0e0"/>
        <path id="Trazado_987153" data-name="Trazado 987153" d="M86.88,78.923H31.133V44.888a1.88,1.88,0,0,1,1.88-1.88H85a1.88,1.88,0,0,1,1.88,1.88Z" transform="translate(-27.23 -37.616)" fill="#d79522"/>
        <rect id="Rectángulo_408527" data-name="Rectángulo 408527" width="50.281" height="30.478" transform="translate(6.636 8.087)" fill="#4eb7a2"/>
        <rect id="Rectángulo_408528" data-name="Rectángulo 408528" width="3.059" height="30.478" transform="translate(6.636 8.11)" fill="#26a08a"/>
        <rect id="Rectángulo_408529" data-name="Rectángulo 408529" width="62.299" height="3.066" transform="translate(0.627 41.307)" fill="#cdcdc6"/>
        <rect id="Rectángulo_408530" data-name="Rectángulo 408530" width="3.066" height="3.066" transform="translate(0.627 41.307)" fill="#989898"/>
        <path id="Trazado_987154" data-name="Trazado 987154" d="M359.255,290.65H345.673v-3.688a1.881,1.881,0,0,1,1.88-1.88h9.821a1.88,1.88,0,0,1,1.88,1.88Z" transform="translate(-302.338 -249.343)" fill="#68c0e0"/>
        <path id="Trazado_987155" data-name="Trazado 987155" d="M350.6,285.082h-3.046a1.88,1.88,0,0,0-1.88,1.88v3.688h3.046v-3.688a1.88,1.88,0,0,1,1.88-1.88" transform="translate(-302.337 -249.343)" fill="#3282a1"/>
        <path id="Trazado_987156" data-name="Trazado 987156" d="M415.891,9.765H413.13V6.381a1.381,1.381,0,1,1,2.761,0Z" transform="translate(-361.339 -4.373)" fill="#68c0e0"/>
        <path id="Trazado_987157" data-name="Trazado 987157" d="M62.926,40.68H60.277V7.272A2.51,2.51,0,0,0,57.77,4.765h-2.59V2.008a2.008,2.008,0,1,0-4.015,0V4.765H12.389V2.008a2.008,2.008,0,1,0-4.015,0V4.765H5.783A2.51,2.51,0,0,0,3.276,7.272V40.68H.627A.627.627,0,0,0,0,41.307v3.066A.627.627,0,0,0,.627,45h62.3a.627.627,0,0,0,.627-.627V41.307a.627.627,0,0,0-.627-.627M52.418,2.008a.754.754,0,1,1,1.508,0V4.765H52.418Zm-42.791,0a.754.754,0,1,1,1.508,0V4.765H9.627ZM4.53,7.272A1.255,1.255,0,0,1,5.783,6.018H57.77a1.255,1.255,0,0,1,1.254,1.254V40.68h-1.48V8.11a.627.627,0,0,0-.627-.627H6.636a.627.627,0,0,0-.627.627V38.588a.627.627,0,0,0,.627.627H42.708V40.68H4.53Zm50.507,27.84H45.215a2.51,2.51,0,0,0-2.507,2.507v.342H7.263V8.737H56.29V35.451a2.489,2.489,0,0,0-1.254-.339m1.254,2.507V40.68H43.961V37.619a1.255,1.255,0,0,1,1.254-1.254h9.821a1.255,1.255,0,0,1,1.254,1.254M62.3,43.746H1.254V41.934H62.3Z"/>
        <path id="Trazado_987158" data-name="Trazado 987158" d="M170.32,155.144a.627.627,0,0,0-.849.255l-1.2,2.234-1.2-2.234a.627.627,0,0,0-1.1.594l1.6,2.962-1.6,2.962a.627.627,0,1,0,1.1.594l1.2-2.234,1.2,2.234a.627.627,0,0,0,1.1-.594l-1.6-2.962,1.6-2.962a.627.627,0,0,0-.255-.849" transform="translate(-145.09 -135.629)"/>
        <path id="Trazado_987159" data-name="Trazado 987159" d="M258.275,155.122a.627.627,0,0,0-.826.323l-1.181,2.7-1.181-2.7a.627.627,0,1,0-1.148.5l1.7,3.892v2.376a.627.627,0,1,0,1.254,0v-2.376l1.7-3.892a.627.627,0,0,0-.323-.826" transform="translate(-222.058 -135.629)"/>
        <path id="Trazado_987160" data-name="Trazado 987160" d="M213.289,167.966h-1.251v-1.251a.627.627,0,0,0-1.254,0v1.251h-1.251a.627.627,0,1,0,0,1.254h1.251v1.251a.627.627,0,0,0,1.254,0V169.22h1.251a.627.627,0,0,0,0-1.254" transform="translate(-182.717 -145.267)"/>
        <path id="Trazado_987161" data-name="Trazado 987161" d="M305.485,169.07h-3.756a.627.627,0,0,0,0,1.254h3.756a.627.627,0,1,0,0-1.254" transform="translate(-263.355 -147.875)"/>
        <path id="Trazado_987162" data-name="Trazado 987162" d="M305.485,193.07h-3.756a.627.627,0,0,0,0,1.254h3.756a.627.627,0,1,0,0-1.254" transform="translate(-263.355 -168.866)"/>
      </g>
    </g>
  </g>
</svg>
