<svg xmlns="http://www.w3.org/2000/svg" xmlns:xlink="http://www.w3.org/1999/xlink" width="610" height="355.072" viewBox="0 0 610 355.072">
  <defs>
    <clipPath id="clip-path">
      <rect id="Rectángulo_408501" data-name="Rectángulo 408501" width="71.69" height="67.929" fill="none" stroke="#fff" stroke-width="1"/>
    </clipPath>
    <clipPath id="clip-path-2">
      <rect id="Rectángulo_408504" data-name="Rectángulo 408504" width="96.441" height="64.919" fill="none" stroke="#fff" stroke-width="1"/>
    </clipPath>
  </defs>
  <g id="Grupo_1151220" data-name="Grupo 1151220" transform="translate(-495 -896.014)">
    <path id="Trazado_983077" data-name="Trazado 983077" d="M342.51,120.776a159.246,159.246,0,1,1-16.051-19.837,159.459,159.459,0,0,1,16.051,19.837" transform="translate(461.461 862.553)" fill="#4e9ed2"/>
    <path id="Trazado_983078" data-name="Trazado 983078" d="M277.862,323.811A177.452,177.452,0,0,1,3.056,144.941,177.475,177.475,0,0,1,306.392,55.459a1.825,1.825,0,1,1-2.654,2.505C244.692-4.573,150.265-14.6,79.213,34.122c-79.039,54.2-99.248,162.6-45.049,241.636S196.759,375,275.8,320.8a174.678,174.678,0,0,0,27.817-23.691,1.825,1.825,0,0,1,2.646,2.514,178.388,178.388,0,0,1-28.4,24.187" transform="translate(495 896.013)" fill="#4e9ed2"/>
    <path id="Trazado_983079" data-name="Trazado 983079" d="M1094.868,324.166A177.487,177.487,0,0,1,865.63,299.825a1.825,1.825,0,0,1,2.654-2.506c59.044,62.534,153.469,72.559,224.52,23.837,79.04-54.2,99.25-162.595,45.053-241.631S975.263-19.717,896.223,34.483a174.673,174.673,0,0,0-27.817,23.691,1.825,1.825,0,0,1-2.647-2.514,178.37,178.37,0,0,1,28.4-24.187,177.449,177.449,0,0,1,274.8,178.865,176.3,176.3,0,0,1-74.095,113.829" transform="translate(-67.018 895.808)" fill="#f8c623"/>
    <path id="Trazado_983080" data-name="Trazado 983080" d="M1070.292,121.2A159.4,159.4,0,1,1,848.681,79.884,159.4,159.4,0,0,1,1070.292,121.2" transform="translate(-11.331 862.279)" fill="#f8c623"/>
    <path id="Trazado_987197" data-name="Trazado 987197" d="M17.3,1.408h4.819L26.807,17.8,31.538,1.408h4.688L28.857,23H24.595ZM37.529,8.762q1.655-2.109,5.684-2.109a10.1,10.1,0,0,1,4.658,1.04q2.036,1.04,2.036,3.926v7.324q0,.762.029,1.846a2.321,2.321,0,0,0,.249,1.113,1.5,1.5,0,0,0,.615.483V23H46.26A4.65,4.65,0,0,1,46,22.092q-.073-.425-.117-.967a8.577,8.577,0,0,1-1.992,1.6,5.992,5.992,0,0,1-3.047.776,5.239,5.239,0,0,1-3.582-1.238,4.415,4.415,0,0,1-1.414-3.508,4.554,4.554,0,0,1,2.271-4.263,10.081,10.081,0,0,1,3.662-1.025l1.421-.176a6.516,6.516,0,0,0,1.655-.366,1.255,1.255,0,0,0,.894-1.187,1.408,1.408,0,0,0-.681-1.355,4.255,4.255,0,0,0-2-.374,2.6,2.6,0,0,0-2.095.732,3.044,3.044,0,0,0-.586,1.465H36.357A6.127,6.127,0,0,1,37.529,8.762Zm3.105,11.221a2.181,2.181,0,0,0,1.436.483,4.252,4.252,0,0,0,2.483-.791,3.373,3.373,0,0,0,1.179-2.886V15.236a4.537,4.537,0,0,1-.8.4,6.676,6.676,0,0,1-1.106.286l-.937.176a6.054,6.054,0,0,0-1.89.571,1.915,1.915,0,0,0-.967,1.772A1.833,1.833,0,0,0,40.635,19.982Zm21.006-9.1q-2.52,0-3.384,1.641a6.382,6.382,0,0,0-.483,2.842V23h-4.2V7.033h3.984V9.816a8.827,8.827,0,0,1,1.685-2.183,4.586,4.586,0,0,1,3.047-.981q.117,0,.2.007t.359.022v4.277q-.4-.044-.7-.059T61.641,10.886ZM69.58,7.033V23H65.347V7.033Zm0-5.757V5.129H65.347V1.276Zm4.644,7.485q1.655-2.109,5.684-2.109a10.1,10.1,0,0,1,4.658,1.04Q86.6,8.732,86.6,11.618v7.324q0,.762.029,1.846A2.321,2.321,0,0,0,86.88,21.9a1.5,1.5,0,0,0,.615.483V23H82.954a4.65,4.65,0,0,1-.264-.908q-.073-.425-.117-.967a8.577,8.577,0,0,1-1.992,1.6,5.992,5.992,0,0,1-3.047.776,5.239,5.239,0,0,1-3.582-1.238,4.415,4.415,0,0,1-1.414-3.508,4.554,4.554,0,0,1,2.271-4.263,10.081,10.081,0,0,1,3.662-1.025l1.421-.176a6.516,6.516,0,0,0,1.655-.366,1.255,1.255,0,0,0,.894-1.187,1.408,1.408,0,0,0-.681-1.355,4.255,4.255,0,0,0-2-.374,2.6,2.6,0,0,0-2.095.732A3.044,3.044,0,0,0,77.08,12.2H73.052A6.127,6.127,0,0,1,74.224,8.762Zm3.105,11.221a2.181,2.181,0,0,0,1.436.483,4.252,4.252,0,0,0,2.483-.791,3.373,3.373,0,0,0,1.179-2.886V15.236a4.537,4.537,0,0,1-.8.4,6.676,6.676,0,0,1-1.106.286l-.937.176a6.054,6.054,0,0,0-1.89.571,1.915,1.915,0,0,0-.967,1.772A1.833,1.833,0,0,0,77.329,19.982Zm21.65,3.442a5.7,5.7,0,0,1-3.179-.791,6.349,6.349,0,0,1-1.553-1.641V23H90.161V1.438h4.16V9.113a6.091,6.091,0,0,1,1.743-1.7,5.178,5.178,0,0,1,2.871-.732,5.914,5.914,0,0,1,4.929,2.271,9.217,9.217,0,0,1,1.78,5.859,10.3,10.3,0,0,1-1.758,6.167A5.7,5.7,0,0,1,98.979,23.425Zm2.285-8.174a7.727,7.727,0,0,0-.439-2.812,3.061,3.061,0,0,0-3.076-2.109,3.106,3.106,0,0,0-3.12,2.065,7.752,7.752,0,0,0-.439,2.842,5.953,5.953,0,0,0,.908,3.4,3.11,3.11,0,0,0,2.769,1.348,2.866,2.866,0,0,0,2.5-1.3A5.953,5.953,0,0,0,101.265,15.251Zm7.456-13.843H112.9V23h-4.175Zm21.914,16.9a5.3,5.3,0,0,1-1.479,2.886,7.248,7.248,0,0,1-5.742,2.329,8.1,8.1,0,0,1-5.376-1.963q-2.329-1.963-2.329-6.387a8.877,8.877,0,0,1,2.1-6.357,7.187,7.187,0,0,1,5.457-2.212,8.368,8.368,0,0,1,3.589.747,6.287,6.287,0,0,1,2.637,2.358,8.047,8.047,0,0,1,1.216,3.3,21.285,21.285,0,0,1,.132,3.164H119.912a3.968,3.968,0,0,0,1.509,3.369,3.554,3.554,0,0,0,2.08.6,2.994,2.994,0,0,0,2.095-.732,3.479,3.479,0,0,0,.776-1.1ZM126.5,13.42a3.634,3.634,0,0,0-1-2.512,3.116,3.116,0,0,0-2.234-.857,2.835,2.835,0,0,0-2.249.908,4.533,4.533,0,0,0-1,2.461Zm18.149-5.654a5.144,5.144,0,0,1,2.153,4.131h-4.175a2.47,2.47,0,0,0-.454-1.274,2.857,2.857,0,0,0-2.344-.85,3.368,3.368,0,0,0-1.941.425,1.223,1.223,0,0,0-.579,1,1.09,1.09,0,0,0,.615,1.04,26.633,26.633,0,0,0,4.351,1.157,7.991,7.991,0,0,1,3.735,1.772,4.024,4.024,0,0,1,1.23,3,4.852,4.852,0,0,1-1.765,3.875q-1.765,1.5-5.457,1.5-3.765,0-5.559-1.589a5.171,5.171,0,0,1-1.794-4.05H136.9a2.788,2.788,0,0,0,.571,1.582,3.862,3.862,0,0,0,2.871.835,4.376,4.376,0,0,0,1.956-.366,1.229,1.229,0,0,0,.139-2.168,23.837,23.837,0,0,0-4.351-1.26,9.061,9.061,0,0,1-3.823-1.685,3.652,3.652,0,0,1-1.113-2.871,4.98,4.98,0,0,1,1.736-3.8,6.972,6.972,0,0,1,4.885-1.589A9.045,9.045,0,0,1,144.653,7.766Z" transform="translate(590 1096)" fill="#fff"/>
    <path id="Trazado_987198" data-name="Trazado 987198" d="M17.943,13.566H7.455v5.552H19.408V23H3.045V1.408H18.88V5.231H7.455V9.816H17.943ZM36.4,12.761H32.123a3.705,3.705,0,0,0-.6-1.611,2.518,2.518,0,0,0-2.183-.967,2.874,2.874,0,0,0-2.886,2.095,8.758,8.758,0,0,0-.41,2.959,8.053,8.053,0,0,0,.41,2.827,2.786,2.786,0,0,0,2.813,1.992,2.48,2.48,0,0,0,2.08-.791,3.937,3.937,0,0,0,.747-2.051h4.263a6.984,6.984,0,0,1-1.377,3.6,6.693,6.693,0,0,1-5.815,2.739q-3.853,0-5.669-2.285a9.247,9.247,0,0,1-1.816-5.933,9.383,9.383,0,0,1,2.007-6.4,6.985,6.985,0,0,1,5.537-2.285A8.337,8.337,0,0,1,34.137,8Q36.048,9.348,36.4,12.761Zm13.11,7.983q-.059.073-.293.439a2.941,2.941,0,0,1-.557.645,5.813,5.813,0,0,1-1.9,1.2,6.465,6.465,0,0,1-2.146.322q-3.545,0-4.775-2.549a9.753,9.753,0,0,1-.688-4.146V7.033h4.277v9.624a5.038,5.038,0,0,0,.322,2.051,2.231,2.231,0,0,0,2.241,1.216,2.93,2.93,0,0,0,2.93-1.729,6.257,6.257,0,0,0,.41-2.476V7.033h4.233V23H49.51ZM58.2,8.762q1.655-2.109,5.684-2.109a10.1,10.1,0,0,1,4.658,1.04q2.036,1.04,2.036,3.926v7.324q0,.762.029,1.846a2.321,2.321,0,0,0,.249,1.113,1.5,1.5,0,0,0,.615.483V23H66.927a4.65,4.65,0,0,1-.264-.908q-.073-.425-.117-.967a8.577,8.577,0,0,1-1.992,1.6,5.992,5.992,0,0,1-3.047.776,5.239,5.239,0,0,1-3.582-1.238,4.415,4.415,0,0,1-1.414-3.508,4.554,4.554,0,0,1,2.271-4.263,10.081,10.081,0,0,1,3.662-1.025l1.421-.176a6.516,6.516,0,0,0,1.655-.366,1.255,1.255,0,0,0,.894-1.187,1.408,1.408,0,0,0-.681-1.355,4.255,4.255,0,0,0-2-.374,2.6,2.6,0,0,0-2.095.732,3.044,3.044,0,0,0-.586,1.465H57.025A6.127,6.127,0,0,1,58.2,8.762ZM61.3,19.982a2.181,2.181,0,0,0,1.436.483,4.252,4.252,0,0,0,2.483-.791A3.373,3.373,0,0,0,66.4,16.789V15.236a4.537,4.537,0,0,1-.8.4,6.676,6.676,0,0,1-1.106.286l-.937.176a6.054,6.054,0,0,0-1.89.571,1.915,1.915,0,0,0-.967,1.772A1.833,1.833,0,0,0,61.3,19.982Zm26.792-7.222H83.817a3.705,3.705,0,0,0-.6-1.611,2.518,2.518,0,0,0-2.183-.967,2.874,2.874,0,0,0-2.886,2.095,8.758,8.758,0,0,0-.41,2.959,8.053,8.053,0,0,0,.41,2.827,2.786,2.786,0,0,0,2.813,1.992,2.48,2.48,0,0,0,2.08-.791,3.937,3.937,0,0,0,.747-2.051H88.05a6.984,6.984,0,0,1-1.377,3.6,6.693,6.693,0,0,1-5.815,2.739q-3.853,0-5.669-2.285a9.247,9.247,0,0,1-1.816-5.933,9.383,9.383,0,0,1,2.007-6.4,6.985,6.985,0,0,1,5.537-2.285A8.337,8.337,0,0,1,85.831,8Q87.743,9.348,88.094,12.761Zm7.163-5.728V23H91.024V7.033Zm0-5.757V5.129H91.024V1.276Zm17.358,7.778a9.317,9.317,0,0,1,2.021,5.991,9.256,9.256,0,0,1-2.021,6.013q-2.021,2.5-6.138,2.5t-6.138-2.5a9.256,9.256,0,0,1-2.021-6.013,9.317,9.317,0,0,1,2.021-5.991q2.021-2.534,6.138-2.534T112.616,9.055Zm-6.152,1a3.336,3.336,0,0,0-2.82,1.3,6,6,0,0,0-.989,3.7,6.032,6.032,0,0,0,.989,3.706,3.693,3.693,0,0,0,5.632,0,6.065,6.065,0,0,0,.981-3.706,6.032,6.032,0,0,0-.981-3.7A3.316,3.316,0,0,0,106.463,10.051Zm18.677.073a2.907,2.907,0,0,0-2.915,1.8,6.189,6.189,0,0,0-.41,2.432V23h-4.16V7.063h4.028V9.392a7.087,7.087,0,0,1,1.523-1.772,5.294,5.294,0,0,1,3.267-.967,6.163,6.163,0,0,1,4.05,1.3q1.575,1.3,1.575,4.3V23h-4.277V13.288a4.432,4.432,0,0,0-.337-1.934A2.37,2.37,0,0,0,125.14,10.124Zm24.478,8.188a5.3,5.3,0,0,1-1.479,2.886,7.248,7.248,0,0,1-5.742,2.329,8.1,8.1,0,0,1-5.376-1.963q-2.329-1.963-2.329-6.387a8.877,8.877,0,0,1,2.1-6.357,7.187,7.187,0,0,1,5.457-2.212,8.368,8.368,0,0,1,3.589.747,6.287,6.287,0,0,1,2.637,2.358,8.047,8.047,0,0,1,1.216,3.3,21.285,21.285,0,0,1,.132,3.164H138.9a3.968,3.968,0,0,0,1.509,3.369,3.554,3.554,0,0,0,2.08.6,2.994,2.994,0,0,0,2.095-.732,3.479,3.479,0,0,0,.776-1.1Zm-4.131-4.893a3.634,3.634,0,0,0-1-2.512,3.116,3.116,0,0,0-2.234-.857,2.835,2.835,0,0,0-2.249.908,4.533,4.533,0,0,0-1,2.461Zm18.149-5.654A5.144,5.144,0,0,1,165.79,11.9h-4.175a2.47,2.47,0,0,0-.454-1.274,2.857,2.857,0,0,0-2.344-.85,3.368,3.368,0,0,0-1.941.425,1.223,1.223,0,0,0-.579,1,1.09,1.09,0,0,0,.615,1.04,26.633,26.633,0,0,0,4.351,1.157A7.991,7.991,0,0,1,165,15.163a4.024,4.024,0,0,1,1.23,3,4.852,4.852,0,0,1-1.765,3.875q-1.765,1.5-5.457,1.5-3.765,0-5.559-1.589a5.171,5.171,0,0,1-1.794-4.05h4.233a2.788,2.788,0,0,0,.571,1.582,3.862,3.862,0,0,0,2.871.835,4.376,4.376,0,0,0,1.956-.366,1.229,1.229,0,0,0,.139-2.168,23.837,23.837,0,0,0-4.351-1.26,9.061,9.061,0,0,1-3.823-1.685,3.652,3.652,0,0,1-1.113-2.871,4.98,4.98,0,0,1,1.736-3.8,6.972,6.972,0,0,1,4.885-1.589A9.045,9.045,0,0,1,163.636,7.766Z" transform="translate(842 1095.937)" fill="#fff"/>
    <g id="Grupo_1151190" data-name="Grupo 1151190" transform="translate(637 1010.071)">
      <g id="Grupo_1151189" data-name="Grupo 1151189" transform="translate(0 0)" clip-path="url(#clip-path)">
        <path id="Trazado_987093" data-name="Trazado 987093" d="M39.309,1H4.473A3.475,3.475,0,0,0,1,4.473V59.431a3.465,3.465,0,0,0,3.473,3.461h37.4" transform="translate(0.179 0.179)" fill="none" stroke="#fff" stroke-linecap="round" stroke-linejoin="round" stroke-width="2"/>
        <line id="Línea_708" data-name="Línea 708" y1="12.976" transform="translate(52.117 13.808)" fill="none" stroke="#fff" stroke-linecap="round" stroke-linejoin="round" stroke-width="2"/>
        <path id="Trazado_987094" data-name="Trazado 987094" d="M33.485,1V11.8a1.829,1.829,0,0,0,1.829,1.829h10.8Z" transform="translate(6.006 0.18)" fill="none" stroke="#fff" stroke-linecap="round" stroke-linejoin="round" stroke-width="2"/>
        <line id="Línea_709" data-name="Línea 709" x2="7.875" y2="7.875" transform="translate(7.368 19.344)" fill="none" stroke="#fff" stroke-linecap="round" stroke-linejoin="round" stroke-width="2"/>
        <line id="Línea_710" data-name="Línea 710" x1="7.875" y2="7.875" transform="translate(7.369 19.344)" fill="none" stroke="#fff" stroke-linecap="round" stroke-linejoin="round" stroke-width="2"/>
        <line id="Línea_711" data-name="Línea 711" x2="7.875" y2="7.875" transform="translate(7.368 36.188)" fill="none" stroke="#fff" stroke-linecap="round" stroke-linejoin="round" stroke-width="2"/>
        <line id="Línea_712" data-name="Línea 712" x1="7.875" y2="7.875" transform="translate(7.369 36.188)" fill="none" stroke="#fff" stroke-linecap="round" stroke-linejoin="round" stroke-width="2"/>
        <line id="Línea_713" data-name="Línea 713" y2="4.368" transform="translate(33.991 23.071)" fill="none" stroke="#fff" stroke-linecap="round" stroke-linejoin="round" stroke-width="2"/>
        <path id="Trazado_987095" data-name="Trazado 987095" d="M33.367,16.216l-3.932,3.946H29.42l-3.932-3.946" transform="translate(4.572 2.908)" fill="none" stroke="#fff" stroke-linecap="round" stroke-linejoin="round" stroke-width="2"/>
        <line id="Línea_714" data-name="Línea 714" x2="6.486" transform="translate(19.622 23.282)" fill="none" stroke="#fff" stroke-linecap="round" stroke-linejoin="round" stroke-width="2"/>
        <line id="Línea_715" data-name="Línea 715" y2="6.486" transform="translate(22.865 20.039)" fill="none" stroke="#fff" stroke-linecap="round" stroke-linejoin="round" stroke-width="2"/>
        <line id="Línea_716" data-name="Línea 716" x2="6.486" transform="translate(19.622 39.768)" fill="none" stroke="#fff" stroke-linecap="round" stroke-linejoin="round" stroke-width="2"/>
        <line id="Línea_717" data-name="Línea 717" y2="6.486" transform="translate(22.865 36.525)" fill="none" stroke="#fff" stroke-linecap="round" stroke-linejoin="round" stroke-width="2"/>
        <path id="Trazado_987096" data-name="Trazado 987096" d="M25.488,30.4h7.878l-7.878,8.214h7.878" transform="translate(4.571 5.452)" fill="none" stroke="#fff" stroke-linecap="round" stroke-linejoin="round" stroke-width="2"/>
        <rect id="Rectángulo_408493" data-name="Rectángulo 408493" width="28.46" height="39.961" rx="3.329" transform="translate(42.05 26.788)" fill="none" stroke="#fff" stroke-linecap="round" stroke-linejoin="round" stroke-width="2"/>
        <rect id="Rectángulo_408494" data-name="Rectángulo 408494" width="17.513" height="5.984" transform="translate(47.523 32.47)" fill="none" stroke="#fff" stroke-linecap="round" stroke-linejoin="round" stroke-width="2"/>
        <rect id="Rectángulo_408495" data-name="Rectángulo 408495" width="4.285" height="4.504" transform="translate(46.374 44.602)" fill="none" stroke="#fff" stroke-linecap="round" stroke-linejoin="round" stroke-width="2"/>
        <rect id="Rectángulo_408496" data-name="Rectángulo 408496" width="4.285" height="4.504" transform="translate(54.14 44.602)" fill="none" stroke="#fff" stroke-linecap="round" stroke-linejoin="round" stroke-width="2"/>
        <rect id="Rectángulo_408497" data-name="Rectángulo 408497" width="4.285" height="4.504" transform="translate(61.902 44.602)" fill="none" stroke="#fff" stroke-linecap="round" stroke-linejoin="round" stroke-width="2"/>
        <rect id="Rectángulo_408498" data-name="Rectángulo 408498" width="4.285" height="4.504" transform="translate(46.376 53.906)" fill="none" stroke="#fff" stroke-linecap="round" stroke-linejoin="round" stroke-width="2"/>
        <rect id="Rectángulo_408499" data-name="Rectángulo 408499" width="4.285" height="4.504" transform="translate(54.142 53.906)" fill="none" stroke="#fff" stroke-linecap="round" stroke-linejoin="round" stroke-width="2"/>
        <rect id="Rectángulo_408500" data-name="Rectángulo 408500" width="4.285" height="4.504" transform="translate(61.903 53.906)" fill="none" stroke="#fff" stroke-linecap="round" stroke-linejoin="round" stroke-width="2"/>
      </g>
    </g>
    <g id="Grupo_1151192" data-name="Grupo 1151192" transform="translate(879 1013.019)">
      <g id="Grupo_1151191" data-name="Grupo 1151191" transform="translate(0 0)" clip-path="url(#clip-path-2)">
        <path id="Rectángulo_408502" data-name="Rectángulo 408502" d="M2.46,0H90.8a2.459,2.459,0,0,1,2.459,2.459v56.82A2.459,2.459,0,0,1,90.8,61.738H2.46A2.46,2.46,0,0,1,0,59.278V2.46A2.46,2.46,0,0,1,2.46,0Z" transform="translate(1.591 1.59)" fill="none" stroke="#fff" stroke-linecap="round" stroke-linejoin="round" stroke-width="2"/>
        <rect id="Rectángulo_408503" data-name="Rectángulo 408503" width="66.227" height="49.583" transform="translate(12.722 7.668)" fill="none" stroke="#fff" stroke-linecap="round" stroke-linejoin="round" stroke-width="2"/>
        <path id="Trazado_987097" data-name="Trazado 987097" d="M11.853,17.891a7.429,7.429,0,0,1,7.156-2.245c8.489,1.684,10.243-1.824,10.243-1.824" transform="translate(6.996 8.159)" fill="none" stroke="#fff" stroke-linecap="round" stroke-linejoin="round" stroke-width="2"/>
        <path id="Trazado_987098" data-name="Trazado 987098" d="M16.086,14.87s.7,12.505-2.6,16.083" transform="translate(7.96 8.777)" fill="none" stroke="#fff" stroke-linecap="round" stroke-linejoin="round" stroke-width="2"/>
        <path id="Trazado_987099" data-name="Trazado 987099" d="M19.654,15.251s-2.9,13.666.883,15.21c3.4,1.387,3.444-3.087,3.444-3.087" transform="translate(10.973 9.002)" fill="none" stroke="#fff" stroke-linecap="round" stroke-linejoin="round" stroke-width="2"/>
        <line id="Línea_718" data-name="Línea 718" x2="7.647" transform="translate(41.229 27.864)" fill="none" stroke="#fff" stroke-linecap="round" stroke-linejoin="round" stroke-width="2"/>
        <line id="Línea_719" data-name="Línea 719" x2="7.647" transform="translate(41.229 34.038)" fill="none" stroke="#fff" stroke-linecap="round" stroke-linejoin="round" stroke-width="2"/>
        <path id="Trazado_987100" data-name="Trazado 987100" d="M34.164,11.783l1.08-1.186A2.635,2.635,0,0,1,39.405,13.8l-3.9,4.9a1.039,1.039,0,0,0,.871,1.6h4" transform="translate(20.164 5.745)" fill="none" stroke="#fff" stroke-linecap="round" stroke-linejoin="round" stroke-width="2"/>
        <path id="Trazado_987101" data-name="Trazado 987101" d="M41.043,11.783l1.08-1.186A2.635,2.635,0,0,1,46.284,13.8l-3.9,4.9a1.039,1.039,0,0,0,.871,1.6h4" transform="translate(24.224 5.745)" fill="none" stroke="#fff" stroke-linecap="round" stroke-linejoin="round" stroke-width="2"/>
        <line id="Línea_720" data-name="Línea 720" x2="20.393" transform="translate(53.553 30.951)" fill="none" stroke="#fff" stroke-linecap="round" stroke-linejoin="round" stroke-width="2"/>
        <path id="Trazado_987102" data-name="Trazado 987102" d="M38.5,22.545h5.051s-2.711,5.893-2.525,9.354" transform="translate(22.723 13.307)" fill="none" stroke="#fff" stroke-linecap="round" stroke-linejoin="round" stroke-width="2"/>
        <line id="Línea_721" data-name="Línea 721" y2="5.884" transform="translate(6.922 27.864)" fill="none" stroke="#fff" stroke-linecap="round" stroke-linejoin="round" stroke-width="2"/>
        <path id="Trazado_987103" data-name="Trazado 987103" d="M55.613,27.158h0a2.525,2.525,0,0,1-2.525-2.525V18.458a2.525,2.525,0,1,1,5.051,0v6.175A2.525,2.525,0,0,1,55.613,27.158Z" transform="translate(31.333 9.405)" fill="none" stroke="#fff" stroke-linecap="round" stroke-linejoin="round" stroke-width="2"/>
      </g>
    </g>
    <path id="Trazado_987199" data-name="Trazado 987199" d="M34.5,0C53.554,0,69,15.67,69,35S53.554,70,34.5,70,0,54.33,0,35,15.446,0,34.5,0Z" transform="translate(504 1039)" fill="#2a5673"/>
    <path id="Trazado_987200" data-name="Trazado 987200" d="M34.5,0C53.554,0,69,15.67,69,35S53.554,70,34.5,70,0,54.33,0,35,15.446,0,34.5,0Z" transform="translate(1027 1039)" fill="#886c12"/>
  </g>
</svg>
