<svg xmlns="http://www.w3.org/2000/svg" xmlns:xlink="http://www.w3.org/1999/xlink" width="108" height="108" viewBox="0 0 108 108">
  <defs>
    <filter id="Trazado_904820" x="0" y="0" width="108" height="108" filterUnits="userSpaceOnUse">
      <feOffset dy="3" input="SourceAlpha"/>
      <feGaussianBlur stdDeviation="3" result="blur"/>
      <feFlood flood-opacity="0.161"/>
      <feComposite operator="in" in2="blur"/>
      <feComposite in="SourceGraphic"/>
    </filter>
    <clipPath id="clip-path">
      <rect id="Rectángulo_408523" data-name="Rectángulo 408523" width="60" height="60" fill="none"/>
    </clipPath>
  </defs>
  <g id="Grupo_1150897" data-name="Grupo 1150897" transform="translate(9 6)">
    <g transform="matrix(1, 0, 0, 1, -9, -6)" filter="url(#Trazado_904820)">
      <g id="Trazado_904820-2" data-name="Trazado 904820" transform="translate(9 6)" fill="#ecf4fa">
        <path d="M 45 88.5 C 39.12687683105469 88.5 33.43022537231445 87.35007476806641 28.06830024719238 85.08217620849609 C 22.88852500915527 82.89131164550781 18.23629951477051 79.75458526611328 14.2408504486084 75.75914764404297 C 10.24541282653809 71.76370239257812 7.108687400817871 67.11147308349609 4.917825222015381 61.93170166015625 C 2.649924993515015 56.56977462768555 1.5 50.87312316894531 1.5 45 C 1.5 39.12687683105469 2.649924993515015 33.43022537231445 4.917825222015381 28.06830024719238 C 7.108687400817871 22.88852500915527 10.24541282653809 18.23629951477051 14.2408504486084 14.2408504486084 C 18.23629951477051 10.24541282653809 22.88852500915527 7.108687400817871 28.06830024719238 4.917825222015381 C 33.43022537231445 2.649924993515015 39.12687683105469 1.5 45 1.5 C 50.87312316894531 1.5 56.56977462768555 2.649924993515015 61.93170166015625 4.917825222015381 C 67.11147308349609 7.108687400817871 71.76370239257812 10.24541282653809 75.75914764404297 14.2408504486084 C 79.75458526611328 18.23629951477051 82.89131164550781 22.88852500915527 85.08217620849609 28.06830024719238 C 87.35007476806641 33.43022537231445 88.5 39.12687683105469 88.5 45 C 88.5 50.87312316894531 87.35007476806641 56.56977462768555 85.08217620849609 61.93170166015625 C 82.89131164550781 67.11147308349609 79.75458526611328 71.76370239257812 75.75914764404297 75.75914764404297 C 71.76370239257812 79.75458526611328 67.11147308349609 82.89131164550781 61.93170166015625 85.08217620849609 C 56.56977462768555 87.35007476806641 50.87312316894531 88.5 45 88.5 Z" stroke="none"/>
        <path d="M 45 3 C 39.32871246337891 3 33.82865524291992 4.110054016113281 28.65262985229492 6.299339294433594 C 23.65165710449219 8.414573669433594 19.15968322753906 11.44334411621094 15.301513671875 15.301513671875 C 11.44334411621094 19.15968322753906 8.414573669433594 23.65165710449219 6.299339294433594 28.65262985229492 C 4.110054016113281 33.82865524291992 3 39.32871246337891 3 45 C 3 50.67128753662109 4.110054016113281 56.17134475708008 6.299339294433594 61.34737396240234 C 8.414573669433594 66.34834289550781 11.44334411621094 70.84031677246094 15.301513671875 74.698486328125 C 19.15968322753906 78.55665588378906 23.65165710449219 81.58542633056641 28.65262985229492 83.70066070556641 C 33.82865524291992 85.88994598388672 39.32871246337891 87 45 87 C 50.67128753662109 87 56.17134475708008 85.88994598388672 61.34737396240234 83.70066070556641 C 66.34834289550781 81.58542633056641 70.84031677246094 78.55665588378906 74.698486328125 74.698486328125 C 78.55665588378906 70.84031677246094 81.58542633056641 66.34834289550781 83.70066070556641 61.34737396240234 C 85.88994598388672 56.17134475708008 87 50.67128753662109 87 45 C 87 39.32871246337891 85.88994598388672 33.82865524291992 83.70066070556641 28.65262985229492 C 81.58542633056641 23.65165710449219 78.55665588378906 19.15968322753906 74.698486328125 15.301513671875 C 70.84031677246094 11.44334411621094 66.34834289550781 8.414573669433594 61.34737396240234 6.299339294433594 C 56.17134475708008 4.110054016113281 50.67128753662109 3 45 3 M 45 0 C 69.85281372070312 0 90 20.14718627929688 90 45 C 90 69.85281372070312 69.85281372070312 90 45 90 C 20.14718627929688 90 0 69.85281372070312 0 45 C 0 20.14718627929688 20.14718627929688 0 45 0 Z" stroke="none" fill="#2a5673"/>
      </g>
    </g>
    <g id="Grupo_1151216" data-name="Grupo 1151216" transform="translate(11 15)">
      <g id="Grupo_1151197" data-name="Grupo 1151197" clip-path="url(#clip-path)">
        <path id="Trazado_987126" data-name="Trazado 987126" d="M49,21v8l-6.63.66a17.894,17.894,0,0,1-1.79,4.33l4.22,5.15L39.14,44.8l-5.15-4.22a17.894,17.894,0,0,1-4.33,1.79L29,49H21l-.66-6.63a17.894,17.894,0,0,1-4.33-1.79L10.86,44.8,5.2,39.14l4.22-5.15a17.894,17.894,0,0,1-1.79-4.33L1,29V21l6.63-.66a17.894,17.894,0,0,1,1.79-4.33L5.2,10.86,10.86,5.2l5.15,4.22a17.894,17.894,0,0,1,4.33-1.79L21,1h8l.66,6.63a17.894,17.894,0,0,1,4.33,1.79L39.14,5.2l5.66,5.66-4.22,5.15a17.894,17.894,0,0,1,1.79,4.33Z" fill="#ff9811"/>
        <path id="Trazado_987127" data-name="Trazado 987127" d="M25,15A10,10,0,1,1,15,25,10,10,0,0,1,25,15" fill="#ee8700"/>
        <path id="Trazado_987128" data-name="Trazado 987128" d="M59,23V57a2.006,2.006,0,0,1-2,2H35a2.006,2.006,0,0,1-2-2V23a2.006,2.006,0,0,1,2-2H57a2.006,2.006,0,0,1,2,2" fill="#5aaae7"/>
        <path id="Trazado_987129" data-name="Trazado 987129" d="M57,28v6a1,1,0,0,1-1,1H40a1,1,0,0,1-1-1V28a1,1,0,0,1,1-1H56a1,1,0,0,1,1,1" fill="#3d9ae2"/>
        <path id="Trazado_987130" data-name="Trazado 987130" d="M56,39H40a1,1,0,0,0-1,1V56a1,1,0,0,0,1,1H56a1,1,0,0,0,1-1V40a1,1,0,0,0-1-1" fill="#3d9ae2"/>
        <rect id="Rectángulo_408509" data-name="Rectángulo 408509" width="6" height="6" transform="translate(49 43)" fill="#329bed"/>
        <path id="Trazado_987131" data-name="Trazado 987131" d="M55,49v5a1,1,0,0,1-1,1H49V49Z" fill="#158be6"/>
        <rect id="Rectángulo_408510" data-name="Rectángulo 408510" width="6" height="6" transform="translate(37 43)" fill="#329bed"/>
        <rect id="Rectángulo_408511" data-name="Rectángulo 408511" width="6" height="6" transform="translate(43 37)" fill="#329bed"/>
        <path id="Trazado_987132" data-name="Trazado 987132" d="M43,49v6H38a1,1,0,0,1-1-1V49Z" fill="#158be6"/>
        <rect id="Rectángulo_408512" data-name="Rectángulo 408512" width="6" height="6" transform="translate(43 43)" fill="#158be6"/>
        <rect id="Rectángulo_408513" data-name="Rectángulo 408513" width="6" height="6" transform="translate(43 49)" fill="#329bed"/>
        <path id="Trazado_987133" data-name="Trazado 987133" d="M55,38v5H49V37h5a1,1,0,0,1,1,1" fill="#158be6"/>
        <path id="Trazado_987134" data-name="Trazado 987134" d="M43,37v6H37V38a1,1,0,0,1,1-1Z" fill="#158be6"/>
        <path id="Trazado_987135" data-name="Trazado 987135" d="M55,26v6a1,1,0,0,1-1,1H38a1,1,0,0,1-1-1V26a1,1,0,0,1,1-1H54a1,1,0,0,1,1,1" fill="#c2dff6"/>
        <path id="Trazado_987136" data-name="Trazado 987136" d="M54,36H38a2,2,0,0,0-2,2V54a2,2,0,0,0,2,2H54a2,2,0,0,0,2-2V38a2,2,0,0,0-2-2m0,6H50V38h4ZM44,44h4v4H44Zm4,10H44V50h4Zm-6-6H38V44h4Zm2-10h4v4H44Zm6,6h4v4H50Zm-8-2H38V38h4Zm-4,8h4v4H38Zm12,4V50h4v4Z"/>
        <path id="Trazado_987137" data-name="Trazado 987137" d="M57,20H49.05l-5.91-.59a18.535,18.535,0,0,0-1.36-3.29l3.79-4.63a1,1,0,0,0-.06-1.34L39.85,4.49a1,1,0,0,0-1.34-.06L33.88,8.22a18.535,18.535,0,0,0-3.29-1.36L30,.9A1.015,1.015,0,0,0,29,0H21a1.015,1.015,0,0,0-1,.9l-.59,5.96a18.535,18.535,0,0,0-3.29,1.36L11.49,4.43a1,1,0,0,0-1.34.06L4.49,10.15a1,1,0,0,0-.06,1.34l3.79,4.63a18.535,18.535,0,0,0-1.36,3.29L.9,20A1.015,1.015,0,0,0,0,21v8a1.015,1.015,0,0,0,.9,1l5.96.59a18.535,18.535,0,0,0,1.36,3.29L4.43,38.51a1,1,0,0,0,.06,1.34l5.66,5.66a1,1,0,0,0,1.34.06l4.63-3.79a18.535,18.535,0,0,0,3.29,1.36L20,49.1a1.015,1.015,0,0,0,1,.9h8a1.015,1.015,0,0,0,1-.9l.59-5.96c.48-.14.95-.31,1.41-.49V57a3.009,3.009,0,0,0,3,3H57a3.009,3.009,0,0,0,3-3V23a3.009,3.009,0,0,0-3-3M32,23v7.63A8.993,8.993,0,1,1,25,16a8.933,8.933,0,0,1,7.94,4.83A2.988,2.988,0,0,0,32,23m-7-9a11,11,0,1,0,7,19.47v6.99a17.074,17.074,0,0,1-2.6.94,1,1,0,0,0-.73.87L28.09,48H21.91l-.58-5.73a1,1,0,0,0-.73-.87,16.492,16.492,0,0,1-4.09-1.69,1,1,0,0,0-1.13.1l-4.45,3.64L6.55,39.07l3.64-4.45a1,1,0,0,0,.1-1.13A16.492,16.492,0,0,1,8.6,29.4a1,1,0,0,0-.87-.73L2,28.09V21.91l5.73-.58a1,1,0,0,0,.87-.73,16.492,16.492,0,0,1,1.69-4.09,1,1,0,0,0-.1-1.13L6.55,10.93l4.38-4.38,4.45,3.64a.981.981,0,0,0,1.13.1A16.492,16.492,0,0,1,20.6,8.6a1,1,0,0,0,.73-.87L21.91,2h6.18l.58,5.73a1,1,0,0,0,.73.87,16.492,16.492,0,0,1,4.09,1.69,1,1,0,0,0,1.13-.1l4.45-3.64,4.38,4.38-3.64,4.45a1,1,0,0,0-.1,1.13A16.37,16.37,0,0,1,41.22,20H35c-.07,0-.13.02-.19.02A10.967,10.967,0,0,0,25,14M58,57a1,1,0,0,1-1,1H35a1,1,0,0,1-1-1V23a1,1,0,0,1,1-1H57a1,1,0,0,1,1,1Z"/>
        <path id="Trazado_987138" data-name="Trazado 987138" d="M54,24H38a2,2,0,0,0-2,2v6a2,2,0,0,0,2,2H54a2,2,0,0,0,2-2V26a2,2,0,0,0-2-2m0,8H38V26H54Z"/>
        <rect id="Rectángulo_408514" data-name="Rectángulo 408514" width="2" height="2" transform="translate(49 28)"/>
        <rect id="Rectángulo_408515" data-name="Rectángulo 408515" width="2" height="2" transform="translate(45 28)"/>
        <rect id="Rectángulo_408516" data-name="Rectángulo 408516" width="2" height="2" transform="translate(41 28)"/>
        <rect id="Rectángulo_408517" data-name="Rectángulo 408517" width="2" height="4" transform="translate(24 6)"/>
        <rect id="Rectángulo_408518" data-name="Rectángulo 408518" width="2" height="4" transform="matrix(0.707, -0.707, 0.707, 0.707, 10.858, 12.273)"/>
        <rect id="Rectángulo_408519" data-name="Rectángulo 408519" width="4" height="2" transform="translate(6 24)"/>
        <rect id="Rectángulo_408520" data-name="Rectángulo 408520" width="4" height="2" transform="translate(10.858 37.728) rotate(-45)"/>
        <rect id="Rectángulo_408521" data-name="Rectángulo 408521" width="2" height="4" transform="translate(24 40)"/>
        <rect id="Rectángulo_408522" data-name="Rectángulo 408522" width="4" height="2" transform="translate(34.899 13.687) rotate(-45)"/>
      </g>
    </g>
  </g>
</svg>
