<svg id="Grupo_1151181" data-name="Grupo 1151181" xmlns="http://www.w3.org/2000/svg" xmlns:xlink="http://www.w3.org/1999/xlink" width="440" height="378.67" viewBox="0 0 440 378.67">
  <defs>
    <clipPath id="clip-path">
      <rect id="Rectángulo_408438" data-name="Rectángulo 408438" width="440" height="378.67" fill="none"/>
    </clipPath>
    <clipPath id="clip-path-3">
      <rect id="Rectángulo_408425" data-name="Rectángulo 408425" width="435.87" height="378.67" fill="none"/>
    </clipPath>
    <clipPath id="clip-path-4">
      <rect id="Rectángulo_408426" data-name="Rectángulo 408426" width="148.714" height="68.197" fill="none"/>
    </clipPath>
    <clipPath id="clip-path-5">
      <rect id="Rectángulo_408427" data-name="Rectángulo 408427" width="157.06" height="67.27" fill="none"/>
    </clipPath>
    <clipPath id="clip-path-6">
      <rect id="Rectángulo_408430" data-name="Rectángulo 408430" width="15.637" height="23.003" fill="none"/>
    </clipPath>
    <clipPath id="clip-path-7">
      <rect id="Rectángulo_408432" data-name="Rectángulo 408432" width="136.454" height="33.501" fill="none"/>
    </clipPath>
    <clipPath id="clip-path-8">
      <rect id="Rectángulo_408433" data-name="Rectángulo 408433" width="130.265" height="85.151" fill="none"/>
    </clipPath>
    <clipPath id="clip-path-9">
      <rect id="Rectángulo_408435" data-name="Rectángulo 408435" width="38.009" height="40.754" fill="none"/>
    </clipPath>
    <clipPath id="clip-path-10">
      <rect id="Rectángulo_408436" data-name="Rectángulo 408436" width="122.689" height="31.769" fill="none"/>
    </clipPath>
  </defs>
  <g id="Grupo_1151180" data-name="Grupo 1151180" clip-path="url(#clip-path)">
    <g id="Grupo_1151179" data-name="Grupo 1151179">
      <g id="Grupo_1151178" data-name="Grupo 1151178" clip-path="url(#clip-path)">
        <g id="Grupo_1151156" data-name="Grupo 1151156" transform="translate(4.13)" opacity="0.09">
          <g id="Grupo_1151155" data-name="Grupo 1151155">
            <g id="Grupo_1151154" data-name="Grupo 1151154" clip-path="url(#clip-path-3)">
              <path id="Trazado_986929" data-name="Trazado 986929" d="M28.223,205.489s22.877-37.021-7.7-71.43-16.145-76.4,14.6-81.6,79.774,6.573,99.113-19.914,52.193-41.2,86.68-27.077,30.03,41.263,46.679,50.061,25.148,14.235,57.686,3.571,76.685,8.437,69.032,68.931,18.836,82.9,18.836,82.9,51.8,49.122,10.006,99.294-93.6,1.318-128.322,18.387-36.366,55.329-100.586,49.442-57.6-65.615-100.052-67.829S-7.663,274.246,28.223,205.489" transform="translate(-3.583 0)" fill="#fc611f"/>
            </g>
          </g>
        </g>
        <path id="Trazado_986930" data-name="Trazado 986930" d="M305.362,184.132c7.861-10.148,15.354-20.57,22.692-31.1,7.117-10.212,15.4-20.407,20.415-31.865.2-.445-.462-.835-.658-.385-4.829,11.028-12.731,20.819-19.572,30.652-7.573,10.888-15.294,21.673-23.417,32.159-.3.384.239.927.539.539" transform="translate(46.53 18.412)" fill="#184f78"/>
        <path id="Trazado_986931" data-name="Trazado 986931" d="M342.073,121.618c2.068,12.4,5.2,24.654,7.95,36.918,2.772,12.349,5.609,24.684,9.076,36.86a.382.382,0,0,0,.735-.2c-3.467-12.176-6.3-24.511-9.076-36.86-2.754-12.265-5.881-24.515-7.951-36.918-.081-.483-.816-.278-.734.2" transform="translate(52.23 18.497)" fill="#184f78"/>
        <path id="Trazado_986932" data-name="Trazado 986932" d="M304.528,176.342c2.74,3.64,7.427,5.572,11.485,7.365a61.289,61.289,0,0,0,15.358,4.855c5.289.8,10.805.646,16.14.79,5.82.159,11.565.093,17.236-1.352a.382.382,0,0,0-.2-.737c-9.548,2.433-20.517,1.647-30.274.851a51.819,51.819,0,0,1-14.094-3.521c-4.875-1.845-11.742-4.32-14.991-8.635-.292-.387-.954-.008-.658.385" transform="translate(46.487 26.842)" fill="#184f78"/>
        <path id="Trazado_986933" data-name="Trazado 986933" d="M309.508,173.6a20.965,20.965,0,0,0,3.079-.1c.483-.052.489-.815,0-.763a20.965,20.965,0,0,1-3.079.1c-.491-.02-.49.743,0,.763" transform="translate(47.202 26.374)" fill="#184f78"/>
        <path id="Trazado_986934" data-name="Trazado 986934" d="M316.9,173.3l5.229.652c.486.061.482-.7,0-.763l-5.229-.652c-.486-.061-.482.7,0,.763" transform="translate(48.332 26.344)" fill="#184f78"/>
        <path id="Trazado_986935" data-name="Trazado 986935" d="M326.152,173.892l5.011,1.007c.48.1.685-.64.2-.737l-5.012-1.006c-.48-.1-.685.639-.2.735" transform="translate(49.758 26.438)" fill="#184f78"/>
        <path id="Trazado_986936" data-name="Trazado 986936" d="M335.938,175.431a27.117,27.117,0,0,0,3.687,1.154c.477.113.681-.622.2-.735a27.117,27.117,0,0,1-3.687-1.154c-.458-.18-.656.558-.2.735" transform="translate(51.255 26.67)" fill="#184f78"/>
        <path id="Trazado_986937" data-name="Trazado 986937" d="M343.949,177.892c1.005.435,2.026.823,3.071,1.158.468.151.669-.586.2-.735-.979-.315-1.942-.673-2.887-1.082-.446-.193-.835.465-.385.659" transform="translate(52.487 27.056)" fill="#184f78"/>
        <path id="Trazado_986938" data-name="Trazado 986938" d="M351.063,180.576a29.846,29.846,0,0,0,3.094,1.613c.445.2.833-.458.385-.659a29.837,29.837,0,0,1-3.094-1.613.382.382,0,0,0-.385.659" transform="translate(53.576 27.463)" fill="#184f78"/>
        <path id="Trazado_986939" data-name="Trazado 986939" d="M330.226,181.189c5.338,1.1,10.825,1.081,16.145,2.3,4.946,1.137,9.708,2.826,14.76,3.487.485.063.481-.7,0-.763-5.436-.71-10.546-2.66-15.9-3.755-4.892-1-9.915-1-14.806-2.008-.48-.1-.685.636-.2.735" transform="translate(50.38 27.552)" fill="#184f78"/>
        <g id="Grupo_1151159" data-name="Grupo 1151159" transform="translate(8.029 169.368)" opacity="0.12">
          <g id="Grupo_1151158" data-name="Grupo 1151158">
            <g id="Grupo_1151157" data-name="Grupo 1151157" clip-path="url(#clip-path-4)">
              <path id="Trazado_986940" data-name="Trazado 986940" d="M139.83,197.224a3.1,3.1,0,0,1-3.009-2.619,56.1,56.1,0,0,0-110.572-2.068,3.094,3.094,0,0,1-3.1,2.5l-12.8-.24a3.113,3.113,0,0,0-3.171,3.053L6.966,209.3a3.112,3.112,0,0,0,3.053,3.171l142.275,2.66a3.112,3.112,0,0,0,3.17-3.053l.214-11.443a3.113,3.113,0,0,0-3.053-3.171ZM82.063,165.383a37.728,37.728,0,0,1,35.535,27.4,3.12,3.12,0,0,1-3.062,3.964l-66.1-1.236a3.121,3.121,0,0,1-2.912-4.076,37.729,37.729,0,0,1,36.535-26.055" transform="translate(-6.965 -146.933)" fill="#184f78"/>
            </g>
          </g>
        </g>
        <path id="Trazado_986941" data-name="Trazado 986941" d="M91.413,28.015A919.5,919.5,0,0,1,108.088,130.6c.055.526.867.4.812-.124A919.762,919.762,0,0,0,92.225,27.891c-.114-.513-.926-.392-.811.124" transform="translate(13.956 4.208)" fill="#184f78"/>
        <path id="Trazado_986942" data-name="Trazado 986942" d="M44.88,86.118c51.31-6.93,103.133-14.049,151.788-32.576.493-.188.158-.936-.335-.749C147.746,71.294,95.991,78.387,44.755,85.307a.411.411,0,0,0,.124.811" transform="translate(6.782 8.056)" fill="#184f78"/>
        <path id="Trazado_986943" data-name="Trazado 986943" d="M95.232,24.9l2.106,2.735c.323.418.961-.1.639-.516l-2.107-2.735c-.322-.42-.96.1-.637.516" transform="translate(14.527 3.7)" fill="#184f78"/>
        <path id="Trazado_986944" data-name="Trazado 986944" d="M97.5,23.57a11.282,11.282,0,0,1-1.352,7.437c-.259.453.4.944.662.485a12.187,12.187,0,0,0,1.5-8.047.411.411,0,0,0-.811.124" transform="translate(14.672 3.529)" fill="#184f78"/>
        <path id="Trazado_986945" data-name="Trazado 986945" d="M171.965,60.4a12.155,12.155,0,0,0,5.361,2.642c.516.113.607-.7.1-.815a11.349,11.349,0,0,1-4.973-2.489c-.4-.344-.884.32-.484.662" transform="translate(26.234 9.106)" fill="#184f78"/>
        <path id="Trazado_986946" data-name="Trazado 986946" d="M175.62,59.345a18.483,18.483,0,0,1-2.849,4.818c-.334.409.329.893.662.485a19.192,19.192,0,0,0,2.951-5,.411.411,0,0,0-.763-.3" transform="translate(26.366 9.023)" fill="#184f78"/>
        <path id="Trazado_986947" data-name="Trazado 986947" d="M172.748,51.53a17.457,17.457,0,0,1,4.381,2.232c-.029-.191-.059-.383-.088-.574a8.46,8.46,0,0,0-1.593,3.113c-.139.5.624.81.763.3a7.926,7.926,0,0,1,1.492-2.929.415.415,0,0,0-.089-.574,18.225,18.225,0,0,0-4.565-2.333c-.5-.172-.8.59-.3.763" transform="translate(26.338 7.748)" fill="#184f78"/>
        <path id="Trazado_986948" data-name="Trazado 986948" d="M91.046,30.731q.168-.686.337-1.372c.065-.264.165-.554.2-.824.022-.091.045-.183.067-.274q-.2-.358.027-.151c.307.058.78.594,1.02.792q.607.5,1.171,1.052c.375.362,1.018-.15.637-.518-.52-.5-1.056-.99-1.624-1.441-.35-.28-.882-.88-1.39-.8-.418.067-.534.483-.622.83-.222.867-.426,1.738-.639,2.607-.126.513.69.6.815.1" transform="translate(13.775 4.152)" fill="#184f78"/>
        <path id="Trazado_986949" data-name="Trazado 986949" d="M80.291,91.469a282.23,282.23,0,0,1,6.8-27.95,113.79,113.79,0,0,1,4.886-12.871,57.064,57.064,0,0,1,3.608-7.066c1.157-1.812,1.958-3.217,4.841-2.436a11.06,11.06,0,0,1,3.524,2.334c13.09,10.908,20.292,27.119,32.818,38.6.39.356.871-.308.485-.662-7.571-6.943-13.231-15.507-19.361-23.672a105.679,105.679,0,0,0-9.515-11.291c-2.317-2.324-5.706-6.354-9.266-6.393-3.278-.037-4.613,3.692-5.89,6.15a103.119,103.119,0,0,0-6.181,14.811c-3.316,9.9-5.448,20.139-7.564,30.345-.107.518.71.61.816.1" transform="translate(12.134 6.118)" fill="#184f78"/>
        <path id="Trazado_986950" data-name="Trazado 986950" d="M220.125,71.276q8.175-10.028,15.611-20.623l-.829-.244a71.807,71.807,0,0,1-1.5,13.317c-.772,3.435-1.5,6.818-.815,10.334.111.565.98.35.869-.214-.8-4.11.48-8.037,1.281-12.033A70.833,70.833,0,0,0,235.8,50.425a.451.451,0,0,0-.828-.244q-7.435,10.59-15.611,20.623c-.363.446.4.913.761.473" transform="translate(33.48 7.632)" fill="#fc611f"/>
        <path id="Trazado_986951" data-name="Trazado 986951" d="M224.316,61.628a90.912,90.912,0,0,1,8.975,1.888c.557.146.813-.712.254-.859a90.919,90.919,0,0,0-8.975-1.888c-.561-.089-.822.769-.254.859" transform="translate(34.202 9.278)" fill="#fc611f"/>
        <path id="Trazado_986952" data-name="Trazado 986952" d="M237.508,62.3q4.354,1.209,8.652,2.6c.549.178.8-.681.254-.86q-4.3-1.394-8.652-2.6a.448.448,0,0,0-.254.859" transform="translate(36.217 9.379)" fill="#fc611f"/>
        <path id="Trazado_986953" data-name="Trazado 986953" d="M237.211,66.26l9.858,2.766a.449.449,0,0,0,.255-.86L237.465,65.4a.448.448,0,0,0-.254.859" transform="translate(36.172 9.983)" fill="#fc611f"/>
        <path id="Trazado_986954" data-name="Trazado 986954" d="M253.835,62.565q2.127,5.682,4.255,11.362c.12.323.618.508.815.13,2.211-4.246,4.406-8.5,6.631-12.738.808-1.537,1.757-2.647,3.687-2.2,1.154.269,2.3.632,3.434.96,2.285.658,4.558,1.352,6.831,2.048,8.923,2.738,17.874,5.233,26.967,7.346,18.209,4.232,36.684,7.747,54.042,14.9.533.219.783-.642.254-.86-14.606-6.019-30.033-9.482-45.4-12.934-7.632-1.715-15.266-3.44-22.812-5.51-7.587-2.082-15.028-4.675-22.631-6.694-3.066-.813-3.965.221-5.339,2.863l-6.425,12.34.815.129-4.253-11.362c-.2-.534-1.073-.326-.87.214" transform="translate(38.753 8.873)" fill="#fc611f"/>
        <path id="Trazado_986955" data-name="Trazado 986955" d="M267.575,66.244q.014-2.077,2.752.179l-.43,1.049a6.538,6.538,0,0,1-2.09,2.084c-1.221.855-2.561,1.562-3.847,2.315-.3.176-.32.753.086.823,2.294.393,3.521,2.692,6.014,2.356.569-.077.353-.946-.214-.87-2.1.284-3.566-2.006-5.546-2.345.029.274.059.549.088.823,2.618-1.532,7.484-3.619,6.9-7.452-.164-1.067-1-2.251-2.206-2.137-1.414.135-2.172,1.714-2.363,2.922-.089.561.769.822.859.254" transform="translate(40.27 9.629)" fill="#fc611f"/>
        <path id="Trazado_986956" data-name="Trazado 986956" d="M277.659,65.294c-.893.841-4.037,2.7-3.2,4.287.4.757,1.562.761,2.143,1.261,1.607,1.386.249,3.1-1.235,3.629a8.2,8.2,0,0,1-2.855.248.448.448,0,0,0-.016.9c2.21.036,5.126-.259,5.675-2.885a2.4,2.4,0,0,0-.613-2.267,9.433,9.433,0,0,0-1.041-.659,1.016,1.016,0,0,1-.592-.618q-.882-.462-.2-.836c.288-.761,1.958-1.844,2.55-2.4a.448.448,0,0,0-.613-.652" transform="translate(41.542 9.951)" fill="#fc611f"/>
        <path id="Trazado_986957" data-name="Trazado 986957" d="M276.951,65.989a31.775,31.775,0,0,0,5.067,1.143c.568.082.581-.814.016-.9a30.409,30.409,0,0,1-4.83-1.107.448.448,0,0,0-.254.859" transform="translate(42.241 9.941)" fill="#fc611f"/>
        <path id="Trazado_986958" data-name="Trazado 986958" d="M285.026,74.628q4.039.932,8.143,1.5c.568.08.582-.816.016-.9q-3.987-.557-7.905-1.465c-.559-.129-.816.729-.254.859" transform="translate(43.472 11.262)" fill="#fc611f"/>
        <path id="Trazado_986959" data-name="Trazado 986959" d="M289.716,72.974q-.972,3.292-1.945,6.584a.448.448,0,0,0,.859.254q.972-3.292,1.945-6.584a.448.448,0,0,0-.859-.254" transform="translate(43.936 11.095)" fill="#fc611f"/>
        <path id="Trazado_986960" data-name="Trazado 986960" d="M301.283,72.084q-1.689,5.718-3.377,11.436a.448.448,0,0,0,.859.254l3.377-11.436a.448.448,0,0,0-.859-.254" transform="translate(45.484 10.959)" fill="#fc611f"/>
        <path id="Trazado_986961" data-name="Trazado 986961" d="M310.73,73.856c-2.484-.017-4.244,2.182-4.771,4.455-.4,1.749-.236,5.476,1.732,6.422,2.128,1.02,4.56-3.43,5.143-4.84a5.124,5.124,0,0,0-1.4-6.219c-.46-.349-.928.415-.473.761,1.837,1.4,1.735,3.815.785,5.686-.642,1.265-2.553,4.868-4.326,2.937-2.263-2.463-.095-8.329,3.29-8.306a.448.448,0,0,0,.016-.9" transform="translate(46.689 11.236)" fill="#fc611f"/>
        <path id="Trazado_986962" data-name="Trazado 986962" d="M314.765,82.388a.448.448,0,0,0,.254-.859.448.448,0,0,0-.254.859" transform="translate(48.014 12.446)" fill="#fc611f"/>
        <path id="Trazado_986963" data-name="Trazado 986963" d="M319.534,81.908q.937,3.963,1.872,7.926a.453.453,0,0,0,.816.129q1.478-3.041,2.958-6.082c1.192-2.452,1.97-5.912,5.43-5.54,2.082.225,4.346,1.275,6.356,1.871l6.493,1.923a.448.448,0,0,0,.254-.859l-8.522-2.523c-1.868-.553-4.6-1.962-6.6-1.333-1.648.518-2.369,2.3-3.059,3.707-1.363,2.784-2.711,5.574-4.067,8.363l.815.129q-.937-3.963-1.872-7.926a.448.448,0,0,0-.87.214" transform="translate(48.787 11.797)" fill="#fc611f"/>
        <path id="Trazado_986964" data-name="Trazado 986964" d="M333.533,81.817c-1.271.875-2.605,1.7-3.833,2.639-.421.32-.854.528-.763,1.12.063.415.416.589.7.846.6.537,1.842,1.736,1.541,2.734-.385,1.276-2.5.75-3.4.571-.56-.111-.82.747-.254.859,1.829.363,4.861.74,4.507-1.943a5.49,5.49,0,0,0-1.4-2.591c-.095-.134-.492-.247-.518-.39-.1-.546.848-.992,1.194-1.231q1.328-.913,2.654-1.827c.471-.324.047-1.113-.428-.786" transform="translate(49.961 12.481)" fill="#fc611f"/>
        <path id="Trazado_986965" data-name="Trazado 986965" d="M332.748,82.792l4.7.69c.568.083.581-.813.016-.9l-4.7-.69c-.568-.083-.581.813-.016.9" transform="translate(50.743 12.504)" fill="#fc611f"/>
        <path id="Trazado_986966" data-name="Trazado 986966" d="M253.546,74.928c33.06,7.931,64.885,20.662,98.511,26.266.561.093.822-.764.254-.859C318.684,94.731,286.859,82,253.8,74.069c-.558-.134-.815.724-.254.859" transform="translate(38.666 11.307)" fill="#fc611f"/>
        <path id="Trazado_986967" data-name="Trazado 986967" d="M297.2,89.7l-4.544,2.761c-.624.378-1.648.726-1.806,1.524a.464.464,0,0,0,.193.507c1.546.942,5.639,1.412,6.719-.451a.448.448,0,0,0-.761-.474,7.582,7.582,0,0,0-1.532,6.7.448.448,0,0,0,.87-.214,6.739,6.739,0,0,1,1.422-6.011L297,93.572c-.583,1.007-2.515.72-3.445.622-1.177-.124-1.493-.118-.47-.943a41.143,41.143,0,0,1,4.543-2.761c.492-.3.066-1.086-.428-.786" transform="translate(44.408 13.687)" fill="#fc611f"/>
        <path id="Trazado_986968" data-name="Trazado 986968" d="M349.565,97.015c-2.266-1.1-6.271,2.357-4.824,4.721a2.555,2.555,0,0,0,3.172.816,5.969,5.969,0,0,0,3.224-4.21l-.877-.135a7.893,7.893,0,0,0,1.629,5.752c.349.46,1-.158.654-.613a7.014,7.014,0,0,1-1.387-5.123c.054-.5-.756-.621-.877-.135-.421,1.688-1.731,4.013-3.767,3.666-2.669-.456.6-4.942,2.581-3.979.514.25.99-.508.473-.761" transform="translate(52.591 14.781)" fill="#fc611f"/>
        <path id="Trazado_986969" data-name="Trazado 986969" d="M354.845,96.069c.829-1.232,2.407.2,1.354,1.216-.5.485-1.1.74-1.49,1.35a.451.451,0,0,0,.254.665,5.535,5.535,0,0,1,2.219.984c.466.341.935-.422.473-.761a6.114,6.114,0,0,0-2.438-1.082c.084.222.169.444.254.666.448-.705,1.345-.95,1.775-1.682a1.884,1.884,0,0,0,.009-1.8,1.84,1.84,0,0,0-3.17-.03c-.323.478.439.95.761.473" transform="translate(54.053 14.461)" fill="#fc611f"/>
        <g id="Grupo_1151162" data-name="Grupo 1151162" transform="translate(102.46 246.111)" opacity="0.12">
          <g id="Grupo_1151161" data-name="Grupo 1151161">
            <g id="Grupo_1151160" data-name="Grupo 1151160" clip-path="url(#clip-path-5)">
              <path id="Trazado_986970" data-name="Trazado 986970" d="M214.94,213.789,90.906,267.682a3.351,3.351,0,0,0,1.187,6.42l150.35,6.674a3.351,3.351,0,0,0,3.222-4.683l-26.316-60.567a3.351,3.351,0,0,0-4.409-1.737m.452,47.992-49.555-4.486a1.262,1.262,0,0,1-.513-2.323l39.746-17.629a1.16,1.16,0,0,1,1.482.686l9.809,22.116a1.091,1.091,0,0,1-.969,1.637" transform="translate(-88.887 -213.51)" fill="#184f78"/>
            </g>
          </g>
        </g>
        <path id="Trazado_986971" data-name="Trazado 986971" d="M282.179,167.3H136.587a3.128,3.128,0,0,1-3.128-3.127V147.427a3.127,3.127,0,0,1,3.128-3.127H282.179a3.127,3.127,0,0,1,3.127,3.127v16.747a3.128,3.128,0,0,1-3.127,3.127" transform="translate(20.378 22.033)" fill="#184f78"/>
        <path id="Trazado_986972" data-name="Trazado 986972" d="M288.915,147.347H143.323a3.128,3.128,0,0,1-3.128-3.127V127.472a3.127,3.127,0,0,1,3.128-3.127H288.915a3.126,3.126,0,0,1,3.127,3.127V144.22a3.127,3.127,0,0,1-3.127,3.127" transform="translate(21.406 18.986)" fill="#fc611f"/>
        <path id="Trazado_986973" data-name="Trazado 986973" d="M267.127,127.325H121.535a3.127,3.127,0,0,1-3.127-3.127V107.45a3.126,3.126,0,0,1,3.127-3.127H267.127a3.126,3.126,0,0,1,3.127,3.127V124.2a3.127,3.127,0,0,1-3.127,3.127" transform="translate(18.08 15.929)" fill="#16b6c6"/>
        <rect id="Rectángulo_408428" data-name="Rectángulo 408428" width="15.637" height="23.002" transform="translate(158.08 120.252)" fill="#118995"/>
        <g id="Grupo_1151165" data-name="Grupo 1151165" transform="translate(187.906 143.33)" opacity="0.3">
          <g id="Grupo_1151164" data-name="Grupo 1151164">
            <g id="Grupo_1151163" data-name="Grupo 1151163" clip-path="url(#clip-path-6)">
              <rect id="Rectángulo_408429" data-name="Rectángulo 408429" width="15.637" height="23.002" transform="translate(0 0.001)" fill="#fff"/>
            </g>
          </g>
        </g>
        <rect id="Rectángulo_408431" data-name="Rectángulo 408431" width="15.637" height="23.002" transform="translate(173.062 166.333)" fill="#124768"/>
        <path id="Trazado_986974" data-name="Trazado 986974" d="M284.278,124.344H161.019l127.844,11.5v-6.917a4.584,4.584,0,0,0-4.584-4.584" transform="translate(24.586 18.986)" fill="#ea541f"/>
        <path id="Trazado_986975" data-name="Trazado 986975" d="M277.542,144.3H154.283l127.844,11.5v-6.917a4.584,4.584,0,0,0-4.584-4.584" transform="translate(23.557 22.033)" fill="#124768"/>
        <g id="Grupo_1151168" data-name="Grupo 1151168" transform="translate(153.838 185.114)" opacity="0.12">
          <g id="Grupo_1151167" data-name="Grupo 1151167">
            <g id="Grupo_1151166" data-name="Grupo 1151166" clip-path="url(#clip-path-7)">
              <path id="Trazado_986976" data-name="Trazado 986976" d="M135.225,160.593l-1.765,33.5,136.454-29.279" transform="translate(-133.46 -160.593)" fill="#184f78"/>
            </g>
          </g>
        </g>
        <path id="Trazado_986977" data-name="Trazado 986977" d="M200.825,195.676,87.811,269.951a3.351,3.351,0,0,0,2.265,6.124l149.284-19.09a3.351,3.351,0,0,0,2.375-5.164l-36.268-55.186a3.351,3.351,0,0,0-4.641-.959m8.637,47.211-49.593,4.039c-1.171.095-1.852-1.566-.9-2.2L195.12,220.57a1.158,1.158,0,0,1,1.577.422l13.44,20.117a1.091,1.091,0,0,1-.675,1.779" transform="translate(13.175 29.793)" fill="#fdc00f"/>
        <g id="Grupo_1151171" data-name="Grupo 1151171" transform="translate(255.464 185.114)" opacity="0.12">
          <g id="Grupo_1151170" data-name="Grupo 1151170">
            <g id="Grupo_1151169" data-name="Grupo 1151169" clip-path="url(#clip-path-8)">
              <path id="Trazado_986978" data-name="Trazado 986978" d="M350.565,177.09l-118.3,68.3a2.649,2.649,0,0,1-3.618-.969l-6.671-11.553a2.649,2.649,0,0,1,.969-3.618l118.3-68.3a2.65,2.65,0,0,1,3.618.969l6.671,11.555a2.648,2.648,0,0,1-.969,3.618" transform="translate(-221.624 -160.593)" fill="#184f78"/>
            </g>
          </g>
        </g>
        <path id="Trazado_986979" data-name="Trazado 986979" d="M324.97,141.6,234.358,243.82a2.647,2.647,0,0,1-3.738.225l-9.985-8.85a2.648,2.648,0,0,1-.225-3.738l90.612-102.218a2.648,2.648,0,0,1,3.738-.225l9.985,8.85a2.65,2.65,0,0,1,.225,3.739" transform="translate(33.553 19.597)" fill="#16b6c6"/>
        <path id="Trazado_986980" data-name="Trazado 986980" d="M326.569,304l-76.3-33.694a3.481,3.481,0,0,1-1.779-4.59l36.72-83.15a3.481,3.481,0,0,1,4.59-1.777l76.3,33.694a3.481,3.481,0,0,1,1.777,4.59l-36.72,83.15a3.481,3.481,0,0,1-4.59,1.777" transform="translate(37.897 27.559)" fill="#134768"/>
        <path id="Trazado_986981" data-name="Trazado 986981" d="M324.912,299.964,251.354,267.48a3.481,3.481,0,0,1-1.777-4.59l35.471-80.322a3.481,3.481,0,0,1,4.59-1.777l73.558,32.484a3.481,3.481,0,0,1,1.779,4.59L329.5,298.186a3.481,3.481,0,0,1-4.59,1.777" transform="translate(38.062 27.559)" fill="#25668e"/>
        <path id="Trazado_986982" data-name="Trazado 986982" d="M298.638,250.66c15.987,10.224,33.227,11.74,45.626,11l19.342-43.8a3.482,3.482,0,0,0-1.777-4.591L288.271,180.79a3.48,3.48,0,0,0-4.59,1.779l-25.457,57.645c7.418-1.6,21.341-1.754,40.414,10.446" transform="translate(39.428 27.559)" fill="#184f78"/>
        <rect id="Rectángulo_408434" data-name="Rectángulo 408434" width="13.503" height="73.756" transform="matrix(0.404, -0.915, 0.915, 0.404, 321.851, 229.831)" fill="#25668e"/>
        <path id="Trazado_986983" data-name="Trazado 986983" d="M279.093,225.218l-10.646-4.7a.477.477,0,0,1-.244-.631l4.38-9.92a.478.478,0,0,1,.631-.244l10.647,4.7a.479.479,0,0,1,.244.631l-4.381,9.92a.477.477,0,0,1-.631.244" transform="translate(40.945 32.016)" fill="#16b6c6"/>
        <path id="Trazado_986984" data-name="Trazado 986984" d="M292.3,231.05l-10.647-4.7a.478.478,0,0,1-.244-.631l4.38-9.92a.478.478,0,0,1,.63-.244l10.647,4.7a.48.48,0,0,1,.245.631l-4.381,9.92a.478.478,0,0,1-.631.244" transform="translate(42.962 32.906)" fill="#16b6c6"/>
        <path id="Trazado_986985" data-name="Trazado 986985" d="M305.508,236.883l-10.646-4.7a.477.477,0,0,1-.244-.631l4.38-9.92a.478.478,0,0,1,.631-.244l10.647,4.7a.479.479,0,0,1,.244.631l-4.381,9.92a.477.477,0,0,1-.63.244" transform="translate(44.979 33.797)" fill="#16b6c6"/>
        <path id="Trazado_986986" data-name="Trazado 986986" d="M318.715,242.715l-10.646-4.7a.478.478,0,0,1-.244-.631l4.38-9.92a.478.478,0,0,1,.63-.244l10.647,4.7a.479.479,0,0,1,.244.631l-4.381,9.92a.477.477,0,0,1-.63.244" transform="translate(46.995 34.688)" fill="#16b6c6"/>
        <path id="Trazado_986987" data-name="Trazado 986987" d="M331.922,248.548l-10.646-4.7a.478.478,0,0,1-.244-.631l4.38-9.92a.478.478,0,0,1,.631-.244l10.647,4.7a.479.479,0,0,1,.244.631l-4.381,9.92a.478.478,0,0,1-.631.244" transform="translate(49.012 35.578)" fill="#16b6c6"/>
        <path id="Trazado_986988" data-name="Trazado 986988" d="M271.929,241.441l-10.647-4.7a.478.478,0,0,1-.243-.631l4.38-9.92a.478.478,0,0,1,.631-.244l10.647,4.7a.479.479,0,0,1,.244.631l-4.381,9.92a.477.477,0,0,1-.631.244" transform="translate(39.852 34.493)" fill="#16b6c6"/>
        <path id="Trazado_986989" data-name="Trazado 986989" d="M285.136,247.273l-10.646-4.7a.478.478,0,0,1-.244-.631l4.38-9.92a.478.478,0,0,1,.631-.244l10.647,4.7a.479.479,0,0,1,.244.631l-4.381,9.92a.477.477,0,0,1-.631.244" transform="translate(41.868 35.384)" fill="#16b6c6"/>
        <path id="Trazado_986990" data-name="Trazado 986990" d="M298.343,253.106,287.7,248.4a.477.477,0,0,1-.244-.63l4.38-9.92a.478.478,0,0,1,.63-.244l10.647,4.7a.479.479,0,0,1,.244.631l-4.381,9.92a.477.477,0,0,1-.63.244" transform="translate(43.885 36.274)" fill="#16b6c6"/>
        <path id="Trazado_986991" data-name="Trazado 986991" d="M311.551,258.939l-10.647-4.7a.478.478,0,0,1-.243-.631l4.38-9.92a.478.478,0,0,1,.631-.244l10.647,4.7a.479.479,0,0,1,.244.631l-4.381,9.92a.478.478,0,0,1-.631.244" transform="translate(45.901 37.165)" fill="#16b6c6"/>
        <path id="Trazado_986992" data-name="Trazado 986992" d="M324.758,264.771l-10.646-4.7a.477.477,0,0,1-.244-.63l4.38-9.92a.478.478,0,0,1,.631-.244l10.647,4.7a.478.478,0,0,1,.244.631l-4.381,9.92a.477.477,0,0,1-.63.244" transform="translate(47.918 38.055)" fill="#16b6c6"/>
        <path id="Trazado_986993" data-name="Trazado 986993" d="M291.411,268.8l-10.647-4.7a.478.478,0,0,1-.243-.631l4.38-9.92a.478.478,0,0,1,.631-.244l10.647,4.7a.479.479,0,0,1,.244.631l-4.381,9.92a.477.477,0,0,1-.631.244" transform="translate(42.826 38.671)" fill="#16b6c6"/>
        <path id="Trazado_986994" data-name="Trazado 986994" d="M277.717,262.755l-23.622-10.432a.479.479,0,0,1-.244-.63l4.381-9.92a.478.478,0,0,1,.63-.244l23.622,10.432a.479.479,0,0,1,.244.631l-4.381,9.92a.477.477,0,0,1-.63.244" transform="translate(38.754 36.873)" fill="#fdc00f"/>
        <path id="Trazado_986995" data-name="Trazado 986995" d="M304.618,274.636l-10.646-4.7a.478.478,0,0,1-.244-.631l4.38-9.92a.478.478,0,0,1,.63-.244l10.647,4.7a.478.478,0,0,1,.244.631l-4.381,9.92a.478.478,0,0,1-.631.244" transform="translate(44.843 39.562)" fill="#16b6c6"/>
        <path id="Trazado_986996" data-name="Trazado 986996" d="M317.826,280.468l-10.646-4.7a.478.478,0,0,1-.244-.631l4.38-9.92a.478.478,0,0,1,.63-.244l10.647,4.7a.479.479,0,0,1,.244.631l-4.381,9.92a.477.477,0,0,1-.63.244" transform="translate(46.86 40.452)" fill="#16b6c6"/>
        <path id="Trazado_986997" data-name="Trazado 986997" d="M126.819,154.869a3.094,3.094,0,0,1-3.734-1.4A56.1,56.1,0,0,0,18.774,190.2a3.1,3.1,0,0,1-2.032,3.432L4.671,197.887a3.111,3.111,0,0,0-1.9,3.97l3.8,10.795a3.113,3.113,0,0,0,3.97,1.9l134.219-47.269a3.111,3.111,0,0,0,1.9-3.97l-3.8-10.795a3.112,3.112,0,0,0-3.97-1.9Zm-65.255-9.625a37.729,37.729,0,0,1,42.875,13.243,3.121,3.121,0,0,1-1.481,4.785L40.6,185.232a3.12,3.12,0,0,1-4.153-2.8,37.727,37.727,0,0,1,25.114-37.188" transform="translate(0.396 19.034)" fill="#fc611f"/>
        <path id="Trazado_986998" data-name="Trazado 986998" d="M2.019,239.653a68.613,68.613,0,0,0,2.327,12.576c.913,2.891,2.974,4.983,6.148,4.857.367-.015.273-.579-.091-.565-4.145.165-5.4-3.634-6.146-6.978a100.437,100.437,0,0,1-1.674-9.981c-.044-.365-.607-.273-.565.091" transform="translate(0.308 36.543)" fill="#184f78"/>
        <path id="Trazado_986999" data-name="Trazado 986999" d="M.246,246.158a31.808,31.808,0,0,0,6.885-.388.286.286,0,0,0-.091-.565,31.04,31.04,0,0,1-6.732.385c-.365-.018-.43.55-.062.568" transform="translate(0 37.439)" fill="#184f78"/>
        <path id="Trazado_987000" data-name="Trazado 987000" d="M15.26,245.877c-1.133-1.639-4.386-1.6-5.49.1-1.4,2.147-.159,5.727,1.8,7.056a3.34,3.34,0,0,0,5.234-1.788,8.475,8.475,0,0,0-.008-4.425c-.174-.8-.432-1.477-1.288-1.651a.287.287,0,0,0-.29.4,13.626,13.626,0,0,0,2.5,3.858,17.452,17.452,0,0,0,3.768,2.587c.317.179.655-.282.334-.463a18.1,18.1,0,0,1-3.51-2.356,12.669,12.669,0,0,1-2.577-3.861c-.1.134-.195.267-.292.4,1.345.273,1.112,4.07.916,4.907a2.841,2.841,0,0,1-4.653,1.792A5.224,5.224,0,0,1,9.9,247.614a2.356,2.356,0,0,1,2.037-2.218,2.658,2.658,0,0,1,2.877.844c.209.3.65-.061.441-.363" transform="translate(1.4 37.359)" fill="#184f78"/>
        <path id="Trazado_987001" data-name="Trazado 987001" d="M20.461,243.531a28.253,28.253,0,0,1,2.605,8.35l.565-.091q-.368-1.931-.7-3.871c-.234-1.4-.788-4.132,1.537-3.875,1.608.178,1.732,2.189,2.089,3.413a15.541,15.541,0,0,0,1.511,3.468c.182.316.705.082.52-.237a15.165,15.165,0,0,1-1.479-3.4,12.389,12.389,0,0,0-.792-2.556,2.246,2.246,0,0,0-2.5-1.255,2.215,2.215,0,0,0-1.742,2.114c-.151,2,.621,4.341.992,6.288a.286.286,0,0,0,.565-.091,28.765,28.765,0,0,0-2.65-8.5c-.161-.329-.682-.095-.52.237" transform="translate(3.119 37.124)" fill="#184f78"/>
        <path id="Trazado_987002" data-name="Trazado 987002" d="M31.752,237.036c-1.358,5.372-1.262,12.349,4.532,15.055.334.157.538-.378.206-.533-5.484-2.562-5.481-9.273-4.206-14.316.09-.353-.443-.563-.533-.206" transform="translate(4.739 36.165)" fill="#184f78"/>
        <path id="Trazado_987003" data-name="Trazado 987003" d="M46.7,235.224c2.651,3.691,5.671,8.262,3.478,12.906-.157.334.377.538.534.207,2.282-4.833-.8-9.623-3.57-13.476-.214-.3-.656.065-.441.363" transform="translate(7.121 35.844)" fill="#184f78"/>
        <path id="Trazado_987004" data-name="Trazado 987004" d="M53.479,239.521q3.7-.424,7.363-1.116c.361-.068.272-.633-.09-.564q-3.664.69-7.363,1.115c-.367.043-.275.606.09.565" transform="translate(8.116 36.315)" fill="#184f78"/>
        <path id="Trazado_987005" data-name="Trazado 987005" d="M54.973,242.319l6.682-1.071a.286.286,0,0,0-.091-.565l-6.682,1.071a.286.286,0,0,0,.091.565" transform="translate(8.345 36.749)" fill="#184f78"/>
        <path id="Trazado_987006" data-name="Trazado 987006" d="M69.215,226.2c-1.95-.2-4.169,1.572-3.316,3.717.3.748.961.865,1.709.867.987,0,1.611-.322,2.511.287,1.867,1.267-.054,3.057-1.525,3.429-.354.089-.266.655.091.564,1.721-.435,3.561-2.064,2.468-3.976a2.1,2.1,0,0,0-1.954-1.006c-.475,0-1.542.32-1.954.123q-.446-.692-.893-1.384.2-.539.4-1.078a2.449,2.449,0,0,1,2.406-.975.286.286,0,0,0,.062-.568" transform="translate(10.033 34.536)" fill="#184f78"/>
        <path id="Trazado_987007" data-name="Trazado 987007" d="M72.662,227.426a22.217,22.217,0,0,0,1.188,5.02c.124.346.644.107.52-.237a21.573,21.573,0,0,1-1.143-4.872c-.043-.367-.607-.275-.565.09" transform="translate(11.094 34.676)" fill="#184f78"/>
        <path id="Trazado_987008" data-name="Trazado 987008" d="M72.448,225.223a.286.286,0,0,0-.091-.565.286.286,0,0,0,.091.565" transform="translate(11.013 34.302)" fill="#184f78"/>
        <path id="Trazado_987009" data-name="Trazado 987009" d="M75.039,225.125l1.84,6.31a.286.286,0,0,0,.564-.09c-.11-1-.435-1.95-.566-2.943-.172-1.3.581-4.28,2.6-2.6,1.319,1.1,1.459,4.129,1.679,5.7a.286.286,0,0,0,.565-.09c-.249-1.769-.549-6.751-3.29-6.627-3.351.152-1.749,4.88-1.553,6.65l.564-.09q-.918-3.155-1.839-6.31c-.1-.349-.667-.263-.565.09" transform="translate(11.456 34.322)" fill="#184f78"/>
        <path id="Trazado_987010" data-name="Trazado 987010" d="M62.611,239.563Q87.458,234.5,112.029,228.2c.354-.091.266-.656-.09-.565Q87.375,233.929,62.521,239c-.36.074-.271.639.09.565" transform="translate(9.511 34.755)" fill="#184f78"/>
        <path id="Trazado_987011" data-name="Trazado 987011" d="M75.216,239.987c-2.2,1.216-4.642,4.184-3.722,6.9.6,1.772,4.886,2.688,5.048.339.025-.367-.543-.431-.568-.063-.031.461-1.526.818-1.928.784a2.427,2.427,0,0,1-1.318-.423c-1.065-.734-.9-2.113-.539-3.2a6.861,6.861,0,0,1,3.266-3.821c.319-.176.085-.7-.237-.52" transform="translate(10.886 36.638)" fill="#184f78"/>
        <path id="Trazado_987012" data-name="Trazado 987012" d="M78.755,241.758a3.421,3.421,0,0,0-1,4.385,3.517,3.517,0,0,0,4.218,1.4,3.639,3.639,0,0,0,2.116-4.151,2.679,2.679,0,0,0-1.043-1.721c-.981-.611-2.911-.235-4.021-.228-.364,0-.43.571-.063.568,1.329-.008,3.767-.512,4.4.968a3.115,3.115,0,0,1-1.253,3.864,2.919,2.919,0,0,1-3.841-.977,2.834,2.834,0,0,1,.85-3.668c.3-.214-.066-.656-.363-.441" transform="translate(11.809 36.848)" fill="#184f78"/>
        <path id="Trazado_987013" data-name="Trazado 987013" d="M86.605,238.63a1.735,1.735,0,0,0-1.547,2.627,2.469,2.469,0,0,0,1.622,1.118c.559.119,1.368-.074,1.872.2,1.277.7.4,1.907-.247,2.368a2.4,2.4,0,0,1-1.2.425c-.365.04-.274.605.091.565,1.284-.141,2.819-1.259,2.59-2.731A1.518,1.518,0,0,0,88.566,242a6.573,6.573,0,0,0-1.24-.128,2.03,2.03,0,0,1-1.226-.4q-.754-.284-.337-1.15-.372-1.148.779-1.118c.365,0,.431-.567.063-.568" transform="translate(12.949 36.436)" fill="#184f78"/>
        <path id="Trazado_987014" data-name="Trazado 987014" d="M93.847,234.53c-1.267,2-2.3,4.883-1.528,7.255.732,2.251,3.245,2.908,5.308,3.337.36.076.42-.493.062-.567-2-.418-4.454-1.051-4.935-3.37a9.1,9.1,0,0,1,1.556-6.319c.2-.31-.266-.647-.463-.335" transform="translate(14.055 35.791)" fill="#184f78"/>
        <path id="Trazado_987015" data-name="Trazado 987015" d="M98.077,235.9a1.431,1.431,0,0,1,1.7-.667,2.2,2.2,0,0,1,1.5,1.964c.218,1.472-.138,3.877-2.006,3.95-.367.015-.273.579.09.565,2.448-.1,2.961-3.509,2.293-5.353-.587-1.618-3.038-2.635-4.047-.794-.174.319.287.658.463.335" transform="translate(14.899 35.819)" fill="#184f78"/>
        <path id="Trazado_987016" data-name="Trazado 987016" d="M101.337,233.866c-.71.26-.821.946-.83,1.636-.013,1.049-.044,2.939.621,3.836.965,1.3,3.616.235,4.318-.859.2-.309-.264-.646-.463-.335-.569.889-3,1.866-3.538.469-.3-.779-.83-3.875.129-4.227.345-.127.107-.647-.237-.52" transform="translate(15.346 35.706)" fill="#184f78"/>
        <path id="Trazado_987017" data-name="Trazado 987017" d="M103.621,231.512c1.116-.153,2.424,1.137,3.164,1.841a9.134,9.134,0,0,1,1.88,2.415,5.482,5.482,0,0,1-.244,5.753.286.286,0,0,0,.462.335,6.133,6.133,0,0,0,.082-6.722c-.938-1.614-3.335-4.475-5.435-4.187a.286.286,0,0,0,.091.565" transform="translate(15.772 35.26)" fill="#184f78"/>
        <path id="Trazado_987018" data-name="Trazado 987018" d="M87.8,221.088c-1.267,2-2.3,4.883-1.528,7.255.732,2.252,3.245,2.908,5.308,3.338.36.075.42-.495.062-.568-2-.418-4.454-1.051-4.935-3.37a9.1,9.1,0,0,1,1.556-6.319c.2-.31-.266-.647-.463-.335" transform="translate(13.133 33.739)" fill="#184f78"/>
        <path id="Trazado_987019" data-name="Trazado 987019" d="M92.035,222.463a1.431,1.431,0,0,1,1.7-.667,2.2,2.2,0,0,1,1.5,1.964c.217,1.472-.138,3.877-2.006,3.95-.367.015-.273.579.09.565,2.448-.1,2.961-3.509,2.293-5.353-.587-1.618-3.038-2.636-4.047-.794-.174.319.287.658.463.335" transform="translate(13.976 33.766)" fill="#184f78"/>
        <path id="Trazado_987020" data-name="Trazado 987020" d="M95.294,220.424c-.71.26-.821.946-.83,1.636-.013,1.049-.044,2.939.622,3.836.964,1.3,3.615.235,4.317-.859.2-.309-.264-.646-.463-.334-.569.888-3,1.865-3.538.468-.3-.779-.83-3.875.129-4.227.345-.127.107-.647-.237-.52" transform="translate(14.423 33.653)" fill="#184f78"/>
        <path id="Trazado_987021" data-name="Trazado 987021" d="M36.624,240.046a2.541,2.541,0,0,1,3.3-.937,3.829,3.829,0,0,1,2.07,3.073c.378,2.337-.182,6.472-3.253,6.547-.363.008-.429.577-.062.568,3.776-.092,4.593-5.229,3.664-8.109-.833-2.588-4.694-4.328-6.252-1.349-.171.326.364.529.533.206" transform="translate(5.506 36.382)" fill="#184f78"/>
        <path id="Trazado_987022" data-name="Trazado 987022" d="M41.978,237.116c-1.064.327-1.216,1.44-1.224,2.423a23.614,23.614,0,0,0,.288,3.432,5.994,5.994,0,0,0,.657,2.583c.7.967,2.1.814,3.142.663a4.634,4.634,0,0,0,3.471-2.009c.195-.31-.267-.648-.462-.334-1.018,1.63-5.049,3.013-5.931.694a12.852,12.852,0,0,1-.493-3.267c-.086-.982-.539-3.254.79-3.664.35-.107.111-.627-.237-.52" transform="translate(6.223 36.203)" fill="#184f78"/>
        <path id="Trazado_987023" data-name="Trazado 987023" d="M97.578,218.069c1.116-.153,2.425,1.137,3.164,1.841a9.134,9.134,0,0,1,1.88,2.415,5.479,5.479,0,0,1-.244,5.753.286.286,0,0,0,.463.335,6.136,6.136,0,0,0,.081-6.722c-.938-1.614-3.334-4.476-5.434-4.187a.286.286,0,0,0,.09.565" transform="translate(14.85 33.207)" fill="#184f78"/>
        <g id="Grupo_1151174" data-name="Grupo 1151174" transform="translate(49.265 300.837)" opacity="0.12">
          <g id="Grupo_1151173" data-name="Grupo 1151173">
            <g id="Grupo_1151172" data-name="Grupo 1151172" clip-path="url(#clip-path-9)">
              <path id="Trazado_987024" data-name="Trazado 987024" d="M80.749,293.233l-1.92-5.9c-.436-.188-.848-.388-1.243-.6-.133-.069-.251-.145-.378-.217-.255-.144-.508-.288-.746-.439-.142-.091-.271-.187-.407-.28-.205-.142-.41-.284-.6-.431-.134-.1-.259-.21-.387-.316-.175-.146-.35-.293-.515-.444-.121-.112-.236-.226-.352-.34-.153-.153-.305-.307-.448-.464-.107-.116-.21-.236-.311-.356-.136-.16-.267-.324-.393-.489-.091-.119-.18-.24-.265-.361q-.183-.259-.35-.524c-.074-.118-.149-.234-.218-.353-.111-.188-.213-.378-.312-.569-.058-.111-.116-.22-.171-.332-.1-.211-.2-.425-.286-.64-.038-.092-.081-.183-.116-.276-.1-.261-.195-.522-.28-.786-.016-.047-.035-.094-.05-.143a16.289,16.289,0,0,1-.7-3.893v-.008c-.02-.318-.03-.632-.035-.943v-.02c0-.31,0-.618.01-.921a24.873,24.873,0,0,1,1.414-7.4l-1.235-4.8L42.74,268.946l1.92,5.076c14,8.1,4.94,21.544,4.94,21.544l1.92,6.175Z" transform="translate(-42.739 -260.987)" fill="#184f78"/>
            </g>
          </g>
        </g>
        <path id="Trazado_987025" data-name="Trazado 987025" d="M36.311,264.9l27.718-7.958,1.236,4.8s-6.175,15.78,7.135,21.543l1.92,5.9L45.093,297.7l-1.922-6.175s9.057-13.447-4.939-21.544Z" transform="translate(5.544 39.233)" fill="#184f78"/>
        <path id="Trazado_987026" data-name="Trazado 987026" d="M54.96,274.544a1.647,1.647,0,1,1-1.646-1.646,1.646,1.646,0,0,1,1.646,1.646" transform="translate(7.889 41.669)" fill="#f5f8fb"/>
        <path id="Trazado_987027" data-name="Trazado 987027" d="M71.49,281.675c-7.24-3.135-8.711-9.232-8.551-14.142-4.162,9.12-10.778,18.951-20.675,22.384l1.919,6.166,29.228-8.507Z" transform="translate(6.453 40.849)" fill="#124768"/>
        <path id="Trazado_987028" data-name="Trazado 987028" d="M46.37,266.2c.412,0,8.027-2.333,8.027-2.333l6.792,22.092-8.6,2.7Z" transform="translate(7.08 40.29)" fill="#f5f8fb"/>
        <path id="Trazado_987029" data-name="Trazado 987029" d="M49.774,265.149l4.715-1.556,6.69,22.28-4.906,1.561" transform="translate(7.6 40.248)" fill="#e1e8ef"/>
        <path id="Trazado_987030" data-name="Trazado 987030" d="M55.114,275.768a1.485,1.485,0,1,1-1.485-1.485,1.485,1.485,0,0,1,1.485,1.485" transform="translate(7.962 41.88)" fill="#184f78"/>
        <g id="Grupo_1151177" data-name="Grupo 1151177" transform="translate(150.265 318.885)" opacity="0.12">
          <g id="Grupo_1151176" data-name="Grupo 1151176">
            <g id="Grupo_1151175" data-name="Grupo 1151175" clip-path="url(#clip-path-10)">
              <path id="Trazado_987031" data-name="Trazado 987031" d="M253.048,307.339v-.014a.6.6,0,0,0-.164-.364.639.639,0,0,0-.184-.134l-6.573-3.2L234.1,297.761l-.006.04a2.177,2.177,0,0,0-.255-.082L135.358,276.7a2.376,2.376,0,0,0-2.322.787,11.985,11.985,0,0,0-2.488,4.591h0c-.047.194-.084.388-.115.586l-.01.068c-.025.18-.044.36-.054.542,0,.045,0,.091,0,.136-.006.164-.007.329,0,.493,0,.067.01.134.016.2.013.148.029.3.054.444.015.088.037.175.056.263.03.13.058.261.1.391.033.11.078.219.119.327s.08.222.13.333c.062.135.139.269.214.4.048.086.089.174.142.259a6.27,6.27,0,0,0,.473.656,2.563,2.563,0,0,0,.287.294,2.444,2.444,0,0,0,1.093.538l49.2,10.176,49.2,10.177a2.421,2.421,0,0,0,.934.008,2.307,2.307,0,0,0,.3-.089v0l12.56-.175,7.194-.1a.609.609,0,0,0,.4-.149.279.279,0,0,0,.023-.028.6.6,0,0,0,.131-.2.638.638,0,0,0,.056-.3" transform="translate(-130.36 -276.644)" fill="#184f78"/>
            </g>
          </g>
        </g>
        <path id="Trazado_987032" data-name="Trazado 987032" d="M235.068,305.01l2.315-5.668a2.393,2.393,0,0,0-1.36-3.141l-94.038-36.018a2.381,2.381,0,0,0-2.416.418c-1.886,1.652-5.217,5.355-2.852,9.364A2.431,2.431,0,0,0,137.952,271l94.057,35.344a2.394,2.394,0,0,0,3.059-1.336" transform="translate(20.75 39.703)" fill="#184f78"/>
        <path id="Trazado_987033" data-name="Trazado 987033" d="M235.547,301.123c-.717-.228-78.975-29.462-99.147-37a5.587,5.587,0,0,0,.317,5.214,2.427,2.427,0,0,0,1.235,1.036l94.057,35.344a2.4,2.4,0,0,0,3.059-1.336l2.313-5.668a2.373,2.373,0,0,0,.116-1.437Z" transform="translate(20.751 40.329)" fill="#124768"/>
        <path id="Trazado_987034" data-name="Trazado 987034" d="M223.378,291.479l16.973,11.837a.623.623,0,0,1-.445,1.127l-19.557-2.787Z" transform="translate(33.645 44.506)" fill="#efc4a3"/>
        <path id="Trazado_987035" data-name="Trazado 987035" d="M231.158,302.415l7.122,1.014a.622.622,0,0,0,.444-1.126l-6-4.183c-1.809,1.757-1.9,3.261-1.569,4.295" transform="translate(35.272 45.52)" fill="#184f78"/>
      </g>
    </g>
  </g>
</svg>
