<svg xmlns="http://www.w3.org/2000/svg" xmlns:xlink="http://www.w3.org/1999/xlink" width="108" height="108" viewBox="0 0 108 108">
  <defs>
    <filter id="Trazado_904820" x="0" y="0" width="108" height="108" filterUnits="userSpaceOnUse">
      <feOffset dy="3" input="SourceAlpha"/>
      <feGaussianBlur stdDeviation="3" result="blur"/>
      <feFlood flood-opacity="0.161"/>
      <feComposite operator="in" in2="blur"/>
      <feComposite in="SourceGraphic"/>
    </filter>
    <clipPath id="clip-path">
      <rect id="Rectángulo_408556" data-name="Rectángulo 408556" width="53" height="53" transform="translate(0 0.405)" fill="none"/>
    </clipPath>
  </defs>
  <g id="Grupo_1150918" data-name="Grupo 1150918" transform="translate(9 6)">
    <g transform="matrix(1, 0, 0, 1, -9, -6)" filter="url(#Trazado_904820)">
      <g id="Trazado_904820-2" data-name="Trazado 904820" transform="translate(9 6)" fill="#ecf4fa">
        <path d="M 45 88.5 C 39.12687683105469 88.5 33.43022537231445 87.35007476806641 28.06830024719238 85.08217620849609 C 22.88852500915527 82.89131164550781 18.23629951477051 79.75458526611328 14.2408504486084 75.75914764404297 C 10.24541282653809 71.76370239257812 7.108687400817871 67.11147308349609 4.917825222015381 61.93170166015625 C 2.649924993515015 56.56977462768555 1.5 50.87312316894531 1.5 45 C 1.5 39.12687683105469 2.649924993515015 33.43022537231445 4.917825222015381 28.06830024719238 C 7.108687400817871 22.88852500915527 10.24541282653809 18.23629951477051 14.2408504486084 14.2408504486084 C 18.23629951477051 10.24541282653809 22.88852500915527 7.108687400817871 28.06830024719238 4.917825222015381 C 33.43022537231445 2.649924993515015 39.12687683105469 1.5 45 1.5 C 50.87312316894531 1.5 56.56977462768555 2.649924993515015 61.93170166015625 4.917825222015381 C 67.11147308349609 7.108687400817871 71.76370239257812 10.24541282653809 75.75914764404297 14.2408504486084 C 79.75458526611328 18.23629951477051 82.89131164550781 22.88852500915527 85.08217620849609 28.06830024719238 C 87.35007476806641 33.43022537231445 88.5 39.12687683105469 88.5 45 C 88.5 50.87312316894531 87.35007476806641 56.56977462768555 85.08217620849609 61.93170166015625 C 82.89131164550781 67.11147308349609 79.75458526611328 71.76370239257812 75.75914764404297 75.75914764404297 C 71.76370239257812 79.75458526611328 67.11147308349609 82.89131164550781 61.93170166015625 85.08217620849609 C 56.56977462768555 87.35007476806641 50.87312316894531 88.5 45 88.5 Z" stroke="none"/>
        <path d="M 45 3 C 39.32871246337891 3 33.82865524291992 4.110054016113281 28.65262985229492 6.299339294433594 C 23.65165710449219 8.414573669433594 19.15968322753906 11.44334411621094 15.301513671875 15.301513671875 C 11.44334411621094 19.15968322753906 8.414573669433594 23.65165710449219 6.299339294433594 28.65262985229492 C 4.110054016113281 33.82865524291992 3 39.32871246337891 3 45 C 3 50.67128753662109 4.110054016113281 56.17134475708008 6.299339294433594 61.34737396240234 C 8.414573669433594 66.34834289550781 11.44334411621094 70.84031677246094 15.301513671875 74.698486328125 C 19.15968322753906 78.55665588378906 23.65165710449219 81.58542633056641 28.65262985229492 83.70066070556641 C 33.82865524291992 85.88994598388672 39.32871246337891 87 45 87 C 50.67128753662109 87 56.17134475708008 85.88994598388672 61.34737396240234 83.70066070556641 C 66.34834289550781 81.58542633056641 70.84031677246094 78.55665588378906 74.698486328125 74.698486328125 C 78.55665588378906 70.84031677246094 81.58542633056641 66.34834289550781 83.70066070556641 61.34737396240234 C 85.88994598388672 56.17134475708008 87 50.67128753662109 87 45 C 87 39.32871246337891 85.88994598388672 33.82865524291992 83.70066070556641 28.65262985229492 C 81.58542633056641 23.65165710449219 78.55665588378906 19.15968322753906 74.698486328125 15.301513671875 C 70.84031677246094 11.44334411621094 66.34834289550781 8.414573669433594 61.34737396240234 6.299339294433594 C 56.17134475708008 4.110054016113281 50.67128753662109 3 45 3 M 45 0 C 69.85281372070312 0 90 20.14718627929688 90 45 C 90 69.85281372070312 69.85281372070312 90 45 90 C 20.14718627929688 90 0 69.85281372070312 0 45 C 0 20.14718627929688 20.14718627929688 0 45 0 Z" stroke="none" fill="#2a5673"/>
      </g>
    </g>
    <g id="Grupo_1151219" data-name="Grupo 1151219" transform="translate(18.819 18.595)">
      <g id="Grupo_1151206" data-name="Grupo 1151206" clip-path="url(#clip-path)">
        <path id="Trazado_987174" data-name="Trazado 987174" d="M50,1l8.011,8.9H51.78A1.785,1.785,0,0,1,50,8.121Z" transform="translate(-5.496 -0.11)" fill="#d1d3d4"/>
        <path id="Trazado_987175" data-name="Trazado 987175" d="M53.944,9.9V49.065a3.559,3.559,0,0,1-3.56,3.56H16.56A3.559,3.559,0,0,1,13,49.065V4.56A3.559,3.559,0,0,1,16.56,1H45.933V8.121a1.785,1.785,0,0,0,1.78,1.78Z" transform="translate(-1.429 -0.11)" fill="#e6e7e8"/>
        <path id="Trazado_987176" data-name="Trazado 987176" d="M27.241,22.78V53.043a1.785,1.785,0,0,1-1.78,1.78h-8.9A3.559,3.559,0,0,1,13,51.263V21H25.461a1.785,1.785,0,0,1,1.78,1.78" transform="translate(-1.429 -2.308)" fill="#d8d7da"/>
        <path id="Trazado_987177" data-name="Trazado 987177" d="M24.142,22.78V53.043a1.785,1.785,0,0,1-1.78,1.78H2.78A1.785,1.785,0,0,1,1,53.043V22.78A1.785,1.785,0,0,1,2.78,21H22.362a1.785,1.785,0,0,1,1.78,1.78" transform="translate(-0.11 -2.308)" fill="#5aaae7"/>
        <path id="Trazado_987178" data-name="Trazado 987178" d="M23.022,27.89v5.341a.893.893,0,0,1-.89.89H7.89a.893.893,0,0,1-.89-.89V27.89A.893.893,0,0,1,7.89,27H22.131a.893.893,0,0,1,.89.89" transform="translate(-0.769 -2.968)" fill="#3d9ae2"/>
        <path id="Trazado_987179" data-name="Trazado 987179" d="M22.131,39H7.89a.893.893,0,0,0-.89.89V54.131a.893.893,0,0,0,.89.89H22.131a.893.893,0,0,0,.89-.89V39.89a.893.893,0,0,0-.89-.89" transform="translate(-0.769 -4.287)" fill="#3d9ae2"/>
        <rect id="Rectángulo_408533" data-name="Rectángulo 408533" width="5" height="5" transform="translate(15 38.405)" fill="#329bed"/>
        <path id="Trazado_987180" data-name="Trazado 987180" d="M22.341,49v4.45a.893.893,0,0,1-.89.89H17V49Z" transform="translate(-1.869 -5.386)" fill="#158be6"/>
        <rect id="Rectángulo_408534" data-name="Rectángulo 408534" width="6" height="5" transform="translate(4 38.405)" fill="#329bed"/>
        <rect id="Rectángulo_408535" data-name="Rectángulo 408535" width="5" height="5" transform="translate(10 33.405)" fill="#329bed"/>
        <path id="Trazado_987181" data-name="Trazado 987181" d="M10.341,49v5.341H5.89A.893.893,0,0,1,5,53.45V49Z" transform="translate(-0.55 -5.386)" fill="#158be6"/>
        <rect id="Rectángulo_408536" data-name="Rectángulo 408536" width="5" height="5" transform="translate(10 38.405)" fill="#158be6"/>
        <rect id="Rectángulo_408537" data-name="Rectángulo 408537" width="5" height="6" transform="translate(10 43.405)" fill="#329bed"/>
        <path id="Trazado_987182" data-name="Trazado 987182" d="M22.341,37.89v4.45H17V37h4.45a.893.893,0,0,1,.89.89" transform="translate(-1.869 -4.067)" fill="#158be6"/>
        <path id="Trazado_987183" data-name="Trazado 987183" d="M10.341,37v5.341H5V37.89A.893.893,0,0,1,5.89,37Z" transform="translate(-0.55 -4.067)" fill="#158be6"/>
        <path id="Trazado_987184" data-name="Trazado 987184" d="M21.022,25.89v5.341a.893.893,0,0,1-.89.89H5.89a.893.893,0,0,1-.89-.89V25.89A.893.893,0,0,1,5.89,25H20.131a.893.893,0,0,1,.89.89" transform="translate(-0.55 -2.748)" fill="#c2dff6"/>
        <path id="Trazado_987185" data-name="Trazado 987185" d="M52.341,15H48.78A1.785,1.785,0,0,0,47,16.78V42.593l1.584,3.56L50.56,50.6l1.976-4.45,1.584-3.56V16.78A1.785,1.785,0,0,0,52.341,15" transform="translate(-5.166 -1.649)" fill="#d8d7da"/>
        <path id="Trazado_987186" data-name="Trazado 987186" d="M48.56,46h3.56l-1.584,3.56H46.584L45,46Z" transform="translate(-4.946 -5.056)" fill="#c6c5ca"/>
        <path id="Trazado_987187" data-name="Trazado 987187" d="M45,21h7.121v3.56H45Z" transform="translate(-4.946 -2.308)" fill="#d1d3d4"/>
        <path id="Trazado_987188" data-name="Trazado 987188" d="M46.78,50h3.952l-1.976,4.45Z" transform="translate(-5.142 -5.496)" fill="#898890"/>
        <path id="Trazado_987189" data-name="Trazado 987189" d="M46.78,15h3.56a1.785,1.785,0,0,1,1.78,1.78v3.56H45V16.78A1.785,1.785,0,0,1,46.78,15" transform="translate(-4.946 -1.649)" fill="#f1f2f2"/>
        <rect id="Rectángulo_408538" data-name="Rectángulo 408538" width="3" height="19" transform="translate(44 22.405)" fill="#00b39d"/>
        <rect id="Rectángulo_408539" data-name="Rectángulo 408539" width="4" height="19" transform="translate(40 22.405)" fill="#00ccb3"/>
        <path id="Trazado_987190" data-name="Trazado 987190" d="M53.174,9.195,45.163.294A.891.891,0,0,0,44.5,0H15.131a4.452,4.452,0,0,0-4.45,4.45V17.8H2.67A2.678,2.678,0,0,0,0,20.472V50.735a2.678,2.678,0,0,0,2.67,2.67H48.955a4.452,4.452,0,0,0,4.45-4.45V9.791a.864.864,0,0,0-.231-.6M45.394,3.213,50.512,8.9H46.285a.893.893,0,0,1-.89-.89ZM23.142,50.735a.893.893,0,0,1-.89.89H2.67a.893.893,0,0,1-.89-.89V20.472a.893.893,0,0,1,.89-.89H22.252a.893.893,0,0,1,.89.89Zm28.483-1.78a2.678,2.678,0,0,1-2.67,2.67H24.762a2.674,2.674,0,0,0,.16-.89V20.472a2.678,2.678,0,0,0-2.67-2.67H12.461V4.45a2.678,2.678,0,0,1,2.67-2.67H43.614V8.011a2.678,2.678,0,0,0,2.67,2.67h5.341Z"/>
        <rect id="Rectángulo_408540" data-name="Rectángulo 408540" width="14" height="2" transform="translate(16 8.405)"/>
        <rect id="Rectángulo_408541" data-name="Rectángulo 408541" width="2" height="2" transform="translate(16 5.405)"/>
        <rect id="Rectángulo_408542" data-name="Rectángulo 408542" width="10" height="2" transform="translate(20 5.405)"/>
        <rect id="Rectángulo_408543" data-name="Rectángulo 408543" width="20" height="2" transform="translate(16 14.405)"/>
        <rect id="Rectángulo_408544" data-name="Rectángulo 408544" width="9" height="2" transform="translate(27 17.405)"/>
        <rect id="Rectángulo_408545" data-name="Rectángulo 408545" width="9" height="2" transform="translate(27 21.405)"/>
        <rect id="Rectángulo_408546" data-name="Rectángulo 408546" width="9" height="1" transform="translate(27 25.405)"/>
        <rect id="Rectángulo_408547" data-name="Rectángulo 408547" width="9" height="2" transform="translate(27 28.405)"/>
        <rect id="Rectángulo_408548" data-name="Rectángulo 408548" width="9" height="1" transform="translate(27 32.405)"/>
        <rect id="Rectángulo_408549" data-name="Rectángulo 408549" width="9" height="2" transform="translate(27 35.405)"/>
        <rect id="Rectángulo_408550" data-name="Rectángulo 408550" width="9" height="2" transform="translate(27 39.405)"/>
        <rect id="Rectángulo_408551" data-name="Rectángulo 408551" width="9" height="2" transform="translate(27 42.405)"/>
        <rect id="Rectángulo_408552" data-name="Rectángulo 408552" width="9" height="2" transform="translate(27 46.405)"/>
        <path id="Trazado_987191" data-name="Trazado 987191" d="M20.022,36H5.78A1.782,1.782,0,0,0,4,37.78V52.022A1.782,1.782,0,0,0,5.78,53.8H20.022a1.782,1.782,0,0,0,1.78-1.78V37.78A1.782,1.782,0,0,0,20.022,36m0,5.341h-3.56V37.78h3.56Zm-8.9,1.78h3.56v3.56h-3.56Zm3.56,8.9h-3.56v-3.56h3.56ZM9.341,46.681H5.78v-3.56h3.56Zm1.78-8.9h3.56v3.56h-3.56Zm5.341,5.341h3.561v3.56H16.461Zm-7.121-1.78H5.78V37.78h3.56ZM5.78,48.461h3.56v3.56H5.78Zm10.681,3.56v-3.56h3.561v3.56Z" transform="translate(-0.44 -3.957)"/>
        <path id="Trazado_987192" data-name="Trazado 987192" d="M20.022,24H5.78A1.782,1.782,0,0,0,4,25.78v5.341A1.782,1.782,0,0,0,5.78,32.9H20.022a1.782,1.782,0,0,0,1.78-1.78V25.78A1.782,1.782,0,0,0,20.022,24m0,7.121H5.78V25.78H20.022Z" transform="translate(-0.44 -2.638)"/>
        <rect id="Rectángulo_408553" data-name="Rectángulo 408553" width="2" height="1" transform="translate(15 25.405)"/>
        <rect id="Rectángulo_408554" data-name="Rectángulo 408554" width="1" height="1" transform="translate(12 25.405)"/>
        <rect id="Rectángulo_408555" data-name="Rectángulo 408555" width="2" height="1" transform="translate(8 25.405)"/>
        <path id="Trazado_987193" data-name="Trazado 987193" d="M50.231,14H46.67A2.678,2.678,0,0,0,44,16.67V42.483a.871.871,0,0,0,.08.365l3.56,8.011a.887.887,0,0,0,1.62,0l3.56-8.011a.871.871,0,0,0,.08-.365V16.67A2.678,2.678,0,0,0,50.231,14M45.78,24.681h1.78V41.593H45.78ZM48.45,48.3l-.605-1.371h1.211Zm1.4-3.151H47.053l-.792-1.78H50.64Zm1.273-3.56h-1.78V24.681h1.78Zm0-18.692H45.78v-1.78h5.341Zm0-3.56H45.78V16.67a.893.893,0,0,1,.89-.89h3.56a.893.893,0,0,1,.89.89Z" transform="translate(-4.836 -1.539)"/>
      </g>
    </g>
  </g>
</svg>
