<svg xmlns="http://www.w3.org/2000/svg" xmlns:xlink="http://www.w3.org/1999/xlink" width="108" height="108" viewBox="0 0 108 108">
  <defs>
    <filter id="Fondo" x="0" y="0" width="108" height="108" filterUnits="userSpaceOnUse">
      <feOffset dy="3" input="SourceAlpha"/>
      <feGaussianBlur stdDeviation="3" result="blur"/>
      <feFlood flood-opacity="0.161"/>
      <feComposite operator="in" in2="blur"/>
      <feComposite in="SourceGraphic"/>
    </filter>
    <clipPath id="clip-path">
      <rect id="Rectángulo_408492" data-name="Rectángulo 408492" width="48.595" height="49" fill="none"/>
    </clipPath>
  </defs>
  <g id="Icono" transform="translate(-325.72 -689)">
    <g transform="matrix(1, 0, 0, 1, 325.72, 689)" filter="url(#Fondo)">
      <g id="Fondo-2" data-name="Fondo" transform="translate(9 6)" fill="#e6d567">
        <path d="M 45 88.5 C 39.12687683105469 88.5 33.43022537231445 87.35007476806641 28.06830024719238 85.08217620849609 C 22.88852500915527 82.89131164550781 18.23629951477051 79.75458526611328 14.2408504486084 75.75914764404297 C 10.24541282653809 71.76370239257812 7.108687400817871 67.11147308349609 4.917825222015381 61.93170166015625 C 2.649924993515015 56.56977462768555 1.5 50.87312316894531 1.5 45 C 1.5 39.12687683105469 2.649924993515015 33.43022537231445 4.917825222015381 28.06830024719238 C 7.108687400817871 22.88852500915527 10.24541282653809 18.23629951477051 14.2408504486084 14.2408504486084 C 18.23629951477051 10.24541282653809 22.88852500915527 7.108687400817871 28.06830024719238 4.917825222015381 C 33.43022537231445 2.649924993515015 39.12687683105469 1.5 45 1.5 C 50.87312316894531 1.5 56.56977462768555 2.649924993515015 61.93170166015625 4.917825222015381 C 67.11147308349609 7.108687400817871 71.76370239257812 10.24541282653809 75.75914764404297 14.2408504486084 C 79.75458526611328 18.23629951477051 82.89131164550781 22.88852500915527 85.08217620849609 28.06830024719238 C 87.35007476806641 33.43022537231445 88.5 39.12687683105469 88.5 45 C 88.5 50.87312316894531 87.35007476806641 56.56977462768555 85.08217620849609 61.93170166015625 C 82.89131164550781 67.11147308349609 79.75458526611328 71.76370239257812 75.75914764404297 75.75914764404297 C 71.76370239257812 79.75458526611328 67.11147308349609 82.89131164550781 61.93170166015625 85.08217620849609 C 56.56977462768555 87.35007476806641 50.87312316894531 88.5 45 88.5 Z" stroke="none"/>
        <path d="M 45 3 C 39.32871246337891 3 33.82865524291992 4.110054016113281 28.65262985229492 6.299339294433594 C 23.65165710449219 8.414573669433594 19.15968322753906 11.44334411621094 15.301513671875 15.301513671875 C 11.44334411621094 19.15968322753906 8.414573669433594 23.65165710449219 6.299339294433594 28.65262985229492 C 4.110054016113281 33.82865524291992 3 39.32871246337891 3 45 C 3 50.67128753662109 4.110054016113281 56.17134475708008 6.299339294433594 61.34737396240234 C 8.414573669433594 66.34834289550781 11.44334411621094 70.84031677246094 15.301513671875 74.698486328125 C 19.15968322753906 78.55665588378906 23.65165710449219 81.58542633056641 28.65262985229492 83.70066070556641 C 33.82865524291992 85.88994598388672 39.32871246337891 87 45 87 C 50.67128753662109 87 56.17134475708008 85.88994598388672 61.34737396240234 83.70066070556641 C 66.34834289550781 81.58542633056641 70.84031677246094 78.55665588378906 74.698486328125 74.698486328125 C 78.55665588378906 70.84031677246094 81.58542633056641 66.34834289550781 83.70066070556641 61.34737396240234 C 85.88994598388672 56.17134475708008 87 50.67128753662109 87 45 C 87 39.32871246337891 85.88994598388672 33.82865524291992 83.70066070556641 28.65262985229492 C 81.58542633056641 23.65165710449219 78.55665588378906 19.15968322753906 74.698486328125 15.301513671875 C 70.84031677246094 11.44334411621094 66.34834289550781 8.414573669433594 61.34737396240234 6.299339294433594 C 56.17134475708008 4.110054016113281 50.67128753662109 3 45 3 M 45 0 C 69.85281372070312 0 90 20.14718627929688 90 45 C 90 69.85281372070312 69.85281372070312 90 45 90 C 20.14718627929688 90 0 69.85281372070312 0 45 C 0 20.14718627929688 20.14718627929688 0 45 0 Z" stroke="none" fill="#bca724"/>
      </g>
    </g>
    <g id="Grupo_1151210" data-name="Grupo 1151210" transform="translate(355.422 716)">
      <g id="Grupo_1151187" data-name="Grupo 1151187" clip-path="url(#clip-path)">
        <path id="Trazado_987075" data-name="Trazado 987075" d="M46.355,2.62V36.636a1.625,1.625,0,0,1-1.62,1.62H2.62A1.625,1.625,0,0,1,1,36.636V2.62A1.625,1.625,0,0,1,2.62,1H44.736a1.625,1.625,0,0,1,1.62,1.62" transform="translate(-0.19 -0.19)" fill="#ee8700"/>
        <path id="Trazado_987076" data-name="Trazado 987076" d="M24.438,5V35.777H5.81a.812.812,0,0,1-.81-.81V5.81A.812.812,0,0,1,5.81,5Z" transform="translate(-0.95 -0.95)" fill="#f1f2f2"/>
        <path id="Trazado_987077" data-name="Trazado 987077" d="M48.438,5.81V34.967a.812.812,0,0,1-.81.81H29V5H47.628a.812.812,0,0,1,.81.81" transform="translate(-5.512 -0.95)" fill="#e6e7e8"/>
        <path id="Trazado_987078" data-name="Trazado 987078" d="M48.24,5V9.86L46.62,8.24,45,9.86V5Z" transform="translate(-8.554 -0.95)" fill="#ff6243"/>
        <path id="Trazado_987079" data-name="Trazado 987079" d="M54.058,22.62V50.157a1.625,1.625,0,0,1-1.62,1.62H34.62A1.625,1.625,0,0,1,33,50.157V22.62A1.625,1.625,0,0,1,34.62,21H52.438a1.625,1.625,0,0,1,1.62,1.62" transform="translate(-6.273 -3.992)" fill="#5aaae7"/>
        <path id="Trazado_987080" data-name="Trazado 987080" d="M53.579,27.81v4.86a.812.812,0,0,1-.81.81H39.81a.812.812,0,0,1-.81-.81V27.81a.812.812,0,0,1,.81-.81H52.769a.812.812,0,0,1,.81.81" transform="translate(-7.413 -5.132)" fill="#3d9ae2"/>
        <path id="Trazado_987081" data-name="Trazado 987081" d="M52.769,39H39.81a.812.812,0,0,0-.81.81V52.769a.812.812,0,0,0,.81.81H52.769a.812.812,0,0,0,.81-.81V39.81a.812.812,0,0,0-.81-.81" transform="translate(-7.413 -7.413)" fill="#3d9ae2"/>
        <rect id="Rectángulo_408479" data-name="Rectángulo 408479" width="4.86" height="4.86" transform="translate(39.686 34.826)" fill="#329bed"/>
        <path id="Trazado_987082" data-name="Trazado 987082" d="M53.86,49v4.05a.812.812,0,0,1-.81.81H49V49Z" transform="translate(-9.314 -9.314)" fill="#158be6"/>
        <rect id="Rectángulo_408480" data-name="Rectángulo 408480" width="4.86" height="4.86" transform="translate(29.967 34.826)" fill="#329bed"/>
        <rect id="Rectángulo_408481" data-name="Rectángulo 408481" width="4.86" height="4.86" transform="translate(34.826 29.967)" fill="#329bed"/>
        <path id="Trazado_987083" data-name="Trazado 987083" d="M41.86,49v4.86H37.81a.812.812,0,0,1-.81-.81V49Z" transform="translate(-7.033 -9.314)" fill="#158be6"/>
        <rect id="Rectángulo_408482" data-name="Rectángulo 408482" width="4.86" height="4.86" transform="translate(34.826 34.826)" fill="#158be6"/>
        <rect id="Rectángulo_408483" data-name="Rectángulo 408483" width="4.86" height="4.86" transform="translate(34.826 39.686)" fill="#329bed"/>
        <path id="Trazado_987084" data-name="Trazado 987084" d="M53.86,37.81v4.05H49V37h4.05a.812.812,0,0,1,.81.81" transform="translate(-9.314 -7.033)" fill="#158be6"/>
        <path id="Trazado_987085" data-name="Trazado 987085" d="M41.86,37v4.86H37V37.81a.812.812,0,0,1,.81-.81Z" transform="translate(-7.033 -7.033)" fill="#158be6"/>
        <path id="Trazado_987086" data-name="Trazado 987086" d="M51.579,25.81v4.86a.812.812,0,0,1-.81.81H37.81a.812.812,0,0,1-.81-.81V25.81a.812.812,0,0,1,.81-.81H50.769a.812.812,0,0,1,.81.81" transform="translate(-7.033 -4.752)" fill="#c2dff6"/>
        <path id="Trazado_987087" data-name="Trazado 987087" d="M19.629,49.1a1.625,1.625,0,0,1,1.62-1.62,1.632,1.632,0,0,1,1.62,1.62v7.289H8.509L5.488,51.156a1.62,1.62,0,0,1,.591-2.219,1.593,1.593,0,0,1,.8-.219,1.621,1.621,0,0,1,1.409.818l1.62,2.8V42.62A1.625,1.625,0,0,1,11.53,41a1.632,1.632,0,0,1,1.62,1.62v4.86a1.68,1.68,0,0,1,1.62-1.62,1.632,1.632,0,0,1,1.62,1.62v.81a1.625,1.625,0,0,1,1.62-1.62,1.632,1.632,0,0,1,1.62,1.62Z" transform="translate(-1.001 -7.793)" fill="#ffc477"/>
        <path id="Trazado_987088" data-name="Trazado 987088" d="M50.579,36H37.62A1.621,1.621,0,0,0,36,37.62V50.579a1.621,1.621,0,0,0,1.62,1.62H50.579a1.621,1.621,0,0,0,1.62-1.62V37.62A1.621,1.621,0,0,0,50.579,36m0,4.86h-3.24V37.62h3.24Zm-8.1,1.62h3.24v3.24h-3.24Zm3.24,8.1h-3.24v-3.24h3.24Zm-4.86-4.86H37.62v-3.24h3.24Zm1.62-8.1h3.24v3.24h-3.24Zm4.86,4.86h3.24v3.24h-3.24ZM40.86,40.86H37.62V37.62h3.24Zm-3.24,6.479h3.24v3.24H37.62Zm9.719,3.24v-3.24h3.24v3.24Z" transform="translate(-6.843 -6.843)"/>
        <path id="Trazado_987089" data-name="Trazado 987089" d="M46.975,16.344V2.43A2.437,2.437,0,0,0,44.545,0H2.43A2.437,2.437,0,0,0,0,2.43V36.446a2.437,2.437,0,0,0,2.43,2.43H8.1v2.648l-.105-.186a2.431,2.431,0,1,0-4.212,2.43L6.8,49l1.4-.81L5.183,42.958a.818.818,0,0,1,.3-1.11.8.8,0,0,1,1.1.3l1.62,2.8a.828.828,0,0,0,.915.381.814.814,0,0,0,.6-.786V34.826a.81.81,0,0,1,1.62,0v7.289a.81.81,0,0,0,1.62,0v-2.43a.87.87,0,0,1,.81-.81.812.812,0,0,1,.81.81v2.43a.81.81,0,0,0,1.62,0V40.5a.81.81,0,0,1,1.62,0v2.43a.81.81,0,1,0,1.62,0v-1.62a.81.81,0,1,1,1.62,0V48.6h1.62V41.306a2.437,2.437,0,0,0-2.43-2.43,2.376,2.376,0,0,0-1.191.316,2,2,0,0,0-.259-.316h7.119v7.289a2.437,2.437,0,0,0,2.43,2.43H46.165a2.437,2.437,0,0,0,2.43-2.43V18.628a2.438,2.438,0,0,0-1.62-2.284M24.3,1.62H44.545a.812.812,0,0,1,.81.81V16.2h-1.62V4.86a1.625,1.625,0,0,0-1.62-1.62H24.3ZM38.876,4.86v2.1l-.235-.243a.821.821,0,0,0-1.15,0l-.235.243V4.86Zm-16.2,32.4H12.959v-1.62h9.719Zm0-27.537h-1.62v1.62h1.62v3.24h-1.62V16.2h1.62v3.24h-1.62v1.62h1.62V24.3h-1.62v1.62h1.62v3.24h-1.62v1.62h1.62v3.24H12.813a2.42,2.42,0,0,0-4.568,0H4.86V4.86H22.678Zm0-6.479H4.86A1.625,1.625,0,0,0,3.24,4.86V34.017a1.625,1.625,0,0,0,1.62,1.62H8.1v1.62H2.43a.812.812,0,0,1-.81-.81V2.43a.812.812,0,0,1,.81-.81H22.678Zm3.24,34.017H24.3v-1.62h1.62Zm0-3.24H24.3v-3.24h1.62Zm0-4.86H24.3v-3.24h1.62Zm0-4.86H24.3v-3.24h1.62Zm0-5.669v.81H24.3V16.2h1.62v-1.62H24.3v-3.24h1.62V9.719H24.3V4.86H35.636v4.05a.8.8,0,0,0,.5.745.812.812,0,0,0,.883-.17l1.045-1.053,1.045,1.053a.815.815,0,0,0,.575.235.679.679,0,0,0,.308-.065.8.8,0,0,0,.5-.745V4.86h1.62V16.2H28.347a2.437,2.437,0,0,0-2.43,2.43M46.975,46.165a.812.812,0,0,1-.81.81H28.347a.812.812,0,0,1-.81-.81V18.628a.812.812,0,0,1,.81-.81H46.165a.812.812,0,0,1,.81.81Z"/>
        <path id="Trazado_987090" data-name="Trazado 987090" d="M50.579,24H37.62A1.621,1.621,0,0,0,36,25.62v4.86a1.621,1.621,0,0,0,1.62,1.62H50.579a1.621,1.621,0,0,0,1.62-1.62V25.62A1.621,1.621,0,0,0,50.579,24m0,6.479H37.62V25.62H50.579Z" transform="translate(-6.843 -4.562)"/>
        <rect id="Rectángulo_408484" data-name="Rectángulo 408484" width="1.62" height="1.62" transform="translate(39.686 22.678)"/>
        <rect id="Rectángulo_408485" data-name="Rectángulo 408485" width="1.62" height="1.62" transform="translate(36.446 22.678)"/>
        <rect id="Rectángulo_408486" data-name="Rectángulo 408486" width="1.62" height="1.62" transform="translate(33.207 22.678)"/>
        <rect id="Rectángulo_408487" data-name="Rectángulo 408487" width="11.339" height="1.62" transform="translate(6.479 19.438)"/>
        <rect id="Rectángulo_408488" data-name="Rectángulo 408488" width="11.339" height="1.62" transform="translate(6.479 25.917)"/>
        <rect id="Rectángulo_408489" data-name="Rectángulo 408489" width="11.339" height="1.62" transform="translate(6.479 29.157)"/>
        <rect id="Rectángulo_408490" data-name="Rectángulo 408490" width="8.099" height="1.62" transform="translate(6.479 22.678)"/>
        <rect id="Rectángulo_408491" data-name="Rectángulo 408491" width="1.62" height="1.62" transform="translate(16.198 22.678)"/>
        <path id="Trazado_987091" data-name="Trazado 987091" d="M10.566,19.359a.811.811,0,0,0,.674.36.969.969,0,0,0,.119-.008.811.811,0,0,0,.657-.569l2.256-7.522h6.687V10H13.669a.811.811,0,0,0-.776.577l-1.935,6.45-.665-1a.809.809,0,0,0-.674-.361H8v1.62H9.187Z" transform="translate(-1.521 -1.901)"/>
        <path id="Trazado_987092" data-name="Trazado 987092" d="M20.046,14.465l-1.718,1.718L16.61,14.465,15.465,15.61l1.718,1.718-1.718,1.718,1.145,1.145,1.718-1.718,1.718,1.718,1.145-1.145-1.718-1.718,1.718-1.718Z" transform="translate(-2.94 -2.75)"/>
      </g>
    </g>
  </g>
</svg>
