<svg xmlns="http://www.w3.org/2000/svg" xmlns:xlink="http://www.w3.org/1999/xlink" width="108" height="108" viewBox="0 0 108 108">
  <defs>
    <filter id="Fondo" x="0" y="0" width="108" height="108" filterUnits="userSpaceOnUse">
      <feOffset dy="3" input="SourceAlpha"/>
      <feGaussianBlur stdDeviation="3" result="blur"/>
      <feFlood flood-opacity="0.161"/>
      <feComposite operator="in" in2="blur"/>
      <feComposite in="SourceGraphic"/>
    </filter>
    <clipPath id="clip-path">
      <rect id="Rectángulo_408478" data-name="Rectángulo 408478" width="49" height="49" fill="none"/>
    </clipPath>
  </defs>
  <g id="Icono" transform="translate(-325.72 -689)">
    <g transform="matrix(1, 0, 0, 1, 325.72, 689)" filter="url(#Fondo)">
      <g id="Fondo-2" data-name="Fondo" transform="translate(9 6)" fill="#e6d567">
        <path d="M 45 88.5 C 39.12687683105469 88.5 33.43022537231445 87.35007476806641 28.06830024719238 85.08217620849609 C 22.88852500915527 82.89131164550781 18.23629951477051 79.75458526611328 14.2408504486084 75.75914764404297 C 10.24541282653809 71.76370239257812 7.108687400817871 67.11147308349609 4.917825222015381 61.93170166015625 C 2.649924993515015 56.56977462768555 1.5 50.87312316894531 1.5 45 C 1.5 39.12687683105469 2.649924993515015 33.43022537231445 4.917825222015381 28.06830024719238 C 7.108687400817871 22.88852500915527 10.24541282653809 18.23629951477051 14.2408504486084 14.2408504486084 C 18.23629951477051 10.24541282653809 22.88852500915527 7.108687400817871 28.06830024719238 4.917825222015381 C 33.43022537231445 2.649924993515015 39.12687683105469 1.5 45 1.5 C 50.87312316894531 1.5 56.56977462768555 2.649924993515015 61.93170166015625 4.917825222015381 C 67.11147308349609 7.108687400817871 71.76370239257812 10.24541282653809 75.75914764404297 14.2408504486084 C 79.75458526611328 18.23629951477051 82.89131164550781 22.88852500915527 85.08217620849609 28.06830024719238 C 87.35007476806641 33.43022537231445 88.5 39.12687683105469 88.5 45 C 88.5 50.87312316894531 87.35007476806641 56.56977462768555 85.08217620849609 61.93170166015625 C 82.89131164550781 67.11147308349609 79.75458526611328 71.76370239257812 75.75914764404297 75.75914764404297 C 71.76370239257812 79.75458526611328 67.11147308349609 82.89131164550781 61.93170166015625 85.08217620849609 C 56.56977462768555 87.35007476806641 50.87312316894531 88.5 45 88.5 Z" stroke="none"/>
        <path d="M 45 3 C 39.32871246337891 3 33.82865524291992 4.110054016113281 28.65262985229492 6.299339294433594 C 23.65165710449219 8.414573669433594 19.15968322753906 11.44334411621094 15.301513671875 15.301513671875 C 11.44334411621094 19.15968322753906 8.414573669433594 23.65165710449219 6.299339294433594 28.65262985229492 C 4.110054016113281 33.82865524291992 3 39.32871246337891 3 45 C 3 50.67128753662109 4.110054016113281 56.17134475708008 6.299339294433594 61.34737396240234 C 8.414573669433594 66.34834289550781 11.44334411621094 70.84031677246094 15.301513671875 74.698486328125 C 19.15968322753906 78.55665588378906 23.65165710449219 81.58542633056641 28.65262985229492 83.70066070556641 C 33.82865524291992 85.88994598388672 39.32871246337891 87 45 87 C 50.67128753662109 87 56.17134475708008 85.88994598388672 61.34737396240234 83.70066070556641 C 66.34834289550781 81.58542633056641 70.84031677246094 78.55665588378906 74.698486328125 74.698486328125 C 78.55665588378906 70.84031677246094 81.58542633056641 66.34834289550781 83.70066070556641 61.34737396240234 C 85.88994598388672 56.17134475708008 87 50.67128753662109 87 45 C 87 39.32871246337891 85.88994598388672 33.82865524291992 83.70066070556641 28.65262985229492 C 81.58542633056641 23.65165710449219 78.55665588378906 19.15968322753906 74.698486328125 15.301513671875 C 70.84031677246094 11.44334411621094 66.34834289550781 8.414573669433594 61.34737396240234 6.299339294433594 C 56.17134475708008 4.110054016113281 50.67128753662109 3 45 3 M 45 0 C 69.85281372070312 0 90 20.14718627929688 90 45 C 90 69.85281372070312 69.85281372070312 90 45 90 C 20.14718627929688 90 0 69.85281372070312 0 45 C 0 20.14718627929688 20.14718627929688 0 45 0 Z" stroke="none" fill="#bca724"/>
      </g>
    </g>
    <g id="Grupo_1151211" data-name="Grupo 1151211" transform="translate(355.72 716)">
      <g id="Grupo_1151185" data-name="Grupo 1151185" clip-path="url(#clip-path)">
        <path id="Trazado_987055" data-name="Trazado 987055" d="M38.567,4.267V45.1A3.266,3.266,0,0,1,35.3,48.367H4.267A3.266,3.266,0,0,1,1,45.1V4.267A3.266,3.266,0,0,1,4.267,1H35.3a3.266,3.266,0,0,1,3.267,3.267" transform="translate(-0.183 -0.183)" fill="#e6e7e8"/>
        <path id="Trazado_987056" data-name="Trazado 987056" d="M44.067,23V49.133A3.266,3.266,0,0,1,40.8,52.4H31V24.633A1.638,1.638,0,0,1,32.633,23Z" transform="translate(-5.683 -4.217)" fill="#d8d7da"/>
        <path id="Trazado_987057" data-name="Trazado 987057" d="M54.233,22.633V50.4A1.638,1.638,0,0,1,52.6,52.033H34.633A1.638,1.638,0,0,1,33,50.4V22.633A1.638,1.638,0,0,1,34.633,21H52.6a1.638,1.638,0,0,1,1.633,1.633" transform="translate(-6.05 -3.85)" fill="#5aaae7"/>
        <path id="Trazado_987058" data-name="Trazado 987058" d="M53.7,27.817v4.9a.819.819,0,0,1-.817.817H39.817A.819.819,0,0,1,39,32.717v-4.9A.819.819,0,0,1,39.817,27H52.883a.819.819,0,0,1,.817.817" transform="translate(-7.15 -4.95)" fill="#3d9ae2"/>
        <path id="Trazado_987059" data-name="Trazado 987059" d="M52.883,39H39.817a.819.819,0,0,0-.817.817V52.883a.819.819,0,0,0,.817.817H52.883a.819.819,0,0,0,.817-.817V39.817A.819.819,0,0,0,52.883,39" transform="translate(-7.15 -7.15)" fill="#3d9ae2"/>
        <rect id="Rectángulo_408462" data-name="Rectángulo 408462" width="4.9" height="4.9" transform="translate(40.017 35.117)" fill="#329bed"/>
        <path id="Trazado_987060" data-name="Trazado 987060" d="M53.9,49v4.083a.819.819,0,0,1-.817.817H49V49Z" transform="translate(-8.983 -8.983)" fill="#158be6"/>
        <rect id="Rectángulo_408463" data-name="Rectángulo 408463" width="4.9" height="4.9" transform="translate(30.217 35.117)" fill="#329bed"/>
        <rect id="Rectángulo_408464" data-name="Rectángulo 408464" width="4.9" height="4.9" transform="translate(35.117 30.217)" fill="#329bed"/>
        <path id="Trazado_987061" data-name="Trazado 987061" d="M41.9,49v4.9H37.817A.819.819,0,0,1,37,53.083V49Z" transform="translate(-6.783 -8.983)" fill="#158be6"/>
        <rect id="Rectángulo_408465" data-name="Rectángulo 408465" width="4.9" height="4.9" transform="translate(35.117 35.117)" fill="#158be6"/>
        <rect id="Rectángulo_408466" data-name="Rectángulo 408466" width="4.9" height="4.9" transform="translate(35.117 40.017)" fill="#329bed"/>
        <path id="Trazado_987062" data-name="Trazado 987062" d="M53.9,37.817V41.9H49V37h4.083a.819.819,0,0,1,.817.817" transform="translate(-8.983 -6.783)" fill="#158be6"/>
        <path id="Trazado_987063" data-name="Trazado 987063" d="M41.9,37v4.9H37V37.817A.819.819,0,0,1,37.817,37Z" transform="translate(-6.783 -6.783)" fill="#158be6"/>
        <path id="Trazado_987064" data-name="Trazado 987064" d="M51.7,25.817v4.9a.819.819,0,0,1-.817.817H37.817A.819.819,0,0,1,37,30.717v-4.9A.819.819,0,0,1,37.817,25H50.883a.819.819,0,0,1,.817.817" transform="translate(-6.783 -4.583)" fill="#c2dff6"/>
        <path id="Trazado_987065" data-name="Trazado 987065" d="M42.6,9v6.533H30.35L27.083,14.08,23,12.267l4.083-1.813L30.35,9Z" transform="translate(-4.217 -1.65)" fill="#d8d7da"/>
        <path id="Trazado_987066" data-name="Trazado 987066" d="M33.267,10.267v3.267L30,12.08V8.454L33.267,7Z" transform="translate(-5.5 -1.283)" fill="#c6c5ca"/>
        <path id="Trazado_987067" data-name="Trazado 987067" d="M52.267,7v6.533H49V7Z" transform="translate(-8.983 -1.283)" fill="#d1d3d4"/>
        <path id="Trazado_987068" data-name="Trazado 987068" d="M29.083,8.78v3.626L25,10.593Z" transform="translate(-4.583 -1.61)" fill="#898890"/>
        <path id="Trazado_987069" data-name="Trazado 987069" d="M57.9,8.633V11.9a1.638,1.638,0,0,1-1.633,1.633H53V7h3.267A1.638,1.638,0,0,1,57.9,8.633" transform="translate(-9.717 -1.283)" fill="#e6e7e8"/>
        <rect id="Rectángulo_408467" data-name="Rectángulo 408467" width="12.25" height="3.267" transform="translate(27.767 8.983)" fill="#00b39d"/>
        <rect id="Rectángulo_408468" data-name="Rectángulo 408468" width="12.25" height="3.267" transform="translate(27.767 5.717)" fill="#00ccb3"/>
        <path id="Trazado_987070" data-name="Trazado 987070" d="M37.633,32.167H50.7a1.635,1.635,0,0,0,1.633-1.633v-4.9A1.635,1.635,0,0,0,50.7,24H37.633A1.635,1.635,0,0,0,36,25.633v4.9a1.635,1.635,0,0,0,1.633,1.633m0-6.533H50.7v4.9H37.633Z" transform="translate(-6.6 -4.4)"/>
        <rect id="Rectángulo_408469" data-name="Rectángulo 408469" width="1.633" height="1.633" transform="translate(40.017 22.867)"/>
        <rect id="Rectángulo_408470" data-name="Rectángulo 408470" width="1.633" height="1.633" transform="translate(36.75 22.867)"/>
        <rect id="Rectángulo_408471" data-name="Rectángulo 408471" width="1.633" height="1.633" transform="translate(33.483 22.867)"/>
        <path id="Trazado_987071" data-name="Trazado 987071" d="M46.55,13.067A2.457,2.457,0,0,0,49,10.617V7.35A2.457,2.457,0,0,0,46.55,4.9H39.2V4.083A4.085,4.085,0,0,0,35.117,0H4.083A4.085,4.085,0,0,0,0,4.083V44.917A4.085,4.085,0,0,0,4.083,49H46.55A2.457,2.457,0,0,0,49,46.55V18.783a2.457,2.457,0,0,0-2.45-2.45H39.2V13.067ZM44.1,6.533h2.45a.819.819,0,0,1,.817.817v3.267a.819.819,0,0,1-.817.817H44.1Zm-3.267,0h1.633v4.9H40.833ZM39.2,8.167H28.583V6.533H39.2Zm-12.92,39.2H4.083a2.457,2.457,0,0,1-2.45-2.45V4.083a2.457,2.457,0,0,1,2.45-2.45H35.117a2.457,2.457,0,0,1,2.45,2.45V4.9h-9.8a.8.8,0,0,0-.335.074L20.082,8.24a.814.814,0,0,0,0,1.486l7.35,3.267a.8.8,0,0,0,.335.073h9.8v3.267H28.583a2.457,2.457,0,0,0-2.45,2.45V46.55a2.454,2.454,0,0,0,.147.817m.67-40.392v4.018l-1.633-.727V7.7ZM23.683,8.428V9.539l-1.258-.555ZM46.55,17.967a.819.819,0,0,1,.817.817V46.55a.819.819,0,0,1-.817.817H28.583a.819.819,0,0,1-.817-.817V18.783a.819.819,0,0,1,.817-.817ZM28.583,9.8H39.2v1.633H28.583Z"/>
        <path id="Trazado_987072" data-name="Trazado 987072" d="M50.7,36H37.633A1.638,1.638,0,0,0,36,37.633V50.7a1.638,1.638,0,0,0,1.633,1.633H50.7A1.638,1.638,0,0,0,52.333,50.7V37.633A1.638,1.638,0,0,0,50.7,36M40.9,50.7H37.633V47.433H40.9Zm0-4.9H37.633V42.533H40.9Zm0-4.9H37.633V37.633H40.9Zm4.9,9.8H42.533V47.433H45.8Zm0-4.9H42.533V42.533H45.8Zm0-4.9H42.533V37.633H45.8Zm4.9,9.8H47.433V47.433H50.7Zm0-4.9H47.433V42.533H50.7Zm0-4.9H47.433V37.633H50.7Z" transform="translate(-6.6 -6.6)"/>
        <path id="Trazado_987073" data-name="Trazado 987073" d="M8.587,19.437a.818.818,0,0,0,.679.363.977.977,0,0,0,.12-.008.817.817,0,0,0,.662-.574l2.275-7.584h6.742V10h-7.35a.818.818,0,0,0-.782.582l-1.951,6.5-.67-1.005a.815.815,0,0,0-.679-.364H6V17.35H7.2Z" transform="translate(-1.1 -1.833)"/>
        <path id="Trazado_987074" data-name="Trazado 987074" d="M19.084,14.465,17.352,16.2,15.62,14.465,14.465,15.62,16.2,17.352l-1.732,1.732,1.155,1.155,1.732-1.732,1.732,1.732,1.155-1.155-1.732-1.732,1.732-1.732Z" transform="translate(-2.652 -2.652)"/>
        <rect id="Rectángulo_408472" data-name="Rectángulo 408472" width="17.967" height="1.633" transform="translate(4.9 21.233)"/>
        <rect id="Rectángulo_408473" data-name="Rectángulo 408473" width="17.967" height="1.633" transform="translate(4.9 24.5)"/>
        <rect id="Rectángulo_408474" data-name="Rectángulo 408474" width="17.967" height="1.633" transform="translate(4.9 27.767)"/>
        <rect id="Rectángulo_408475" data-name="Rectángulo 408475" width="17.967" height="1.633" transform="translate(4.9 31.033)"/>
        <rect id="Rectángulo_408476" data-name="Rectángulo 408476" width="17.967" height="1.633" transform="translate(4.9 34.3)"/>
        <rect id="Rectángulo_408477" data-name="Rectángulo 408477" width="17.967" height="1.633" transform="translate(4.9 37.567)"/>
      </g>
    </g>
  </g>
</svg>
