<svg xmlns="http://www.w3.org/2000/svg" xmlns:xlink="http://www.w3.org/1999/xlink" width="108" height="108" viewBox="0 0 108 108">
  <defs>
    <filter id="Trazado_904820" x="0" y="0" width="108" height="108" filterUnits="userSpaceOnUse">
      <feOffset dy="3" input="SourceAlpha"/>
      <feGaussianBlur stdDeviation="3" result="blur"/>
      <feFlood flood-opacity="0.161"/>
      <feComposite operator="in" in2="blur"/>
      <feComposite in="SourceGraphic"/>
    </filter>
    <clipPath id="clip-path">
      <rect id="Rectángulo_408508" data-name="Rectángulo 408508" width="48.789" height="62.59" fill="none"/>
    </clipPath>
  </defs>
  <g id="Grupo_1151220" data-name="Grupo 1151220" transform="translate(-201.001 -4112)">
    <g id="Grupo_1150896" data-name="Grupo 1150896" transform="translate(210.001 4118)">
      <g transform="matrix(1, 0, 0, 1, -9, -6)" filter="url(#Trazado_904820)">
        <g id="Trazado_904820-2" data-name="Trazado 904820" transform="translate(9 6)" fill="#ecf4fa">
          <path d="M 45 88.5 C 39.12687683105469 88.5 33.43022537231445 87.35007476806641 28.06830024719238 85.08217620849609 C 22.88852500915527 82.89131164550781 18.23629951477051 79.75458526611328 14.2408504486084 75.75914764404297 C 10.24541282653809 71.76370239257812 7.108687400817871 67.11147308349609 4.917825222015381 61.93170166015625 C 2.649924993515015 56.56977462768555 1.5 50.87312316894531 1.5 45 C 1.5 39.12687683105469 2.649924993515015 33.43022537231445 4.917825222015381 28.06830024719238 C 7.108687400817871 22.88852500915527 10.24541282653809 18.23629951477051 14.2408504486084 14.2408504486084 C 18.23629951477051 10.24541282653809 22.88852500915527 7.108687400817871 28.06830024719238 4.917825222015381 C 33.43022537231445 2.649924993515015 39.12687683105469 1.5 45 1.5 C 50.87312316894531 1.5 56.56977462768555 2.649924993515015 61.93170166015625 4.917825222015381 C 67.11147308349609 7.108687400817871 71.76370239257812 10.24541282653809 75.75914764404297 14.2408504486084 C 79.75458526611328 18.23629951477051 82.89131164550781 22.88852500915527 85.08217620849609 28.06830024719238 C 87.35007476806641 33.43022537231445 88.5 39.12687683105469 88.5 45 C 88.5 50.87312316894531 87.35007476806641 56.56977462768555 85.08217620849609 61.93170166015625 C 82.89131164550781 67.11147308349609 79.75458526611328 71.76370239257812 75.75914764404297 75.75914764404297 C 71.76370239257812 79.75458526611328 67.11147308349609 82.89131164550781 61.93170166015625 85.08217620849609 C 56.56977462768555 87.35007476806641 50.87312316894531 88.5 45 88.5 Z" stroke="none"/>
          <path d="M 45 3 C 39.32871246337891 3 33.82865524291992 4.110054016113281 28.65262985229492 6.299339294433594 C 23.65165710449219 8.414573669433594 19.15968322753906 11.44334411621094 15.301513671875 15.301513671875 C 11.44334411621094 19.15968322753906 8.414573669433594 23.65165710449219 6.299339294433594 28.65262985229492 C 4.110054016113281 33.82865524291992 3 39.32871246337891 3 45 C 3 50.67128753662109 4.110054016113281 56.17134475708008 6.299339294433594 61.34737396240234 C 8.414573669433594 66.34834289550781 11.44334411621094 70.84031677246094 15.301513671875 74.698486328125 C 19.15968322753906 78.55665588378906 23.65165710449219 81.58542633056641 28.65262985229492 83.70066070556641 C 33.82865524291992 85.88994598388672 39.32871246337891 87 45 87 C 50.67128753662109 87 56.17134475708008 85.88994598388672 61.34737396240234 83.70066070556641 C 66.34834289550781 81.58542633056641 70.84031677246094 78.55665588378906 74.698486328125 74.698486328125 C 78.55665588378906 70.84031677246094 81.58542633056641 66.34834289550781 83.70066070556641 61.34737396240234 C 85.88994598388672 56.17134475708008 87 50.67128753662109 87 45 C 87 39.32871246337891 85.88994598388672 33.82865524291992 83.70066070556641 28.65262985229492 C 81.58542633056641 23.65165710449219 78.55665588378906 19.15968322753906 74.698486328125 15.301513671875 C 70.84031677246094 11.44334411621094 66.34834289550781 8.414573669433594 61.34737396240234 6.299339294433594 C 56.17134475708008 4.110054016113281 50.67128753662109 3 45 3 M 45 0 C 69.85281372070312 0 90 20.14718627929688 90 45 C 90 69.85281372070312 69.85281372070312 90 45 90 C 20.14718627929688 90 0 69.85281372070312 0 45 C 0 20.14718627929688 20.14718627929688 0 45 0 Z" stroke="none" fill="#2a5673"/>
        </g>
      </g>
    </g>
    <g id="Grupo_1151196" data-name="Grupo 1151196" transform="translate(230.607 4131.705)">
      <rect id="Rectángulo_408505" data-name="Rectángulo 408505" width="44.299" height="58.145" transform="translate(0.617 3.828)" fill="#cdcdc6"/>
      <rect id="Rectángulo_408506" data-name="Rectángulo 408506" width="44.299" height="58.145" transform="translate(3.873 0.617)" fill="#fff"/>
      <rect id="Rectángulo_408507" data-name="Rectángulo 408507" width="3.013" height="58.145" transform="translate(3.873 0.617)" fill="#cdcdc6"/>
      <path id="Trazado_987104" data-name="Trazado 987104" d="M86.081,94.923l15.871-26.679,15.871,26.679Z" transform="translate(-75.453 -59.818)" fill="#68c0e0"/>
      <g id="Grupo_1151195" data-name="Grupo 1151195">
        <g id="Grupo_1151194" data-name="Grupo 1151194" clip-path="url(#clip-path)">
          <path id="Trazado_987105" data-name="Trazado 987105" d="M.617,62.59h44.3a.617.617,0,0,0,.617-.617V59.38h2.638a.617.617,0,0,0,.617-.617V.617A.617.617,0,0,0,48.172,0H3.873a.617.617,0,0,0-.617.617V3.21H.617A.617.617,0,0,0,0,3.828V61.973a.617.617,0,0,0,.617.617M4.49,1.235H47.554v56.91H4.49ZM1.235,4.445H3.256V58.762a.617.617,0,0,0,.617.617H44.3v1.976H1.235Z"/>
          <path id="Trazado_987106" data-name="Trazado 987106" d="M59.846,45.33h4.669a.617.617,0,1,0,0-1.235H59.846a.617.617,0,0,0,0,1.235" transform="translate(-51.916 -38.651)"/>
          <path id="Trazado_987107" data-name="Trazado 987107" d="M59.846,61.33h4.669a.617.617,0,1,0,0-1.235H59.846a.617.617,0,1,0,0,1.235" transform="translate(-51.916 -52.675)"/>
          <path id="Trazado_987108" data-name="Trazado 987108" d="M59.846,77.33h4.669a.617.617,0,1,0,0-1.235H59.846a.617.617,0,0,0,0,1.235" transform="translate(-51.916 -66.7)"/>
          <path id="Trazado_987109" data-name="Trazado 987109" d="M68.8,96.207a.617.617,0,0,0,.892-.854l-2.937-3.068a.618.618,0,0,0-.446-.19H59.845a.617.617,0,1,0,0,1.235h6.2Z" transform="translate(-51.916 -80.725)"/>
          <path id="Trazado_987110" data-name="Trazado 987110" d="M293.915,86.441H285.6a.617.617,0,0,0,0,1.235h8.312a.617.617,0,0,0,0-1.235" transform="translate(-249.8 -75.769)"/>
          <path id="Trazado_987111" data-name="Trazado 987111" d="M309.939,66.441h-6.055a.617.617,0,0,0,0,1.235h6.055a.617.617,0,0,0,0-1.235" transform="translate(-265.824 -58.238)"/>
          <path id="Trazado_987112" data-name="Trazado 987112" d="M309.939,46.441h-6.055a.617.617,0,0,0,0,1.235h6.055a.617.617,0,0,0,0-1.235" transform="translate(-265.824 -40.707)"/>
          <path id="Trazado_987113" data-name="Trazado 987113" d="M98.1,63.546a.617.617,0,0,0-1.061,0L81.168,90.224a.617.617,0,0,0,.531.933H113.44a.617.617,0,0,0,.531-.933Zm.087,26.377V88.554a.617.617,0,1,0-1.235,0v1.369H82.784L96.951,66.106v.224a.617.617,0,1,0,1.235,0v-.224l14.168,23.816Z" transform="translate(-71.07 -55.436)"/>
          <path id="Trazado_987114" data-name="Trazado 987114" d="M210.244,183.244a.617.617,0,0,0-.617.617v2.469a.617.617,0,1,0,1.235,0v-2.469a.617.617,0,0,0-.617-.617" transform="translate(-183.746 -160.62)"/>
          <path id="Trazado_987115" data-name="Trazado 987115" d="M210.244,223.244a.617.617,0,0,0-.617.617v2.469a.617.617,0,1,0,1.235,0v-2.469a.617.617,0,0,0-.617-.617" transform="translate(-183.746 -195.682)"/>
          <path id="Trazado_987116" data-name="Trazado 987116" d="M210.244,143.244a.617.617,0,0,0-.617.617v2.469a.617.617,0,1,0,1.235,0v-2.469a.617.617,0,0,0-.617-.617" transform="translate(-183.746 -125.559)"/>
          <path id="Trazado_987117" data-name="Trazado 987117" d="M210.244,103.244a.617.617,0,0,0-.617.617v2.469a.617.617,0,1,0,1.235,0v-2.469a.617.617,0,0,0-.617-.617" transform="translate(-183.746 -90.497)"/>
          <path id="Trazado_987118" data-name="Trazado 987118" d="M97.175,381.076H92.6a.617.617,0,1,0,0,1.235h4.57a.617.617,0,1,0,0-1.235" transform="translate(-80.63 -334.027)"/>
          <path id="Trazado_987119" data-name="Trazado 987119" d="M111.73,331.855v-4.686a.617.617,0,0,0-1.235,0v4.686a.617.617,0,0,0,1.235,0" transform="translate(-96.853 -286.234)"/>
          <path id="Trazado_987120" data-name="Trazado 987120" d="M183.759,358.487a2.312,2.312,0,0,0-1.093.274v-2.024a.617.617,0,0,0-1.235,0v6.022a.615.615,0,0,0,1.087.4,2.323,2.323,0,0,0,3.568-1.966v-.374a2.33,2.33,0,0,0-2.328-2.328m1.093,2.7a1.093,1.093,0,1,1-2.186,0v-.374a1.093,1.093,0,1,1,2.186,0Z" transform="translate(-159.031 -312.152)"/>
          <path id="Trazado_987121" data-name="Trazado 987121" d="M266.978,358.487a2.313,2.313,0,0,0-1.093.274v-2.024a.617.617,0,0,0-1.235,0v6.022a.617.617,0,0,0,1.235,0v-1.944a1.093,1.093,0,0,1,2.186,0v1.944a.617.617,0,0,0,1.235,0v-1.944a2.33,2.33,0,0,0-2.328-2.328" transform="translate(-231.976 -312.152)"/>
          <path id="Trazado_987122" data-name="Trazado 987122" d="M227.472,372.346a.617.617,0,0,0-.873-.013l-1.28,1.243-1.28-1.243a.617.617,0,1,0-.86.886l1.254,1.218-1.254,1.217a.617.617,0,0,0,.86.886l1.28-1.243,1.28,1.243a.617.617,0,0,0,.86-.886l-1.254-1.217,1.254-1.218a.617.617,0,0,0,.013-.873" transform="translate(-195.46 -326.211)"/>
          <path id="Trazado_987123" data-name="Trazado 987123" d="M156.657,344.732l.128-.14a.617.617,0,1,0-.912-.832l-.128.141a7.108,7.108,0,0,0,.14,9.708.617.617,0,0,0,.888-.858,5.871,5.871,0,0,1-.116-8.018" transform="translate(-134.897 -301.142)"/>
          <path id="Trazado_987124" data-name="Trazado 987124" d="M305.9,343.76a.617.617,0,0,0-.913.832l.128.141A5.872,5.872,0,0,1,305,352.75a.617.617,0,0,0,.888.858,7.109,7.109,0,0,0,.14-9.708Z" transform="translate(-267.191 -301.142)"/>
          <path id="Trazado_987125" data-name="Trazado 987125" d="M101.786,400.684h.722a1.519,1.519,0,0,0,0-3.039h-1.624a.617.617,0,1,0,0,1.235h1.624a.285.285,0,0,1,0,.569h-.722a1.521,1.521,0,0,0-1.519,1.519v1.984a.617.617,0,0,0,.617.617h2.526a.617.617,0,1,0,0-1.235H101.5v-1.367a.285.285,0,0,1,.285-.285" transform="translate(-87.888 -348.551)"/>
        </g>
      </g>
    </g>
  </g>
</svg>
