<svg xmlns="http://www.w3.org/2000/svg" xmlns:xlink="http://www.w3.org/1999/xlink" width="108" height="108" viewBox="0 0 108 108">
  <defs>
    <filter id="Fondo" x="0" y="0" width="108" height="108" filterUnits="userSpaceOnUse">
      <feOffset dy="3" input="SourceAlpha"/>
      <feGaussianBlur stdDeviation="3" result="blur"/>
      <feFlood flood-opacity="0.161"/>
      <feComposite operator="in" in2="blur"/>
      <feComposite in="SourceGraphic"/>
    </filter>
    <clipPath id="clip-path">
      <rect id="Rectángulo_408532" data-name="Rectángulo 408532" width="44.897" height="45" fill="none"/>
    </clipPath>
  </defs>
  <g id="Icono" transform="translate(9 -689)">
    <g transform="matrix(1, 0, 0, 1, -9, 689)" filter="url(#Fondo)">
      <g id="Fondo-2" data-name="Fondo" transform="translate(9 6)" fill="#e6d567">
        <path d="M 45 88.5 C 39.12687683105469 88.5 33.43022537231445 87.35007476806641 28.06830024719238 85.08217620849609 C 22.88852500915527 82.89131164550781 18.23629951477051 79.75458526611328 14.2408504486084 75.75914764404297 C 10.24541282653809 71.76370239257812 7.108687400817871 67.11147308349609 4.917825222015381 61.93170166015625 C 2.649924993515015 56.56977462768555 1.5 50.87312316894531 1.5 45 C 1.5 39.12687683105469 2.649924993515015 33.43022537231445 4.917825222015381 28.06830024719238 C 7.108687400817871 22.88852500915527 10.24541282653809 18.23629951477051 14.2408504486084 14.2408504486084 C 18.23629951477051 10.24541282653809 22.88852500915527 7.108687400817871 28.06830024719238 4.917825222015381 C 33.43022537231445 2.649924993515015 39.12687683105469 1.5 45 1.5 C 50.87312316894531 1.5 56.56977462768555 2.649924993515015 61.93170166015625 4.917825222015381 C 67.11147308349609 7.108687400817871 71.76370239257812 10.24541282653809 75.75914764404297 14.2408504486084 C 79.75458526611328 18.23629951477051 82.89131164550781 22.88852500915527 85.08217620849609 28.06830024719238 C 87.35007476806641 33.43022537231445 88.5 39.12687683105469 88.5 45 C 88.5 50.87312316894531 87.35007476806641 56.56977462768555 85.08217620849609 61.93170166015625 C 82.89131164550781 67.11147308349609 79.75458526611328 71.76370239257812 75.75914764404297 75.75914764404297 C 71.76370239257812 79.75458526611328 67.11147308349609 82.89131164550781 61.93170166015625 85.08217620849609 C 56.56977462768555 87.35007476806641 50.87312316894531 88.5 45 88.5 Z" stroke="none"/>
        <path d="M 45 3 C 39.32871246337891 3 33.82865524291992 4.110054016113281 28.65262985229492 6.299339294433594 C 23.65165710449219 8.414573669433594 19.15968322753906 11.44334411621094 15.301513671875 15.301513671875 C 11.44334411621094 19.15968322753906 8.414573669433594 23.65165710449219 6.299339294433594 28.65262985229492 C 4.110054016113281 33.82865524291992 3 39.32871246337891 3 45 C 3 50.67128753662109 4.110054016113281 56.17134475708008 6.299339294433594 61.34737396240234 C 8.414573669433594 66.34834289550781 11.44334411621094 70.84031677246094 15.301513671875 74.698486328125 C 19.15968322753906 78.55665588378906 23.65165710449219 81.58542633056641 28.65262985229492 83.70066070556641 C 33.82865524291992 85.88994598388672 39.32871246337891 87 45 87 C 50.67128753662109 87 56.17134475708008 85.88994598388672 61.34737396240234 83.70066070556641 C 66.34834289550781 81.58542633056641 70.84031677246094 78.55665588378906 74.698486328125 74.698486328125 C 78.55665588378906 70.84031677246094 81.58542633056641 66.34834289550781 83.70066070556641 61.34737396240234 C 85.88994598388672 56.17134475708008 87 50.67128753662109 87 45 C 87 39.32871246337891 85.88994598388672 33.82865524291992 83.70066070556641 28.65262985229492 C 81.58542633056641 23.65165710449219 78.55665588378906 19.15968322753906 74.698486328125 15.301513671875 C 70.84031677246094 11.44334411621094 66.34834289550781 8.414573669433594 61.34737396240234 6.299339294433594 C 56.17134475708008 4.110054016113281 50.67128753662109 3 45 3 M 45 0 C 69.85281372070312 0 90 20.14718627929688 90 45 C 90 69.85281372070312 69.85281372070312 90 45 90 C 20.14718627929688 90 0 69.85281372070312 0 45 C 0 20.14718627929688 20.14718627929688 0 45 0 Z" stroke="none" fill="#bca724"/>
      </g>
    </g>
    <g id="Grupo_1151215" data-name="Grupo 1151215" transform="translate(22.552 716)">
      <g id="Grupo_1151204" data-name="Grupo 1151204" clip-path="url(#clip-path)">
        <path id="Trazado_987163" data-name="Trazado 987163" d="M25.678,27.006H6.329A1.328,1.328,0,0,1,5,25.677V6.328A1.328,1.328,0,0,1,6.329,5H25.678a1.328,1.328,0,0,1,1.328,1.328V25.677a1.328,1.328,0,0,1-1.328,1.328" transform="translate(-4.558 -4.557)" fill="#e15f4f"/>
        <path id="Trazado_987164" data-name="Trazado 987164" d="M7.161,25.677V6.328A1.328,1.328,0,0,1,8.489,5H6.328A1.328,1.328,0,0,0,5,6.328V25.677a1.328,1.328,0,0,0,1.328,1.328H8.489a1.328,1.328,0,0,1-1.328-1.328" transform="translate(-4.557 -4.557)" fill="#ca4336"/>
        <path id="Trazado_987165" data-name="Trazado 987165" d="M25.678,275.483H6.329A1.328,1.328,0,0,1,5,274.154V254.805a1.328,1.328,0,0,1,1.328-1.328H25.678a1.328,1.328,0,0,1,1.328,1.328v19.349a1.328,1.328,0,0,1-1.328,1.328" transform="translate(-4.558 -231.028)" fill="#4eb7a2"/>
        <path id="Trazado_987166" data-name="Trazado 987166" d="M7.161,274.154V254.805a1.328,1.328,0,0,1,1.328-1.328H6.328A1.328,1.328,0,0,0,5,254.805v19.349a1.328,1.328,0,0,0,1.328,1.328H8.489a1.328,1.328,0,0,1-1.328-1.328" transform="translate(-4.557 -231.028)" fill="#26a08a"/>
        <path id="Trazado_987167" data-name="Trazado 987167" d="M274.153,49.017H254.8a1.328,1.328,0,0,1-1.328-1.328V6.335A1.328,1.328,0,0,1,254.8,5.007h19.349a1.328,1.328,0,0,1,1.328,1.328V47.689a1.328,1.328,0,0,1-1.328,1.328" transform="translate(-231.027 -4.564)" fill="#68c0e0"/>
        <path id="Trazado_987168" data-name="Trazado 987168" d="M255.628,47.689V6.335a1.328,1.328,0,0,1,1.328-1.328H254.8a1.328,1.328,0,0,0-1.328,1.328V47.689a1.328,1.328,0,0,0,1.328,1.328h2.153a1.328,1.328,0,0,1-1.328-1.328" transform="translate(-231.027 -4.564)" fill="#3282a1"/>
        <path id="Trazado_987169" data-name="Trazado 987169" d="M43.126.1H23.777a1.764,1.764,0,0,0-1.282.553A1.768,1.768,0,0,0,21.12,0H1.771A1.773,1.773,0,0,0,0,1.771V21.12a1.766,1.766,0,0,0,.6,1.328A1.766,1.766,0,0,0,0,23.777V43.126A1.773,1.773,0,0,0,1.771,44.9H21.12a1.765,1.765,0,0,0,1.282-.553A1.768,1.768,0,0,0,23.777,45H43.126A1.773,1.773,0,0,0,44.9,43.229V1.875A1.773,1.773,0,0,0,43.126.1M.886,21.12V1.771A.887.887,0,0,1,1.771.886H21.12a.887.887,0,0,1,.886.886V21.12a.887.887,0,0,1-.886.886H1.771a.887.887,0,0,1-.886-.886m21.12,22.006a.887.887,0,0,1-.886.886H1.771a.887.887,0,0,1-.886-.886V23.777a.887.887,0,0,1,.886-.886H21.12a.887.887,0,0,1,.886.886Zm22.006.1a.887.887,0,0,1-.886.886H23.777a.887.887,0,0,1-.886-.886V1.875A.887.887,0,0,1,23.777.99H43.126a.887.887,0,0,1,.886.886Z"/>
        <path id="Trazado_987170" data-name="Trazado 987170" d="M96.49,93.012H93.9V90.421a.443.443,0,0,0-.886,0v2.591H90.422a.443.443,0,0,0,0,.886h2.591v2.591a.443.443,0,0,0,.886,0V93.9H96.49a.443.443,0,1,0,0-.886" transform="translate(-82.01 -82.009)"/>
        <path id="Trazado_987171" data-name="Trazado 987171" d="M96.49,372.714H90.422a.443.443,0,0,0,0,.886H96.49a.443.443,0,1,0,0-.886" transform="translate(-82.01 -339.705)"/>
        <path id="Trazado_987172" data-name="Trazado 987172" d="M344.966,271.375H338.9a.443.443,0,0,0,0,.886h6.068a.443.443,0,0,0,0-.886" transform="translate(-308.481 -247.341)"/>
        <path id="Trazado_987173" data-name="Trazado 987173" d="M344.966,225.576H338.9a.443.443,0,0,0,0,.886h6.068a.443.443,0,0,0,0-.886" transform="translate(-308.481 -205.598)"/>
      </g>
    </g>
  </g>
</svg>
